<svg width="420" height="95" viewBox="0 0 420 95" fill="none" xmlns="http://www.w3.org/2000/svg">
<path d="M0.36 93V91.8H2.88C4.48 91.8 5.76 91.6 6.72 91.2C7.68 90.8 8.36 89.96 8.76 88.68C9.16 87.32 9.36 85.32 9.36 82.68V17.88C9.36 15.16 9.16 13.16 8.76 11.88C8.36 10.52 7.68 9.64 6.72 9.24C5.84 8.75999 4.56 8.51999 2.88 8.51999H0.36V7.31999H49.32L49.92 28.08H48.72L48.48 21.84C48.24 18.24 47.68 15.48 46.8 13.56C46 11.64 44.68 10.32 42.84 9.59999C41 8.87999 38.36 8.51999 34.92 8.51999H19.92V47.52H44.04V48.72H19.92L19.8 91.8H38.28C41.64 91.8 44.2 91.48 45.96 90.84C47.8 90.12 49.12 88.88 49.92 87.12C50.72 85.36 51.24 82.92 51.48 79.8L51.96 72.24H53.16L52.44 93H0.36ZM58.1656 93V91.8H60.5656C62.0056 91.8 63.2056 91.6 64.1656 91.2C65.1256 90.8 65.8456 90 66.3256 88.8C66.8856 87.52 67.1656 85.56 67.1656 82.92V29.88H58.6456V28.68H67.1656V22.56C67.1656 15.36 68.6056 9.87999 71.4856 6.12C74.3656 2.36 78.8856 0.479997 85.0456 0.479997C88.1656 0.479997 90.6456 0.879996 92.4856 1.68C94.3256 2.4 95.6456 3.44 96.4456 4.8C97.2456 6.08 97.6456 7.56 97.6456 9.24C97.6456 11.16 97.1256 12.76 96.0856 14.04C95.1256 15.32 93.3256 15.96 90.6856 15.96C90.6856 12.28 90.5256 9.44 90.2056 7.43999C89.9656 5.36 89.4856 3.88 88.7656 2.99999C88.0456 2.11999 86.9256 1.68 85.4056 1.68C82.4456 1.68 80.3656 3.16 79.1656 6.12C78.0456 9 77.4856 13.28 77.4856 18.96V28.68H100.526V29.88H77.4856V82.92C77.4856 85.56 77.7256 87.52 78.2056 88.8C78.6856 90 79.4056 90.8 80.3656 91.2C81.3256 91.6 82.5256 91.8 83.9656 91.8H85.2856V93H58.1656ZM91.5256 93V91.8H93.9256C95.3656 91.8 96.5656 91.6 97.5256 91.2C98.4856 90.8 99.2056 90 99.6856 88.8C100.246 87.52 100.526 85.56 100.526 82.92V29.88H92.0056V28.68H100.526V25.8C100.526 20.92 101.126 16.6 102.326 12.84C103.606 9 105.526 6 108.086 3.84C110.726 1.6 114.126 0.479997 118.286 0.479997C121.566 0.479997 124.166 0.879996 126.086 1.68C128.006 2.4 129.366 3.44 130.166 4.8C131.046 6.08 131.486 7.56 131.486 9.24C131.486 10.68 131.246 11.92 130.766 12.96C130.286 13.92 129.486 14.68 128.366 15.24C127.326 15.72 125.886 15.96 124.046 15.96C124.046 10.84 123.726 7.2 123.086 5.04C122.446 2.8 120.926 1.68 118.526 1.68C115.726 1.68 113.726 3.44 112.526 6.96C111.406 10.48 110.846 15.4 110.846 21.72V28.68H124.166V29.88H110.846V82.92C110.846 85.56 111.086 87.52 111.566 88.8C112.046 90 112.766 90.8 113.726 91.2C114.766 91.6 116.006 91.8 117.446 91.8H122.246V93H91.5256ZM151.743 94.2C144.623 94.2 139.063 91.48 135.063 86.04C131.063 80.6 129.063 72.2 129.063 60.84C129.063 49.64 130.943 41.32 134.703 35.88C138.463 30.36 144.223 27.6 151.983 27.6C159.343 27.6 164.943 30.36 168.783 35.88C172.623 41.4 174.543 49.72 174.543 60.84C174.543 72.28 172.623 80.72 168.783 86.16C164.943 91.52 159.263 94.2 151.743 94.2ZM151.863 93C154.903 93 157.303 91.96 159.063 89.88C160.903 87.72 162.183 84.28 162.903 79.56C163.703 74.84 164.103 68.6 164.103 60.84C164.103 52.92 163.703 46.64 162.903 42C162.183 37.28 160.903 33.92 159.063 31.92C157.303 29.84 154.863 28.8 151.743 28.8C148.783 28.8 146.383 29.84 144.543 31.92C142.783 33.92 141.503 37.28 140.703 42C139.983 46.64 139.623 52.92 139.623 60.84C139.623 68.6 140.023 74.84 140.823 79.56C141.703 84.28 143.023 87.72 144.783 89.88C146.623 91.96 148.983 93 151.863 93ZM181.45 93V91.8H181.57C183.81 91.8 185.45 91.6 186.49 91.2C187.61 90.8 188.37 90 188.77 88.8C189.17 87.52 189.37 85.68 189.37 83.28V38.28C189.37 35.8 189.17 34 188.77 32.88C188.45 31.68 187.73 30.88 186.61 30.48C185.57 30.08 183.97 29.88 181.81 29.88H181.45V28.68H199.69V42.12H199.93C200.65 39.24 201.57 36.72 202.69 34.56C203.81 32.32 205.25 30.6 207.01 29.4C208.85 28.12 211.05 27.48 213.61 27.48C216.73 27.48 219.09 28.32 220.69 30C222.29 31.6 223.09 33.72 223.09 36.36C223.09 38.84 222.41 40.76 221.05 42.12C219.69 43.4 217.65 44.04 214.93 44.04C214.93 39.08 214.57 35.64 213.85 33.72C213.21 31.8 211.89 30.84 209.89 30.84C208.37 30.84 206.97 31.4 205.69 32.52C204.49 33.64 203.45 35.32 202.57 37.56C201.69 39.72 201.01 42.44 200.53 45.72C200.05 48.92 199.81 52.68 199.81 57V83.28C199.81 85.68 200.01 87.52 200.41 88.8C200.81 90 201.61 90.8 202.81 91.2C204.01 91.6 205.77 91.8 208.09 91.8H209.41V93H181.45ZM246.308 94.2C241.828 94.2 238.428 92.88 236.108 90.24C233.788 87.52 232.628 82.68 232.628 75.72V29.88H225.428V28.68C227.988 28.6 230.148 28.32 231.908 27.84C233.748 27.28 235.268 26.56 236.468 25.68C238.068 24.4 239.268 22.76 240.068 20.76C240.948 18.76 241.548 16.52 241.868 14.04H243.068V28.68H255.308V29.88H243.068V79.2C243.068 84.08 243.628 87.48 244.748 89.4C245.948 91.24 247.788 92.16 250.268 92.16C251.148 92.16 252.028 92.08 252.908 91.92C253.868 91.76 254.988 91.52 256.268 91.2V92.4C255.228 92.8 253.828 93.2 252.068 93.6C250.388 94 248.468 94.2 246.308 94.2ZM258.633 93V91.8H259.353C261.513 91.8 263.153 91.6 264.273 91.2C265.473 90.8 266.273 90 266.673 88.8C267.073 87.52 267.273 85.6 267.273 83.04V11.4C267.273 8.75999 266.993 6.87999 266.433 5.75999C265.873 4.55999 265.073 3.79999 264.033 3.47999C262.993 3.15999 261.673 2.99999 260.073 2.99999H258.633V1.79999H277.713V83.04C277.713 85.6 277.913 87.52 278.313 88.8C278.713 90 279.473 90.8 280.593 91.2C281.793 91.6 283.473 91.8 285.633 91.8H286.353V93H258.633ZM314.504 94.2C307.064 94.2 301.384 91.36 297.464 85.68C293.624 79.92 291.704 71.84 291.704 61.44C291.704 50.16 293.584 41.72 297.344 36.12C301.184 30.44 306.544 27.6 313.424 27.6C319.984 27.6 325.024 30.2 328.544 35.4C332.064 40.6 333.824 47.88 333.824 57.24V59.4H302.024C302.024 67.4 302.584 73.88 303.704 78.84C304.824 83.72 306.464 87.28 308.624 89.52C310.784 91.68 313.464 92.76 316.664 92.76C318.984 92.76 320.984 92.28 322.664 91.32C324.424 90.28 325.824 88.68 326.864 86.52C327.984 84.36 328.744 81.6 329.144 78.24C330.024 78.48 330.704 78.92 331.184 79.56C331.744 80.2 332.024 81 332.024 81.96C332.024 83.64 331.384 85.44 330.104 87.36C328.904 89.28 326.984 90.92 324.344 92.28C321.784 93.56 318.504 94.2 314.504 94.2ZM323.624 58.2C323.624 51.24 323.264 45.6 322.544 41.28C321.904 36.96 320.864 33.8 319.424 31.8C317.984 29.8 315.984 28.8 313.424 28.8C310.944 28.8 308.864 29.8 307.184 31.8C305.504 33.8 304.224 36.96 303.344 41.28C302.544 45.52 302.104 51.16 302.024 58.2H323.624ZM357.864 94.2C353.784 94.2 350.504 93.56 348.024 92.28C345.544 91 343.744 89.36 342.624 87.36C341.584 85.36 341.064 83.32 341.064 81.24C341.064 79.56 341.344 78.2 341.904 77.16C342.464 76.12 343.224 75.36 344.184 74.88C345.144 74.4 346.184 74.16 347.304 74.16C347.304 78.56 347.664 82.16 348.384 84.96C349.104 87.68 350.264 89.72 351.864 91.08C353.544 92.36 355.704 93 358.344 93C361.864 93 364.624 91.92 366.624 89.76C368.704 87.6 369.744 84.32 369.744 79.92C369.744 77.2 369.304 75.04 368.424 73.44C367.544 71.76 366.224 70.28 364.464 69C362.704 67.72 360.464 66.28 357.744 64.68C354.624 62.84 351.904 61.08 349.584 59.4C347.344 57.72 345.584 55.76 344.304 53.52C343.104 51.28 342.504 48.4 342.504 44.88C342.504 39.2 344.064 34.92 347.184 32.04C350.384 29.16 354.704 27.72 360.144 27.72C363.504 27.72 366.304 28.24 368.544 29.28C370.784 30.24 372.464 31.56 373.584 33.24C374.704 34.92 375.264 36.84 375.264 39C375.264 41.08 374.704 42.68 373.584 43.8C372.544 44.92 370.944 45.48 368.784 45.48C368.784 39.56 368.064 35.32 366.624 32.76C365.264 30.2 362.944 28.92 359.664 28.92C357.664 28.92 355.904 29.36 354.384 30.24C352.944 31.12 351.784 32.44 350.904 34.2C350.104 35.88 349.704 38 349.704 40.56C349.704 43.12 350.144 45.28 351.024 47.04C351.984 48.72 353.384 50.24 355.224 51.6C357.144 52.96 359.504 54.44 362.304 56.04C365.024 57.48 367.464 59 369.624 60.6C371.784 62.12 373.504 64.08 374.784 66.48C376.144 68.8 376.824 71.88 376.824 75.72C376.824 81.4 375.224 85.92 372.024 89.28C368.904 92.56 364.184 94.2 357.864 94.2ZM400.106 94.2C396.026 94.2 392.746 93.56 390.266 92.28C387.786 91 385.986 89.36 384.866 87.36C383.826 85.36 383.306 83.32 383.306 81.24C383.306 79.56 383.586 78.2 384.146 77.16C384.706 76.12 385.466 75.36 386.426 74.88C387.386 74.4 388.426 74.16 389.546 74.16C389.546 78.56 389.906 82.16 390.626 84.96C391.346 87.68 392.506 89.72 394.106 91.08C395.786 92.36 397.946 93 400.586 93C404.106 93 406.866 91.92 408.866 89.76C410.946 87.6 411.986 84.32 411.986 79.92C411.986 77.2 411.546 75.04 410.666 73.44C409.786 71.76 408.466 70.28 406.706 69C404.946 67.72 402.706 66.28 399.986 64.68C396.866 62.84 394.146 61.08 391.826 59.4C389.586 57.72 387.826 55.76 386.546 53.52C385.346 51.28 384.746 48.4 384.746 44.88C384.746 39.2 386.306 34.92 389.426 32.04C392.626 29.16 396.946 27.72 402.386 27.72C405.746 27.72 408.546 28.24 410.786 29.28C413.026 30.24 414.706 31.56 415.826 33.24C416.946 34.92 417.506 36.84 417.506 39C417.506 41.08 416.946 42.68 415.826 43.8C414.786 44.92 413.186 45.48 411.026 45.48C411.026 39.56 410.306 35.32 408.866 32.76C407.506 30.2 405.186 28.92 401.906 28.92C399.906 28.92 398.146 29.36 396.626 30.24C395.186 31.12 394.026 32.44 393.146 34.2C392.346 35.88 391.946 38 391.946 40.56C391.946 43.12 392.386 45.28 393.266 47.04C394.226 48.72 395.626 50.24 397.466 51.6C399.386 52.96 401.746 54.44 404.546 56.04C407.266 57.48 409.706 59 411.866 60.6C414.026 62.12 415.746 64.08 417.026 66.48C418.386 68.8 419.066 71.88 419.066 75.72C419.066 81.4 417.466 85.92 414.266 89.28C411.146 92.56 406.426 94.2 400.106 94.2Z" fill="#DEC9C1"/>
</svg>
