<svg width="501" height="120" viewBox="0 0 501 120" fill="none" xmlns="http://www.w3.org/2000/svg">
<path d="M0.36 91V89.8H2.88C4.48 89.8 5.76 89.6 6.72 89.2C7.68 88.8 8.36 87.96 8.76 86.68C9.16 85.32 9.36 83.32 9.36 80.68V15.88C9.36 13.16 9.16 11.16 8.76 9.87999C8.36 8.52 7.68 7.64 6.72 7.24C5.84 6.75999 4.56 6.51999 2.88 6.51999H0.36V5.31999H49.32L49.92 26.08H48.72L48.48 19.84C48.24 16.24 47.68 13.48 46.8 11.56C46 9.63999 44.68 8.31999 42.84 7.59999C41 6.87999 38.36 6.51999 34.92 6.51999H19.92V45.52H44.04V46.72H19.92L19.8 89.8H38.28C41.64 89.8 44.2 89.48 45.96 88.84C47.8 88.12 49.12 86.88 49.92 85.12C50.72 83.36 51.24 80.92 51.48 77.8L51.96 70.24H53.16L52.44 91H0.36ZM56.3656 91V89.8H57.9256C59.5256 89.8 60.8456 89.68 61.8856 89.44C62.9256 89.12 63.8456 88.52 64.6456 87.64C65.5256 86.76 66.4056 85.44 67.2856 83.68L80.2456 59.56L65.3656 33.64C64.4856 31.96 63.6856 30.72 62.9656 29.92C62.3256 29.12 61.6456 28.6 60.9256 28.36C60.2056 28.04 59.3256 27.88 58.2856 27.88H58.0456V26.68H83.3656V27.88H79.7656C77.9256 27.88 76.6856 28.04 76.0456 28.36C75.4056 28.68 75.0856 29.16 75.0856 29.8C75.0856 30.44 75.3256 31.36 75.8056 32.56C76.2856 33.68 77.0056 35.08 77.9656 36.76L86.9656 52.72L95.6056 36.64C96.4856 34.96 97.1656 33.56 97.6456 32.44C98.2056 31.24 98.4856 30.28 98.4856 29.56C98.4856 29 98.2056 28.6 97.6456 28.36C97.1656 28.04 96.0856 27.88 94.4056 27.88H88.6456V26.68H109.166V27.88H107.726C106.206 27.88 104.926 28.04 103.886 28.36C102.846 28.6 101.926 29.12 101.126 29.92C100.326 30.72 99.4456 32 98.4856 33.76L87.6856 54.04L104.846 84.04C105.806 85.64 106.606 86.88 107.246 87.76C107.886 88.56 108.526 89.12 109.166 89.44C109.886 89.68 110.646 89.8 111.446 89.8H111.686V91H86.1256V89.8H90.5656C92.4856 89.8 93.7656 89.64 94.4056 89.32C95.0456 89 95.3656 88.52 95.3656 87.88C95.3656 87.08 95.0856 86.12 94.5256 85C93.9656 83.88 93.2056 82.48 92.2456 80.8L80.9656 60.76L69.9256 81.4C68.9656 83.16 68.2456 84.56 67.7656 85.6C67.3656 86.64 67.1656 87.48 67.1656 88.12C67.1656 88.76 67.4056 89.2 67.8856 89.44C68.4456 89.68 69.4456 89.8 70.8856 89.8H77.4856V91H56.3656ZM112.693 119.08V117.88H113.293C115.453 117.88 117.053 117.64 118.093 117.16C119.213 116.76 119.973 115.88 120.373 114.52C120.773 113.16 120.973 111.16 120.973 108.52V36.16C120.973 33.6 120.733 31.76 120.253 30.64C119.853 29.44 119.133 28.68 118.093 28.36C117.053 28.04 115.573 27.88 113.653 27.88H112.573V26.68H131.293V40.36H131.533C132.573 35.32 134.253 31.56 136.573 29.08C138.893 26.6 142.173 25.36 146.413 25.36C152.493 25.36 157.133 27.96 160.333 33.16C163.533 38.36 165.133 46.68 165.133 58.12C165.133 69.88 163.453 78.52 160.093 84.04C156.813 89.48 152.173 92.2 146.173 92.2C142.013 92.2 138.813 90.96 136.573 88.48C134.333 86 132.653 82.32 131.533 77.44H131.293C131.373 80.32 131.413 83.12 131.413 85.84C131.413 88.56 131.413 91.36 131.413 94.24V108.52C131.413 111.16 131.613 113.16 132.013 114.52C132.413 115.88 133.173 116.76 134.293 117.16C135.413 117.64 136.973 117.88 138.973 117.88H140.893V119.08H112.693ZM143.653 90.28C146.373 90.28 148.533 89.16 150.133 86.92C151.813 84.6 153.013 81.12 153.733 76.48C154.453 71.84 154.813 66 154.813 58.96C154.813 51.28 154.413 45.16 153.613 40.6C152.813 35.96 151.573 32.6 149.893 30.52C148.293 28.44 146.213 27.4 143.653 27.4C140.933 27.4 138.653 28.56 136.813 30.88C134.973 33.2 133.613 36.68 132.733 41.32C131.853 45.96 131.413 51.8 131.413 58.84C131.413 65.32 131.813 70.92 132.613 75.64C133.413 80.28 134.693 83.88 136.453 86.44C138.293 89 140.693 90.28 143.653 90.28ZM197.035 92.2C189.595 92.2 183.915 89.36 179.995 83.68C176.155 77.92 174.235 69.84 174.235 59.44C174.235 48.16 176.115 39.72 179.875 34.12C183.715 28.44 189.075 25.6 195.955 25.6C202.515 25.6 207.555 28.2 211.075 33.4C214.595 38.6 216.355 45.88 216.355 55.24V57.4H184.555C184.555 65.4 185.115 71.88 186.235 76.84C187.355 81.72 188.995 85.28 191.155 87.52C193.315 89.68 195.995 90.76 199.195 90.76C201.515 90.76 203.515 90.28 205.195 89.32C206.955 88.28 208.355 86.68 209.395 84.52C210.515 82.36 211.275 79.6 211.675 76.24C212.555 76.48 213.235 76.92 213.715 77.56C214.275 78.2 214.555 79 214.555 79.96C214.555 81.64 213.915 83.44 212.635 85.36C211.435 87.28 209.515 88.92 206.875 90.28C204.315 91.56 201.035 92.2 197.035 92.2ZM206.155 56.2C206.155 49.24 205.795 43.6 205.075 39.28C204.435 34.96 203.395 31.8 201.955 29.8C200.515 27.8 198.515 26.8 195.955 26.8C193.475 26.8 191.395 27.8 189.715 29.8C188.035 31.8 186.755 34.96 185.875 39.28C185.075 43.52 184.635 49.16 184.555 56.2H206.155ZM222.755 91V89.8H222.875C225.115 89.8 226.755 89.6 227.795 89.2C228.915 88.8 229.675 88 230.075 86.8C230.475 85.52 230.675 83.68 230.675 81.28V36.28C230.675 33.8 230.475 32 230.075 30.88C229.755 29.68 229.035 28.88 227.915 28.48C226.875 28.08 225.275 27.88 223.115 27.88H222.755V26.68H240.995V40.12H241.235C241.955 37.24 242.875 34.72 243.995 32.56C245.115 30.32 246.555 28.6 248.315 27.4C250.155 26.12 252.355 25.48 254.915 25.48C258.035 25.48 260.395 26.32 261.995 28C263.595 29.6 264.395 31.72 264.395 34.36C264.395 36.84 263.715 38.76 262.355 40.12C260.995 41.4 258.955 42.04 256.235 42.04C256.235 37.08 255.875 33.64 255.155 31.72C254.515 29.8 253.195 28.84 251.195 28.84C249.675 28.84 248.275 29.4 246.995 30.52C245.795 31.64 244.755 33.32 243.875 35.56C242.995 37.72 242.315 40.44 241.835 43.72C241.355 46.92 241.115 50.68 241.115 55V81.28C241.115 83.68 241.315 85.52 241.715 86.8C242.115 88 242.915 88.8 244.115 89.2C245.315 89.6 247.075 89.8 249.395 89.8H250.715V91H222.755ZM266.853 91V89.8H268.413C270.333 89.8 271.813 89.6 272.853 89.2C273.893 88.8 274.613 87.96 275.013 86.68C275.493 85.32 275.733 83.36 275.733 80.8V36.76C275.733 34.2 275.533 32.32 275.133 31.12C274.733 29.84 274.013 29 272.973 28.6C272.013 28.12 270.613 27.88 268.772 27.88H267.573V26.68H286.053V80.92C286.053 83.48 286.253 85.4 286.653 86.68C287.053 87.96 287.773 88.8 288.813 89.2C289.933 89.6 291.413 89.8 293.253 89.8H294.573V91H266.853ZM280.413 13.72C278.813 13.72 277.493 13.24 276.453 12.28C275.413 11.24 274.893 9.56 274.893 7.24C274.893 4.84 275.413 3.16 276.453 2.2C277.493 1.24 278.813 0.759996 280.413 0.759996C281.853 0.759996 283.093 1.24 284.133 2.2C285.253 3.16 285.813 4.84 285.813 7.24C285.813 9.56 285.253 11.24 284.133 12.28C283.093 13.24 281.853 13.72 280.413 13.72ZM322.824 92.2C315.384 92.2 309.704 89.36 305.784 83.68C301.944 77.92 300.024 69.84 300.024 59.44C300.024 48.16 301.904 39.72 305.664 34.12C309.504 28.44 314.864 25.6 321.744 25.6C328.304 25.6 333.344 28.2 336.864 33.4C340.384 38.6 342.144 45.88 342.144 55.24V57.4H310.344C310.344 65.4 310.904 71.88 312.024 76.84C313.144 81.72 314.784 85.28 316.944 87.52C319.104 89.68 321.784 90.76 324.984 90.76C327.304 90.76 329.304 90.28 330.984 89.32C332.744 88.28 334.144 86.68 335.184 84.52C336.304 82.36 337.064 79.6 337.464 76.24C338.344 76.48 339.024 76.92 339.504 77.56C340.064 78.2 340.344 79 340.344 79.96C340.344 81.64 339.704 83.44 338.424 85.36C337.224 87.28 335.304 88.92 332.664 90.28C330.104 91.56 326.824 92.2 322.824 92.2ZM331.944 56.2C331.944 49.24 331.584 43.6 330.864 39.28C330.224 34.96 329.184 31.8 327.744 29.8C326.304 27.8 324.304 26.8 321.744 26.8C319.264 26.8 317.184 27.8 315.504 29.8C313.824 31.8 312.544 34.96 311.664 39.28C310.864 43.52 310.424 49.16 310.344 56.2H331.944ZM348.184 91V89.8H348.904C351.064 89.8 352.664 89.6 353.704 89.2C354.824 88.8 355.544 87.96 355.864 86.68C356.264 85.4 356.464 83.52 356.464 81.04V36.28C356.464 33.8 356.264 32 355.864 30.88C355.544 29.68 354.864 28.88 353.824 28.48C352.784 28.08 351.224 27.88 349.144 27.88H348.544V26.68H366.664V37.96H366.904C367.624 35.48 368.584 33.32 369.784 31.48C371.064 29.64 372.664 28.2 374.584 27.16C376.584 26.12 378.944 25.6 381.664 25.6C387.104 25.6 391.064 27.36 393.544 30.88C396.104 34.4 397.384 40.04 397.384 47.8V81.04C397.384 83.52 397.544 85.4 397.864 86.68C398.264 87.88 398.944 88.72 399.904 89.2C400.944 89.6 402.424 89.8 404.344 89.8H404.824V91H387.064V46.6C387.064 40.44 386.384 35.88 385.024 32.92C383.744 29.96 381.464 28.48 378.184 28.48C376.024 28.48 374.064 29.24 372.304 30.76C370.624 32.2 369.264 34.52 368.224 37.72C367.264 40.84 366.784 44.96 366.784 50.08V81.28C366.784 83.68 366.944 85.52 367.264 86.8C367.664 88 368.384 88.8 369.424 89.2C370.464 89.6 371.984 89.8 373.984 89.8H374.584V91H348.184ZM433.182 92.2C428.942 92.2 425.182 91.2 421.902 89.2C418.622 87.12 416.062 83.64 414.222 78.76C412.382 73.88 411.462 67.24 411.462 58.84C411.462 50.28 412.382 43.6 414.222 38.8C416.062 34 418.622 30.6 421.902 28.6C425.262 26.6 429.102 25.6 433.422 25.6C437.342 25.6 440.542 26.2 443.022 27.4C445.502 28.52 447.342 30.04 448.542 31.96C449.742 33.8 450.342 35.8 450.342 37.96C450.342 39.32 450.062 40.56 449.502 41.68C448.942 42.72 448.022 43.56 446.742 44.2C445.462 44.76 443.662 45.04 441.342 45.04C441.342 40.4 441.102 36.76 440.622 34.12C440.142 31.48 439.302 29.6 438.102 28.48C436.982 27.36 435.382 26.8 433.302 26.8C430.822 26.8 428.742 27.72 427.062 29.56C425.382 31.32 424.102 34.52 423.222 39.16C422.342 43.72 421.902 50.24 421.902 58.72C421.902 66.72 422.382 73.08 423.342 77.8C424.302 82.44 425.782 85.8 427.782 87.88C429.782 89.88 432.262 90.88 435.222 90.88C437.542 90.88 439.542 90.32 441.222 89.2C442.902 88 444.262 86.28 445.302 84.04C446.342 81.72 447.062 78.88 447.462 75.52C448.582 75.84 449.342 76.4 449.742 77.2C450.222 77.92 450.462 78.84 450.462 79.96C450.462 81.64 449.902 83.44 448.782 85.36C447.742 87.2 445.942 88.8 443.382 90.16C440.902 91.52 437.502 92.2 433.182 92.2ZM480.84 92.2C473.4 92.2 467.72 89.36 463.8 83.68C459.96 77.92 458.04 69.84 458.04 59.44C458.04 48.16 459.92 39.72 463.68 34.12C467.52 28.44 472.88 25.6 479.76 25.6C486.32 25.6 491.36 28.2 494.88 33.4C498.4 38.6 500.16 45.88 500.16 55.24V57.4H468.36C468.36 65.4 468.92 71.88 470.04 76.84C471.16 81.72 472.8 85.28 474.96 87.52C477.12 89.68 479.8 90.76 483 90.76C485.32 90.76 487.32 90.28 489 89.32C490.76 88.28 492.16 86.68 493.2 84.52C494.32 82.36 495.08 79.6 495.48 76.24C496.36 76.48 497.04 76.92 497.52 77.56C498.08 78.2 498.36 79 498.36 79.96C498.36 81.64 497.72 83.44 496.44 85.36C495.24 87.28 493.32 88.92 490.68 90.28C488.12 91.56 484.84 92.2 480.84 92.2ZM489.96 56.2C489.96 49.24 489.6 43.6 488.88 39.28C488.24 34.96 487.2 31.8 485.76 29.8C484.32 27.8 482.32 26.8 479.76 26.8C477.28 26.8 475.2 27.8 473.52 29.8C471.84 31.8 470.56 34.96 469.68 39.28C468.88 43.52 468.44 49.16 468.36 56.2H489.96Z" fill="#DEC9C1"/>
</svg>
