<svg width="1856" height="78" viewBox="0 0 1856 78" fill="none" xmlns="http://www.w3.org/2000/svg">
<rect x="29" y="70" width="2" height="8" fill="#E9E9E9"/>
<rect x="78.5" y="70" width="2" height="8" fill="#E9E9E9"/>
<rect x="128" y="70" width="2" height="8" fill="#E9E9E9"/>
<path d="M176.496 62.096C175.904 62.096 175.396 61.988 174.972 61.772C174.556 61.548 174.216 61.24 173.952 60.848C173.688 60.448 173.492 59.988 173.364 59.468C173.244 58.94 173.184 58.372 173.184 57.764C173.184 57.156 173.244 56.592 173.364 56.072C173.484 55.544 173.676 55.084 173.94 54.692C174.204 54.292 174.544 53.98 174.96 53.756C175.384 53.532 175.896 53.42 176.496 53.42C177.128 53.42 177.656 53.544 178.08 53.792C178.512 54.032 178.852 54.36 179.1 54.776C179.356 55.192 179.536 55.66 179.64 56.18C179.752 56.692 179.808 57.22 179.808 57.764C179.808 58.308 179.752 58.84 179.64 59.36C179.536 59.872 179.356 60.336 179.1 60.752C178.852 61.16 178.512 61.488 178.08 61.736C177.656 61.976 177.128 62.096 176.496 62.096ZM176.496 61.148C176.968 61.148 177.348 61.048 177.636 60.848C177.932 60.64 178.16 60.368 178.32 60.032C178.48 59.696 178.588 59.332 178.644 58.94C178.7 58.54 178.728 58.148 178.728 57.764C178.728 57.388 178.7 57.004 178.644 56.612C178.588 56.212 178.48 55.844 178.32 55.508C178.16 55.164 177.932 54.888 177.636 54.68C177.348 54.472 176.968 54.368 176.496 54.368C176.016 54.368 175.628 54.472 175.332 54.68C175.036 54.888 174.808 55.164 174.648 55.508C174.496 55.844 174.392 56.212 174.336 56.612C174.28 57.004 174.252 57.388 174.252 57.764C174.252 58.148 174.28 58.54 174.336 58.94C174.392 59.332 174.496 59.696 174.648 60.032C174.808 60.368 175.036 60.64 175.332 60.848C175.628 61.048 176.016 61.148 176.496 61.148ZM183.176 62.108C182.824 62.108 182.484 62.068 182.156 61.988C181.836 61.908 181.544 61.788 181.28 61.628C181.016 61.46 180.792 61.248 180.608 60.992C180.424 60.736 180.296 60.432 180.224 60.08H181.28C181.368 60.304 181.508 60.496 181.7 60.656C181.892 60.816 182.108 60.94 182.348 61.028C182.596 61.108 182.84 61.148 183.08 61.148C183.472 61.148 183.82 61.084 184.124 60.956C184.436 60.828 184.684 60.632 184.868 60.368C185.052 60.096 185.144 59.748 185.144 59.324C185.144 58.74 184.968 58.292 184.616 57.98C184.264 57.668 183.808 57.512 183.248 57.512C182.912 57.512 182.6 57.572 182.312 57.692C182.032 57.812 181.776 57.976 181.544 58.184H180.464L180.848 53.516H185.924V54.476H181.784L181.544 57.14C181.76 56.964 182.024 56.824 182.336 56.72C182.648 56.608 183.032 56.552 183.488 56.552C184.032 56.552 184.508 56.664 184.916 56.888C185.332 57.112 185.652 57.428 185.876 57.836C186.108 58.236 186.224 58.712 186.224 59.264C186.224 59.856 186.088 60.364 185.816 60.788C185.552 61.212 185.188 61.54 184.724 61.772C184.268 61.996 183.752 62.108 183.176 62.108Z" fill="#999999"/>
<rect x="179" y="70" width="2" height="8" fill="#E9E9E9"/>
<rect x="230" y="70" width="2" height="8" fill="#E9E9E9"/>
<rect x="279.5" y="70" width="2" height="8" fill="#E9E9E9"/>
<rect x="329" y="70" width="2" height="8" fill="#E9E9E9"/>
<path d="M375.528 62V55.196H373.8V54.488C374.12 54.464 374.404 54.428 374.652 54.38C374.9 54.324 375.12 54.232 375.312 54.104C375.512 53.968 375.688 53.772 375.84 53.516H376.572V62H375.528ZM380.855 62.096C380.263 62.096 379.755 61.988 379.331 61.772C378.915 61.548 378.575 61.24 378.311 60.848C378.047 60.448 377.851 59.988 377.723 59.468C377.603 58.94 377.543 58.372 377.543 57.764C377.543 57.156 377.603 56.592 377.723 56.072C377.843 55.544 378.035 55.084 378.299 54.692C378.563 54.292 378.903 53.98 379.319 53.756C379.743 53.532 380.255 53.42 380.855 53.42C381.487 53.42 382.015 53.544 382.439 53.792C382.871 54.032 383.211 54.36 383.459 54.776C383.715 55.192 383.895 55.66 383.999 56.18C384.111 56.692 384.167 57.22 384.167 57.764C384.167 58.308 384.111 58.84 383.999 59.36C383.895 59.872 383.715 60.336 383.459 60.752C383.211 61.16 382.871 61.488 382.439 61.736C382.015 61.976 381.487 62.096 380.855 62.096ZM380.855 61.148C381.327 61.148 381.707 61.048 381.995 60.848C382.291 60.64 382.519 60.368 382.679 60.032C382.839 59.696 382.947 59.332 383.003 58.94C383.059 58.54 383.087 58.148 383.087 57.764C383.087 57.388 383.059 57.004 383.003 56.612C382.947 56.212 382.839 55.844 382.679 55.508C382.519 55.164 382.291 54.888 381.995 54.68C381.707 54.472 381.327 54.368 380.855 54.368C380.375 54.368 379.987 54.472 379.691 54.68C379.395 54.888 379.167 55.164 379.007 55.508C378.855 55.844 378.751 56.212 378.695 56.612C378.639 57.004 378.611 57.388 378.611 57.764C378.611 58.148 378.639 58.54 378.695 58.94C378.751 59.332 378.855 59.696 379.007 60.032C379.167 60.368 379.395 60.64 379.691 60.848C379.987 61.048 380.375 61.148 380.855 61.148Z" fill="#999999"/>
<rect x="378.5" y="70" width="2" height="8" fill="#E9E9E9"/>
<rect x="428" y="70" width="2" height="8" fill="#E9E9E9"/>
<rect x="477.5" y="70" width="2" height="8" fill="#E9E9E9"/>
<rect x="527" y="70" width="2" height="8" fill="#E9E9E9"/>
<path d="M573.528 62V55.196H571.8V54.488C572.12 54.464 572.404 54.428 572.652 54.38C572.9 54.324 573.12 54.232 573.312 54.104C573.512 53.968 573.688 53.772 573.84 53.516H574.572V62H573.528ZM578.555 62.108C578.203 62.108 577.863 62.068 577.535 61.988C577.215 61.908 576.923 61.788 576.659 61.628C576.395 61.46 576.171 61.248 575.987 60.992C575.803 60.736 575.675 60.432 575.603 60.08H576.659C576.747 60.304 576.887 60.496 577.079 60.656C577.271 60.816 577.487 60.94 577.727 61.028C577.975 61.108 578.219 61.148 578.459 61.148C578.851 61.148 579.199 61.084 579.503 60.956C579.815 60.828 580.063 60.632 580.247 60.368C580.431 60.096 580.523 59.748 580.523 59.324C580.523 58.74 580.347 58.292 579.995 57.98C579.643 57.668 579.187 57.512 578.627 57.512C578.291 57.512 577.979 57.572 577.691 57.692C577.411 57.812 577.155 57.976 576.923 58.184H575.843L576.227 53.516H581.303V54.476H577.163L576.923 57.14C577.139 56.964 577.403 56.824 577.715 56.72C578.027 56.608 578.411 56.552 578.867 56.552C579.411 56.552 579.887 56.664 580.295 56.888C580.711 57.112 581.031 57.428 581.255 57.836C581.487 58.236 581.603 58.712 581.603 59.264C581.603 59.856 581.467 60.364 581.195 60.788C580.931 61.212 580.567 61.54 580.103 61.772C579.647 61.996 579.131 62.108 578.555 62.108Z" fill="#999999"/>
<rect x="576" y="70" width="2" height="8" fill="#E9E9E9"/>
<rect x="625" y="70" width="2" height="8" fill="#E9E9E9"/>
<rect x="674.5" y="70" width="2" height="8" fill="#E9E9E9"/>
<rect x="724" y="70" width="2" height="8" fill="#E9E9E9"/>
<path d="M768.86 62V61.124L771.26 59.048C771.476 58.864 771.712 58.664 771.968 58.448C772.232 58.224 772.48 57.984 772.712 57.728C772.952 57.472 773.148 57.2 773.3 56.912C773.46 56.616 773.54 56.304 773.54 55.976C773.54 55.464 773.388 55.072 773.084 54.8C772.78 54.52 772.372 54.38 771.86 54.38C771.452 54.38 771.096 54.464 770.792 54.632C770.488 54.8 770.288 55.044 770.192 55.364H769.076C769.156 54.924 769.336 54.564 769.616 54.284C769.904 53.996 770.248 53.78 770.648 53.636C771.056 53.492 771.476 53.42 771.908 53.42C772.436 53.42 772.9 53.516 773.3 53.708C773.708 53.9 774.024 54.18 774.248 54.548C774.48 54.908 774.596 55.352 774.596 55.88C774.596 56.4 774.496 56.856 774.296 57.248C774.104 57.64 773.848 57.996 773.528 58.316C773.216 58.628 772.88 58.936 772.52 59.24L770.372 61.052H774.692V62H768.86ZM778.293 62.096C777.701 62.096 777.193 61.988 776.769 61.772C776.353 61.548 776.013 61.24 775.749 60.848C775.485 60.448 775.289 59.988 775.161 59.468C775.041 58.94 774.981 58.372 774.981 57.764C774.981 57.156 775.041 56.592 775.161 56.072C775.281 55.544 775.473 55.084 775.737 54.692C776.001 54.292 776.341 53.98 776.757 53.756C777.181 53.532 777.693 53.42 778.293 53.42C778.925 53.42 779.453 53.544 779.877 53.792C780.309 54.032 780.649 54.36 780.897 54.776C781.153 55.192 781.333 55.66 781.437 56.18C781.549 56.692 781.605 57.22 781.605 57.764C781.605 58.308 781.549 58.84 781.437 59.36C781.333 59.872 781.153 60.336 780.897 60.752C780.649 61.16 780.309 61.488 779.877 61.736C779.453 61.976 778.925 62.096 778.293 62.096ZM778.293 61.148C778.765 61.148 779.145 61.048 779.433 60.848C779.729 60.64 779.957 60.368 780.117 60.032C780.277 59.696 780.385 59.332 780.441 58.94C780.497 58.54 780.525 58.148 780.525 57.764C780.525 57.388 780.497 57.004 780.441 56.612C780.385 56.212 780.277 55.844 780.117 55.508C779.957 55.164 779.729 54.888 779.433 54.68C779.145 54.472 778.765 54.368 778.293 54.368C777.813 54.368 777.425 54.472 777.129 54.68C776.833 54.888 776.605 55.164 776.445 55.508C776.293 55.844 776.189 56.212 776.133 56.612C776.077 57.004 776.049 57.388 776.049 57.764C776.049 58.148 776.077 58.54 776.133 58.94C776.189 59.332 776.293 59.696 776.445 60.032C776.605 60.368 776.833 60.64 777.129 60.848C777.425 61.048 777.813 61.148 778.293 61.148Z" fill="#999999"/>
<rect x="774.5" y="70" width="2" height="8" fill="#E9E9E9"/>
<rect x="825" y="70" width="2" height="8" fill="#E9E9E9"/>
<rect x="874.5" y="70" width="2" height="8" fill="#E9E9E9"/>
<rect x="973.5" y="70" width="2" height="8" fill="#E9E9E9"/>
<rect x="1023" y="70" width="2" height="8" fill="#E9E9E9"/>
<path d="M1067.86 62V61.124L1070.26 59.048C1070.48 58.864 1070.71 58.664 1070.97 58.448C1071.23 58.224 1071.48 57.984 1071.71 57.728C1071.95 57.472 1072.15 57.2 1072.3 56.912C1072.46 56.616 1072.54 56.304 1072.54 55.976C1072.54 55.464 1072.39 55.072 1072.08 54.8C1071.78 54.52 1071.37 54.38 1070.86 54.38C1070.45 54.38 1070.1 54.464 1069.79 54.632C1069.49 54.8 1069.29 55.044 1069.19 55.364H1068.08C1068.16 54.924 1068.34 54.564 1068.62 54.284C1068.9 53.996 1069.25 53.78 1069.65 53.636C1070.06 53.492 1070.48 53.42 1070.91 53.42C1071.44 53.42 1071.9 53.516 1072.3 53.708C1072.71 53.9 1073.02 54.18 1073.25 54.548C1073.48 54.908 1073.6 55.352 1073.6 55.88C1073.6 56.4 1073.5 56.856 1073.3 57.248C1073.1 57.64 1072.85 57.996 1072.53 58.316C1072.22 58.628 1071.88 58.936 1071.52 59.24L1069.37 61.052H1073.69V62H1067.86ZM1076.99 62.108C1076.64 62.108 1076.3 62.068 1075.97 61.988C1075.65 61.908 1075.36 61.788 1075.1 61.628C1074.83 61.46 1074.61 61.248 1074.42 60.992C1074.24 60.736 1074.11 60.432 1074.04 60.08H1075.1C1075.18 60.304 1075.32 60.496 1075.52 60.656C1075.71 60.816 1075.92 60.94 1076.16 61.028C1076.41 61.108 1076.66 61.148 1076.9 61.148C1077.29 61.148 1077.64 61.084 1077.94 60.956C1078.25 60.828 1078.5 60.632 1078.68 60.368C1078.87 60.096 1078.96 59.748 1078.96 59.324C1078.96 58.74 1078.78 58.292 1078.43 57.98C1078.08 57.668 1077.62 57.512 1077.06 57.512C1076.73 57.512 1076.42 57.572 1076.13 57.692C1075.85 57.812 1075.59 57.976 1075.36 58.184H1074.28L1074.66 53.516H1079.74V54.476H1075.6L1075.36 57.14C1075.58 56.964 1075.84 56.824 1076.15 56.72C1076.46 56.608 1076.85 56.552 1077.3 56.552C1077.85 56.552 1078.32 56.664 1078.73 56.888C1079.15 57.112 1079.47 57.428 1079.69 57.836C1079.92 58.236 1080.04 58.712 1080.04 59.264C1080.04 59.856 1079.9 60.364 1079.63 60.788C1079.37 61.212 1079 61.54 1078.54 61.772C1078.08 61.996 1077.57 62.108 1076.99 62.108Z" fill="#999999"/>
<rect x="1073.5" y="70" width="2" height="8" fill="#E9E9E9"/>
<rect x="1124" y="70" width="2" height="8" fill="#E9E9E9"/>
<rect x="1173.5" y="70" width="2" height="8" fill="#E9E9E9"/>
<rect x="1223" y="70" width="2" height="8" fill="#E9E9E9"/>
<path d="M1270.99 62.096C1270.66 62.096 1270.32 62.064 1269.97 62C1269.64 61.928 1269.32 61.816 1269.02 61.664C1268.74 61.512 1268.49 61.308 1268.28 61.052C1268.08 60.796 1267.95 60.48 1267.9 60.104H1268.98C1269.07 60.376 1269.23 60.588 1269.46 60.74C1269.68 60.892 1269.93 61 1270.2 61.064C1270.48 61.12 1270.75 61.148 1271 61.148C1271.19 61.148 1271.39 61.132 1271.6 61.1C1271.82 61.068 1272.03 61 1272.23 60.896C1272.44 60.792 1272.6 60.64 1272.73 60.44C1272.86 60.232 1272.92 59.96 1272.92 59.624C1272.92 59.304 1272.86 59.048 1272.74 58.856C1272.62 58.656 1272.46 58.508 1272.26 58.412C1272.06 58.308 1271.84 58.24 1271.59 58.208C1271.35 58.176 1271.11 58.16 1270.86 58.16H1270.04V57.224H1270.54C1270.82 57.224 1271.08 57.2 1271.33 57.152C1271.58 57.096 1271.8 57.012 1271.99 56.9C1272.18 56.788 1272.33 56.64 1272.43 56.456C1272.54 56.272 1272.6 56.044 1272.6 55.772C1272.6 55.38 1272.52 55.084 1272.35 54.884C1272.19 54.684 1271.98 54.548 1271.72 54.476C1271.47 54.404 1271.2 54.368 1270.92 54.368C1270.7 54.368 1270.46 54.404 1270.22 54.476C1269.99 54.54 1269.78 54.648 1269.6 54.8C1269.42 54.944 1269.29 55.14 1269.23 55.388H1268.18C1268.23 55.036 1268.34 54.736 1268.52 54.488C1268.7 54.24 1268.91 54.036 1269.17 53.876C1269.43 53.716 1269.72 53.6 1270.03 53.528C1270.35 53.456 1270.68 53.42 1271 53.42C1271.36 53.42 1271.7 53.46 1272.01 53.54C1272.33 53.612 1272.61 53.736 1272.85 53.912C1273.09 54.08 1273.28 54.304 1273.42 54.584C1273.56 54.864 1273.63 55.204 1273.63 55.604C1273.63 55.9 1273.58 56.172 1273.49 56.42C1273.39 56.668 1273.25 56.884 1273.06 57.068C1272.87 57.252 1272.64 57.404 1272.36 57.524C1272.72 57.588 1273.02 57.716 1273.26 57.908C1273.51 58.1 1273.69 58.336 1273.81 58.616C1273.94 58.888 1274 59.196 1274 59.54C1274 60.076 1273.91 60.512 1273.72 60.848C1273.52 61.184 1273.28 61.444 1272.97 61.628C1272.67 61.804 1272.34 61.928 1271.99 62C1271.64 62.064 1271.3 62.096 1270.99 62.096ZM1277.68 62.096C1277.09 62.096 1276.58 61.988 1276.16 61.772C1275.74 61.548 1275.4 61.24 1275.14 60.848C1274.87 60.448 1274.68 59.988 1274.55 59.468C1274.43 58.94 1274.37 58.372 1274.37 57.764C1274.37 57.156 1274.43 56.592 1274.55 56.072C1274.67 55.544 1274.86 55.084 1275.12 54.692C1275.39 54.292 1275.73 53.98 1276.14 53.756C1276.57 53.532 1277.08 53.42 1277.68 53.42C1278.31 53.42 1278.84 53.544 1279.26 53.792C1279.7 54.032 1280.04 54.36 1280.28 54.776C1280.54 55.192 1280.72 55.66 1280.82 56.18C1280.94 56.692 1280.99 57.22 1280.99 57.764C1280.99 58.308 1280.94 58.84 1280.82 59.36C1280.72 59.872 1280.54 60.336 1280.28 60.752C1280.04 61.16 1279.7 61.488 1279.26 61.736C1278.84 61.976 1278.31 62.096 1277.68 62.096ZM1277.68 61.148C1278.15 61.148 1278.53 61.048 1278.82 60.848C1279.12 60.64 1279.34 60.368 1279.5 60.032C1279.66 59.696 1279.77 59.332 1279.83 58.94C1279.88 58.54 1279.91 58.148 1279.91 57.764C1279.91 57.388 1279.88 57.004 1279.83 56.612C1279.77 56.212 1279.66 55.844 1279.5 55.508C1279.34 55.164 1279.12 54.888 1278.82 54.68C1278.53 54.472 1278.15 54.368 1277.68 54.368C1277.2 54.368 1276.81 54.472 1276.52 54.68C1276.22 54.888 1275.99 55.164 1275.83 55.508C1275.68 55.844 1275.58 56.212 1275.52 56.612C1275.46 57.004 1275.44 57.388 1275.44 57.764C1275.44 58.148 1275.46 58.54 1275.52 58.94C1275.58 59.332 1275.68 59.696 1275.83 60.032C1275.99 60.368 1276.22 60.64 1276.52 60.848C1276.81 61.048 1277.2 61.148 1277.68 61.148Z" fill="#999999"/>
<rect x="1274" y="70" width="2" height="8" fill="#E9E9E9"/>
<rect x="1325" y="70" width="2" height="8" fill="#E9E9E9"/>
<rect x="1374.5" y="70" width="2" height="8" fill="#E9E9E9"/>
<rect x="1424" y="70" width="2" height="8" fill="#E9E9E9"/>
<path d="M1471.99 62.096C1471.66 62.096 1471.32 62.064 1470.97 62C1470.64 61.928 1470.32 61.816 1470.02 61.664C1469.74 61.512 1469.49 61.308 1469.28 61.052C1469.08 60.796 1468.95 60.48 1468.9 60.104H1469.98C1470.07 60.376 1470.23 60.588 1470.46 60.74C1470.68 60.892 1470.93 61 1471.2 61.064C1471.48 61.12 1471.75 61.148 1472 61.148C1472.19 61.148 1472.39 61.132 1472.6 61.1C1472.82 61.068 1473.03 61 1473.23 60.896C1473.44 60.792 1473.6 60.64 1473.73 60.44C1473.86 60.232 1473.92 59.96 1473.92 59.624C1473.92 59.304 1473.86 59.048 1473.74 58.856C1473.62 58.656 1473.46 58.508 1473.26 58.412C1473.06 58.308 1472.84 58.24 1472.59 58.208C1472.35 58.176 1472.11 58.16 1471.86 58.16H1471.04V57.224H1471.54C1471.82 57.224 1472.08 57.2 1472.33 57.152C1472.58 57.096 1472.8 57.012 1472.99 56.9C1473.18 56.788 1473.33 56.64 1473.43 56.456C1473.54 56.272 1473.6 56.044 1473.6 55.772C1473.6 55.38 1473.52 55.084 1473.35 54.884C1473.19 54.684 1472.98 54.548 1472.72 54.476C1472.47 54.404 1472.2 54.368 1471.92 54.368C1471.7 54.368 1471.46 54.404 1471.22 54.476C1470.99 54.54 1470.78 54.648 1470.6 54.8C1470.42 54.944 1470.29 55.14 1470.23 55.388H1469.18C1469.23 55.036 1469.34 54.736 1469.52 54.488C1469.7 54.24 1469.91 54.036 1470.17 53.876C1470.43 53.716 1470.72 53.6 1471.03 53.528C1471.35 53.456 1471.68 53.42 1472 53.42C1472.36 53.42 1472.7 53.46 1473.01 53.54C1473.33 53.612 1473.61 53.736 1473.85 53.912C1474.09 54.08 1474.28 54.304 1474.42 54.584C1474.56 54.864 1474.63 55.204 1474.63 55.604C1474.63 55.9 1474.58 56.172 1474.49 56.42C1474.39 56.668 1474.25 56.884 1474.06 57.068C1473.87 57.252 1473.64 57.404 1473.36 57.524C1473.72 57.588 1474.02 57.716 1474.26 57.908C1474.51 58.1 1474.69 58.336 1474.81 58.616C1474.94 58.888 1475 59.196 1475 59.54C1475 60.076 1474.91 60.512 1474.72 60.848C1474.52 61.184 1474.28 61.444 1473.97 61.628C1473.67 61.804 1473.34 61.928 1472.99 62C1472.64 62.064 1472.3 62.096 1471.99 62.096ZM1478.38 62.108C1478.03 62.108 1477.69 62.068 1477.36 61.988C1477.04 61.908 1476.75 61.788 1476.48 61.628C1476.22 61.46 1476 61.248 1475.81 60.992C1475.63 60.736 1475.5 60.432 1475.43 60.08H1476.48C1476.57 60.304 1476.71 60.496 1476.9 60.656C1477.1 60.816 1477.31 60.94 1477.55 61.028C1477.8 61.108 1478.04 61.148 1478.28 61.148C1478.68 61.148 1479.02 61.084 1479.33 60.956C1479.64 60.828 1479.89 60.632 1480.07 60.368C1480.26 60.096 1480.35 59.748 1480.35 59.324C1480.35 58.74 1480.17 58.292 1479.82 57.98C1479.47 57.668 1479.01 57.512 1478.45 57.512C1478.12 57.512 1477.8 57.572 1477.52 57.692C1477.24 57.812 1476.98 57.976 1476.75 58.184H1475.67L1476.05 53.516H1481.13V54.476H1476.99L1476.75 57.14C1476.96 56.964 1477.23 56.824 1477.54 56.72C1477.85 56.608 1478.24 56.552 1478.69 56.552C1479.24 56.552 1479.71 56.664 1480.12 56.888C1480.54 57.112 1480.86 57.428 1481.08 57.836C1481.31 58.236 1481.43 58.712 1481.43 59.264C1481.43 59.856 1481.29 60.364 1481.02 60.788C1480.76 61.212 1480.39 61.54 1479.93 61.772C1479.47 61.996 1478.96 62.108 1478.38 62.108Z" fill="#999999"/>
<rect x="1474.5" y="70" width="2" height="8" fill="#E9E9E9"/>
<rect x="1525" y="70" width="2" height="8" fill="#E9E9E9"/>
<rect x="1574.5" y="70" width="2" height="8" fill="#E9E9E9"/>
<rect x="1624" y="70" width="2" height="8" fill="#E9E9E9"/>
<path d="M1673.61 62V60.308H1669V59.528L1673.16 53.516H1674.66V59.36H1675.65V60.308H1674.66V62H1673.61ZM1670.26 59.36H1673.61V54.464L1670.26 59.36ZM1679.09 62.096C1678.5 62.096 1677.99 61.988 1677.57 61.772C1677.15 61.548 1676.81 61.24 1676.55 60.848C1676.28 60.448 1676.09 59.988 1675.96 59.468C1675.84 58.94 1675.78 58.372 1675.78 57.764C1675.78 57.156 1675.84 56.592 1675.96 56.072C1676.08 55.544 1676.27 55.084 1676.53 54.692C1676.8 54.292 1677.14 53.98 1677.55 53.756C1677.98 53.532 1678.49 53.42 1679.09 53.42C1679.72 53.42 1680.25 53.544 1680.67 53.792C1681.11 54.032 1681.45 54.36 1681.69 54.776C1681.95 55.192 1682.13 55.66 1682.23 56.18C1682.35 56.692 1682.4 57.22 1682.4 57.764C1682.4 58.308 1682.35 58.84 1682.23 59.36C1682.13 59.872 1681.95 60.336 1681.69 60.752C1681.45 61.16 1681.11 61.488 1680.67 61.736C1680.25 61.976 1679.72 62.096 1679.09 62.096ZM1679.09 61.148C1679.56 61.148 1679.94 61.048 1680.23 60.848C1680.53 60.64 1680.75 60.368 1680.91 60.032C1681.07 59.696 1681.18 59.332 1681.24 58.94C1681.29 58.54 1681.32 58.148 1681.32 57.764C1681.32 57.388 1681.29 57.004 1681.24 56.612C1681.18 56.212 1681.07 55.844 1680.91 55.508C1680.75 55.164 1680.53 54.888 1680.23 54.68C1679.94 54.472 1679.56 54.368 1679.09 54.368C1678.61 54.368 1678.22 54.472 1677.93 54.68C1677.63 54.888 1677.4 55.164 1677.24 55.508C1677.09 55.844 1676.99 56.212 1676.93 56.612C1676.87 57.004 1676.85 57.388 1676.85 57.764C1676.85 58.148 1676.87 58.54 1676.93 58.94C1676.99 59.332 1677.09 59.696 1677.24 60.032C1677.4 60.368 1677.63 60.64 1677.93 60.848C1678.22 61.048 1678.61 61.148 1679.09 61.148Z" fill="#999999"/>
<rect x="1675" y="70" width="2" height="8" fill="#E9E9E9"/>
<rect x="1726" y="70" width="2" height="8" fill="#E9E9E9"/>
<rect x="1775.5" y="70" width="2" height="8" fill="#E9E9E9"/>
<rect x="1825" y="70" width="2" height="8" fill="#E9E9E9"/>
<path d="M919.836 14V12.558L922.594 10.234C922.818 10.0473 923.065 9.842 923.336 9.618C923.607 9.394 923.863 9.15133 924.106 8.89C924.358 8.61933 924.568 8.33933 924.736 8.05C924.904 7.76067 924.988 7.45733 924.988 7.14C924.988 6.664 924.843 6.29067 924.554 6.02C924.274 5.74933 923.873 5.614 923.35 5.614C922.893 5.614 922.519 5.712 922.23 5.908C921.941 6.104 921.759 6.37 921.684 6.706H919.962C920.027 6.08067 920.228 5.572 920.564 5.18C920.909 4.77867 921.334 4.48 921.838 4.284C922.342 4.07867 922.869 3.976 923.42 3.976C924.045 3.976 924.605 4.09267 925.1 4.326C925.595 4.55 925.987 4.886 926.276 5.334C926.575 5.77267 926.724 6.30933 926.724 6.944C926.724 7.51333 926.612 8.02667 926.388 8.484C926.173 8.94133 925.879 9.36133 925.506 9.744C925.142 10.1173 924.741 10.486 924.302 10.85L922.412 12.404H926.752V14H919.836ZM930.533 14.112C930.095 14.112 929.661 14.0607 929.231 13.958C928.802 13.8553 928.41 13.6967 928.055 13.482C927.701 13.258 927.402 12.9687 927.159 12.614C926.926 12.2593 926.777 11.83 926.711 11.326H928.447C928.531 11.6153 928.681 11.844 928.895 12.012C929.119 12.18 929.376 12.306 929.665 12.39C929.955 12.4647 930.249 12.502 930.547 12.502C930.762 12.502 930.977 12.4833 931.191 12.446C931.406 12.4087 931.607 12.3387 931.793 12.236C931.98 12.1333 932.129 11.9887 932.241 11.802C932.353 11.6153 932.409 11.3727 932.409 11.074C932.409 10.8033 932.358 10.5793 932.255 10.402C932.162 10.2247 932.027 10.0893 931.849 9.996C931.681 9.89333 931.485 9.82333 931.261 9.786C931.047 9.73933 930.818 9.716 930.575 9.716H929.483V8.218H930.197C930.468 8.218 930.715 8.19 930.939 8.134C931.163 8.078 931.359 7.99867 931.527 7.896C931.695 7.784 931.821 7.644 931.905 7.476C931.999 7.308 932.045 7.10733 932.045 6.874C932.045 6.538 931.971 6.27667 931.821 6.09C931.681 5.90333 931.49 5.77267 931.247 5.698C931.005 5.614 930.739 5.572 930.449 5.572C930.188 5.572 929.936 5.614 929.693 5.698C929.451 5.77267 929.241 5.88933 929.063 6.048C928.886 6.20667 928.774 6.40733 928.727 6.65H927.019C927.075 6.18333 927.211 5.782 927.425 5.446C927.64 5.11 927.906 4.83467 928.223 4.62C928.55 4.396 928.914 4.23267 929.315 4.13C929.717 4.02733 930.132 3.976 930.561 3.976C930.981 3.976 931.383 4.02267 931.765 4.116C932.157 4.20933 932.503 4.36333 932.801 4.578C933.1 4.78333 933.338 5.054 933.515 5.39C933.693 5.726 933.781 6.13667 933.781 6.622C933.781 6.93 933.73 7.21933 933.627 7.49C933.525 7.76067 933.375 7.99867 933.179 8.204C932.993 8.40933 932.764 8.57733 932.493 8.708C932.867 8.81067 933.179 8.97867 933.431 9.212C933.683 9.436 933.87 9.70667 933.991 10.024C934.122 10.3413 934.187 10.6913 934.187 11.074C934.187 11.6713 934.075 12.1707 933.851 12.572C933.637 12.964 933.347 13.272 932.983 13.496C932.629 13.72 932.237 13.8787 931.807 13.972C931.378 14.0653 930.953 14.112 930.533 14.112Z" fill="#020F23"/>
<path d="M880.201 36.544C879.721 35.976 879.321 35.34 879.001 34.636C878.689 33.94 878.453 33.224 878.293 32.488C878.133 31.744 878.053 31.04 878.053 30.376C878.053 29.704 878.133 29 878.293 28.264C878.461 27.528 878.705 26.808 879.025 26.104C879.345 25.392 879.745 24.752 880.225 24.184H881.329C880.769 24.92 880.321 25.628 879.985 26.308C879.657 26.988 879.421 27.664 879.277 28.336C879.141 29 879.073 29.68 879.073 30.376C879.073 31.08 879.145 31.764 879.289 32.428C879.441 33.092 879.681 33.76 880.009 34.432C880.337 35.104 880.769 35.808 881.305 36.544H880.201ZM880.325 34V33.124L882.725 31.048C882.941 30.864 883.177 30.664 883.433 30.448C883.697 30.224 883.945 29.984 884.177 29.728C884.417 29.472 884.613 29.2 884.765 28.912C884.925 28.616 885.005 28.304 885.005 27.976C885.005 27.464 884.853 27.072 884.549 26.8C884.245 26.52 883.837 26.38 883.325 26.38C882.917 26.38 882.561 26.464 882.257 26.632C881.953 26.8 881.753 27.044 881.657 27.364H880.541C880.621 26.924 880.801 26.564 881.081 26.284C881.369 25.996 881.713 25.78 882.113 25.636C882.521 25.492 882.941 25.42 883.373 25.42C883.901 25.42 884.365 25.516 884.765 25.708C885.173 25.9 885.489 26.18 885.713 26.548C885.945 26.908 886.061 27.352 886.061 27.88C886.061 28.4 885.961 28.856 885.761 29.248C885.569 29.64 885.313 29.996 884.993 30.316C884.681 30.628 884.345 30.936 883.985 31.24L881.837 33.052H886.157V34H880.325ZM889.758 34.096C889.166 34.096 888.658 33.988 888.234 33.772C887.818 33.548 887.478 33.24 887.214 32.848C886.95 32.448 886.754 31.988 886.626 31.468C886.506 30.94 886.446 30.372 886.446 29.764C886.446 29.156 886.506 28.592 886.626 28.072C886.746 27.544 886.938 27.084 887.202 26.692C887.466 26.292 887.806 25.98 888.222 25.756C888.646 25.532 889.158 25.42 889.758 25.42C890.39 25.42 890.918 25.544 891.342 25.792C891.774 26.032 892.114 26.36 892.362 26.776C892.618 27.192 892.798 27.66 892.902 28.18C893.014 28.692 893.07 29.22 893.07 29.764C893.07 30.308 893.014 30.84 892.902 31.36C892.798 31.872 892.618 32.336 892.362 32.752C892.114 33.16 891.774 33.488 891.342 33.736C890.918 33.976 890.39 34.096 889.758 34.096ZM889.758 33.148C890.23 33.148 890.61 33.048 890.898 32.848C891.194 32.64 891.422 32.368 891.582 32.032C891.742 31.696 891.85 31.332 891.906 30.94C891.962 30.54 891.99 30.148 891.99 29.764C891.99 29.388 891.962 29.004 891.906 28.612C891.85 28.212 891.742 27.844 891.582 27.508C891.422 27.164 891.194 26.888 890.898 26.68C890.61 26.472 890.23 26.368 889.758 26.368C889.278 26.368 888.89 26.472 888.594 26.68C888.298 26.888 888.07 27.164 887.91 27.508C887.758 27.844 887.654 28.212 887.598 28.612C887.542 29.004 887.514 29.388 887.514 29.764C887.514 30.148 887.542 30.54 887.598 30.94C887.654 31.332 887.758 31.696 887.91 32.032C888.07 32.368 888.298 32.64 888.594 32.848C888.89 33.048 889.278 33.148 889.758 33.148ZM892.926 34V33.124L895.326 31.048C895.542 30.864 895.778 30.664 896.034 30.448C896.298 30.224 896.546 29.984 896.778 29.728C897.018 29.472 897.214 29.2 897.366 28.912C897.526 28.616 897.606 28.304 897.606 27.976C897.606 27.464 897.454 27.072 897.15 26.8C896.846 26.52 896.438 26.38 895.926 26.38C895.518 26.38 895.162 26.464 894.858 26.632C894.554 26.8 894.354 27.044 894.258 27.364H893.142C893.222 26.924 893.402 26.564 893.682 26.284C893.97 25.996 894.314 25.78 894.714 25.636C895.122 25.492 895.542 25.42 895.974 25.42C896.502 25.42 896.966 25.516 897.366 25.708C897.774 25.9 898.09 26.18 898.314 26.548C898.546 26.908 898.662 27.352 898.662 27.88C898.662 28.4 898.562 28.856 898.362 29.248C898.17 29.64 897.914 29.996 897.594 30.316C897.282 30.628 896.946 30.936 896.586 31.24L894.438 33.052H898.758V34H892.926ZM902.059 34.108C901.707 34.108 901.367 34.068 901.039 33.988C900.719 33.908 900.427 33.788 900.163 33.628C899.899 33.46 899.675 33.248 899.491 32.992C899.307 32.736 899.179 32.432 899.107 32.08H900.163C900.251 32.304 900.391 32.496 900.583 32.656C900.775 32.816 900.991 32.94 901.231 33.028C901.479 33.108 901.723 33.148 901.963 33.148C902.355 33.148 902.703 33.084 903.007 32.956C903.319 32.828 903.567 32.632 903.751 32.368C903.935 32.096 904.027 31.748 904.027 31.324C904.027 30.74 903.851 30.292 903.499 29.98C903.147 29.668 902.691 29.512 902.131 29.512C901.795 29.512 901.483 29.572 901.195 29.692C900.915 29.812 900.659 29.976 900.427 30.184H899.347L899.731 25.516H904.807V26.476H900.667L900.427 29.14C900.643 28.964 900.907 28.824 901.219 28.72C901.531 28.608 901.915 28.552 902.371 28.552C902.915 28.552 903.391 28.664 903.799 28.888C904.215 29.112 904.535 29.428 904.759 29.836C904.991 30.236 905.107 30.712 905.107 31.264C905.107 31.856 904.971 32.364 904.699 32.788C904.435 33.212 904.071 33.54 903.607 33.772C903.151 33.996 902.635 34.108 902.059 34.108ZM905.526 36.544H904.422C904.958 35.808 905.39 35.104 905.718 34.432C906.046 33.76 906.282 33.092 906.426 32.428C906.578 31.764 906.654 31.08 906.654 30.376C906.654 29.68 906.582 29 906.438 28.336C906.302 27.664 906.07 26.988 905.742 26.308C905.414 25.628 904.966 24.92 904.398 24.184H905.502C905.982 24.752 906.382 25.392 906.702 26.104C907.03 26.808 907.274 27.528 907.434 28.264C907.594 29 907.674 29.704 907.674 30.376C907.674 31.04 907.594 31.744 907.434 32.488C907.282 33.224 907.046 33.94 906.726 34.636C906.406 35.34 906.006 35.976 905.526 36.544ZM912.852 34V30.82L909.852 25.516H911.064L913.392 29.764L915.696 25.516H916.884L913.896 30.808V34H912.852ZM920.392 34.096C919.512 34.096 918.776 33.908 918.184 33.532C917.592 33.156 917.144 32.64 916.84 31.984C916.544 31.328 916.396 30.588 916.396 29.764C916.396 28.932 916.544 28.188 916.84 27.532C917.144 26.876 917.592 26.36 918.184 25.984C918.776 25.608 919.512 25.42 920.392 25.42C921.272 25.42 922.004 25.608 922.588 25.984C923.18 26.36 923.624 26.876 923.92 27.532C924.224 28.188 924.376 28.932 924.376 29.764C924.376 30.588 924.224 31.328 923.92 31.984C923.624 32.64 923.18 33.156 922.588 33.532C922.004 33.908 921.272 34.096 920.392 34.096ZM920.392 33.148C921.064 33.148 921.616 32.996 922.048 32.692C922.48 32.38 922.796 31.968 922.996 31.456C923.204 30.944 923.308 30.38 923.308 29.764C923.308 29.3 923.248 28.864 923.128 28.456C923.016 28.04 922.84 27.676 922.6 27.364C922.36 27.052 922.056 26.808 921.688 26.632C921.32 26.456 920.888 26.368 920.392 26.368C919.728 26.368 919.176 26.524 918.736 26.836C918.304 27.148 917.98 27.56 917.764 28.072C917.556 28.584 917.452 29.148 917.452 29.764C917.452 30.372 917.556 30.932 917.764 31.444C917.972 31.956 918.292 32.368 918.724 32.68C919.164 32.992 919.72 33.148 920.392 33.148ZM928.305 34.096C927.513 34.096 926.869 33.932 926.373 33.604C925.877 33.276 925.513 32.832 925.281 32.272C925.049 31.704 924.933 31.06 924.933 30.34V25.516H925.977V30.328C925.977 30.84 926.049 31.312 926.193 31.744C926.345 32.168 926.593 32.508 926.937 32.764C927.281 33.02 927.741 33.148 928.317 33.148C928.901 33.148 929.357 33.02 929.685 32.764C930.021 32.508 930.261 32.168 930.405 31.744C930.549 31.312 930.621 30.84 930.621 30.328V25.516H931.677V30.34C931.677 31.052 931.561 31.692 931.329 32.26C931.097 32.828 930.733 33.276 930.237 33.604C929.741 33.932 929.097 34.096 928.305 34.096ZM932.7 34V25.516H934.032L938.46 32.584V25.516H939.504V34H938.196L933.744 26.956V34H932.7ZM944.039 34.096C943.159 34.096 942.427 33.912 941.843 33.544C941.267 33.168 940.835 32.656 940.547 32.008C940.267 31.36 940.127 30.62 940.127 29.788C940.127 29.164 940.203 28.588 940.355 28.06C940.515 27.532 940.755 27.072 941.075 26.68C941.395 26.28 941.795 25.972 942.275 25.756C942.763 25.532 943.335 25.42 943.991 25.42C944.615 25.42 945.159 25.516 945.623 25.708C946.087 25.9 946.467 26.168 946.763 26.512C947.067 26.856 947.279 27.264 947.399 27.736H946.259C946.179 27.456 946.035 27.216 945.827 27.016C945.619 26.808 945.359 26.648 945.047 26.536C944.735 26.424 944.379 26.368 943.979 26.368C943.483 26.368 943.059 26.456 942.707 26.632C942.355 26.808 942.067 27.052 941.843 27.364C941.619 27.668 941.455 28.028 941.351 28.444C941.247 28.852 941.195 29.292 941.195 29.764C941.195 30.388 941.295 30.956 941.495 31.468C941.695 31.98 942.003 32.388 942.419 32.692C942.835 32.996 943.371 33.148 944.027 33.148C944.571 33.148 945.035 33.052 945.419 32.86C945.803 32.66 946.099 32.376 946.307 32.008C946.515 31.632 946.619 31.184 946.619 30.664H943.835V29.716H947.615V30.424C947.615 31.16 947.471 31.804 947.183 32.356C946.895 32.908 946.483 33.336 945.947 33.64C945.419 33.944 944.783 34.096 944.039 34.096ZM948.232 34V25.516H951.412C951.884 25.516 952.304 25.564 952.672 25.66C953.048 25.756 953.368 25.908 953.632 26.116C953.896 26.324 954.096 26.6 954.232 26.944C954.376 27.28 954.448 27.688 954.448 28.168C954.448 28.64 954.36 29.044 954.184 29.38C954.008 29.708 953.776 29.976 953.488 30.184C953.2 30.392 952.888 30.544 952.552 30.64L954.328 34H953.188L951.496 30.82H949.276V34H948.232ZM949.276 29.872H951.076C951.388 29.872 951.68 29.848 951.952 29.8C952.232 29.752 952.476 29.668 952.684 29.548C952.9 29.42 953.068 29.244 953.188 29.02C953.308 28.788 953.372 28.492 953.38 28.132C953.388 27.724 953.312 27.4 953.152 27.16C952.992 26.912 952.756 26.736 952.444 26.632C952.132 26.52 951.752 26.464 951.304 26.464H949.276V29.872ZM954.206 34L957.362 25.516H958.862L962.006 34H960.878L960.206 32.176H956.006L955.334 34H954.206ZM956.354 31.228H959.858L958.106 26.428L956.354 31.228ZM962.169 34V25.516H963.501L967.929 32.584V25.516H968.973V34H967.665L963.213 26.956V34H962.169ZM973.376 34.096C972.584 34.096 971.94 33.932 971.444 33.604C970.948 33.276 970.584 32.832 970.352 32.272C970.12 31.704 970.004 31.06 970.004 30.34V25.516H971.048V30.328C971.048 30.84 971.12 31.312 971.264 31.744C971.416 32.168 971.664 32.508 972.008 32.764C972.352 33.02 972.812 33.148 973.388 33.148C973.972 33.148 974.428 33.02 974.756 32.764C975.092 32.508 975.332 32.168 975.476 31.744C975.62 31.312 975.692 30.84 975.692 30.328V25.516H976.748V30.34C976.748 31.052 976.632 31.692 976.4 32.26C976.168 32.828 975.804 33.276 975.308 33.604C974.812 33.932 974.168 34.096 973.376 34.096ZM890.956 50L888.652 41.516H889.828L891.76 49.1L893.608 41.516H895.204L897.052 49.1L898.984 41.516H900.112L897.808 50H896.224L894.376 42.512L892.528 50H890.956ZM900.329 50V41.516H906.029V42.464H901.373V45.32H905.561V46.28H901.373V49.052H906.029V50H900.329ZM906.641 50V41.516H909.617C910.041 41.516 910.425 41.552 910.769 41.624C911.113 41.688 911.409 41.8 911.657 41.96C911.913 42.12 912.109 42.336 912.245 42.608C912.381 42.88 912.449 43.224 912.449 43.64C912.449 44.072 912.349 44.456 912.149 44.792C911.957 45.128 911.657 45.376 911.249 45.536C911.793 45.632 912.201 45.856 912.473 46.208C912.745 46.552 912.881 47.012 912.881 47.588C912.881 48.06 912.793 48.452 912.617 48.764C912.441 49.076 912.197 49.324 911.885 49.508C911.581 49.684 911.229 49.812 910.829 49.892C910.429 49.964 910.005 50 909.557 50H906.641ZM907.685 49.052H909.521C909.769 49.052 910.025 49.04 910.289 49.016C910.561 48.984 910.813 48.924 911.045 48.836C911.277 48.74 911.465 48.592 911.609 48.392C911.753 48.192 911.825 47.924 911.825 47.588C911.825 47.3 911.769 47.064 911.657 46.88C911.553 46.696 911.409 46.552 911.225 46.448C911.049 46.344 910.845 46.272 910.613 46.232C910.381 46.192 910.145 46.172 909.905 46.172H907.685V49.052ZM907.685 45.236H909.317C909.613 45.236 909.889 45.212 910.145 45.164C910.401 45.108 910.625 45.02 910.817 44.9C911.009 44.78 911.157 44.624 911.261 44.432C911.373 44.24 911.429 44 911.429 43.712C911.437 43.344 911.357 43.072 911.189 42.896C911.021 42.72 910.797 42.604 910.517 42.548C910.245 42.492 909.949 42.464 909.629 42.464H907.685V45.236ZM915.751 50V41.516H918.931C919.403 41.516 919.823 41.564 920.191 41.66C920.567 41.756 920.887 41.908 921.151 42.116C921.415 42.324 921.615 42.6 921.751 42.944C921.895 43.28 921.967 43.688 921.967 44.168C921.967 44.64 921.879 45.044 921.703 45.38C921.527 45.708 921.295 45.976 921.007 46.184C920.719 46.392 920.407 46.544 920.071 46.64L921.847 50H920.707L919.015 46.82H916.795V50H915.751ZM916.795 45.872H918.595C918.907 45.872 919.199 45.848 919.471 45.8C919.751 45.752 919.995 45.668 920.203 45.548C920.419 45.42 920.587 45.244 920.707 45.02C920.827 44.788 920.891 44.492 920.899 44.132C920.907 43.724 920.831 43.4 920.671 43.16C920.511 42.912 920.275 42.736 919.963 42.632C919.651 42.52 919.271 42.464 918.823 42.464H916.795V45.872ZM922.649 50V41.516H928.349V42.464H923.693V45.32H927.881V46.28H923.693V49.052H928.349V50H922.649ZM928.974 50V41.516H930.306L934.734 48.584V41.516H935.778V50H934.47L930.018 42.956V50H928.974ZM936.868 50V41.516H942.568V42.464H937.912V45.32H942.1V46.28H937.912V49.052H942.568V50H936.868ZM944.62 50L942.316 41.516H943.492L945.424 49.1L947.272 41.516H948.868L950.716 49.1L952.648 41.516H953.776L951.472 50H949.888L948.04 42.512L946.192 50H944.62ZM952.706 50L955.862 41.516H957.362L960.506 50H959.378L958.706 48.176H954.506L953.834 50H952.706ZM954.854 47.228H958.358L956.606 42.428L954.854 47.228ZM960.669 50V41.516H961.713V49.052H966.369V50H960.669Z" fill="#646464"/>
<rect x="926.5" y="62" width="2" height="16" fill="#020F23"/>
</svg>
