<svg width="183" height="85" viewBox="0 0 183 85" fill="none" xmlns="http://www.w3.org/2000/svg">
<rect x="5" width="2" height="12" fill="#CCCCCC"/>
<rect x="29.5" width="2" height="12" fill="#CCCCCC"/>
<rect x="55.5" width="2" height="12" fill="#CCCCCC"/>
<rect x="90.5" y="1" width="2" height="18" fill="#020F23"/>
<path d="M60.6465 43V39.82L57.6465 34.516H58.8585L61.1865 38.764L63.4905 34.516H64.6785L61.6905 39.808V43H60.6465ZM68.1872 43.096C67.3072 43.096 66.5712 42.908 65.9792 42.532C65.3872 42.156 64.9392 41.64 64.6352 40.984C64.3392 40.328 64.1912 39.588 64.1912 38.764C64.1912 37.932 64.3392 37.188 64.6352 36.532C64.9392 35.876 65.3872 35.36 65.9792 34.984C66.5712 34.608 67.3072 34.42 68.1872 34.42C69.0672 34.42 69.7992 34.608 70.3832 34.984C70.9752 35.36 71.4192 35.876 71.7152 36.532C72.0192 37.188 72.1712 37.932 72.1712 38.764C72.1712 39.588 72.0192 40.328 71.7152 40.984C71.4192 41.64 70.9752 42.156 70.3832 42.532C69.7992 42.908 69.0672 43.096 68.1872 43.096ZM68.1872 42.148C68.8592 42.148 69.4112 41.996 69.8432 41.692C70.2752 41.38 70.5912 40.968 70.7912 40.456C70.9992 39.944 71.1032 39.38 71.1032 38.764C71.1032 38.3 71.0432 37.864 70.9232 37.456C70.8112 37.04 70.6352 36.676 70.3952 36.364C70.1552 36.052 69.8512 35.808 69.4832 35.632C69.1152 35.456 68.6832 35.368 68.1872 35.368C67.5232 35.368 66.9712 35.524 66.5312 35.836C66.0992 36.148 65.7752 36.56 65.5592 37.072C65.3512 37.584 65.2472 38.148 65.2472 38.764C65.2472 39.372 65.3512 39.932 65.5592 40.444C65.7672 40.956 66.0872 41.368 66.5192 41.68C66.9592 41.992 67.5152 42.148 68.1872 42.148ZM76.1001 43.096C75.3081 43.096 74.6641 42.932 74.1681 42.604C73.6721 42.276 73.3081 41.832 73.0761 41.272C72.8441 40.704 72.7281 40.06 72.7281 39.34V34.516H73.7721V39.328C73.7721 39.84 73.8441 40.312 73.9881 40.744C74.1401 41.168 74.3881 41.508 74.7321 41.764C75.0761 42.02 75.5361 42.148 76.1121 42.148C76.6961 42.148 77.1521 42.02 77.4801 41.764C77.8161 41.508 78.0561 41.168 78.2001 40.744C78.3441 40.312 78.4161 39.84 78.4161 39.328V34.516H79.4721V39.34C79.4721 40.052 79.3561 40.692 79.1241 41.26C78.8921 41.828 78.5281 42.276 78.0321 42.604C77.5361 42.932 76.8921 43.096 76.1001 43.096ZM80.4952 43V34.516H81.8272L86.2552 41.584V34.516H87.2992V43H85.9912L81.5392 35.956V43H80.4952ZM91.8337 43.096C90.9537 43.096 90.2217 42.912 89.6377 42.544C89.0617 42.168 88.6297 41.656 88.3417 41.008C88.0617 40.36 87.9217 39.62 87.9217 38.788C87.9217 38.164 87.9977 37.588 88.1497 37.06C88.3097 36.532 88.5497 36.072 88.8697 35.68C89.1897 35.28 89.5897 34.972 90.0697 34.756C90.5577 34.532 91.1297 34.42 91.7857 34.42C92.4097 34.42 92.9537 34.516 93.4177 34.708C93.8817 34.9 94.2617 35.168 94.5577 35.512C94.8617 35.856 95.0737 36.264 95.1937 36.736H94.0537C93.9737 36.456 93.8297 36.216 93.6217 36.016C93.4137 35.808 93.1537 35.648 92.8417 35.536C92.5297 35.424 92.1737 35.368 91.7737 35.368C91.2777 35.368 90.8537 35.456 90.5017 35.632C90.1497 35.808 89.8617 36.052 89.6377 36.364C89.4137 36.668 89.2497 37.028 89.1457 37.444C89.0417 37.852 88.9897 38.292 88.9897 38.764C88.9897 39.388 89.0897 39.956 89.2897 40.468C89.4897 40.98 89.7977 41.388 90.2137 41.692C90.6297 41.996 91.1657 42.148 91.8217 42.148C92.3657 42.148 92.8297 42.052 93.2137 41.86C93.5977 41.66 93.8937 41.376 94.1017 41.008C94.3097 40.632 94.4137 40.184 94.4137 39.664H91.6297V38.716H95.4097V39.424C95.4097 40.16 95.2657 40.804 94.9777 41.356C94.6897 41.908 94.2777 42.336 93.7417 42.64C93.2137 42.944 92.5777 43.096 91.8337 43.096ZM96.0264 43V34.516H99.2064C99.6784 34.516 100.098 34.564 100.466 34.66C100.842 34.756 101.162 34.908 101.426 35.116C101.69 35.324 101.89 35.6 102.026 35.944C102.17 36.28 102.242 36.688 102.242 37.168C102.242 37.64 102.154 38.044 101.978 38.38C101.802 38.708 101.57 38.976 101.282 39.184C100.994 39.392 100.682 39.544 100.346 39.64L102.122 43H100.982L99.2904 39.82H97.0704V43H96.0264ZM97.0704 38.872H98.8704C99.1824 38.872 99.4744 38.848 99.7464 38.8C100.026 38.752 100.27 38.668 100.478 38.548C100.694 38.42 100.862 38.244 100.982 38.02C101.102 37.788 101.166 37.492 101.174 37.132C101.182 36.724 101.106 36.4 100.946 36.16C100.786 35.912 100.55 35.736 100.238 35.632C99.9264 35.52 99.5464 35.464 99.0984 35.464H97.0704V38.872ZM102.001 43L105.157 34.516H106.657L109.801 43H108.673L108.001 41.176H103.801L103.129 43H102.001ZM104.149 40.228H107.653L105.901 35.428L104.149 40.228ZM109.964 43V34.516H111.296L115.724 41.584V34.516H116.768V43H115.46L111.008 35.956V43H109.964ZM121.17 43.096C120.378 43.096 119.734 42.932 119.238 42.604C118.742 42.276 118.378 41.832 118.146 41.272C117.914 40.704 117.798 40.06 117.798 39.34V34.516H118.842V39.328C118.842 39.84 118.914 40.312 119.058 40.744C119.21 41.168 119.458 41.508 119.802 41.764C120.146 42.02 120.606 42.148 121.182 42.148C121.766 42.148 122.222 42.02 122.55 41.764C122.886 41.508 123.126 41.168 123.27 40.744C123.414 40.312 123.486 39.84 123.486 39.328V34.516H124.542V39.34C124.542 40.052 124.426 40.692 124.194 41.26C123.962 41.828 123.598 42.276 123.102 42.604C122.606 42.932 121.962 43.096 121.17 43.096ZM54.9564 59L52.6524 50.516H53.8284L55.7604 58.1L57.6084 50.516H59.2044L61.0524 58.1L62.9844 50.516H64.1124L61.8084 59H60.2244L58.3764 51.512L56.5284 59H54.9564ZM64.3292 59V50.516H70.0292V51.464H65.3732V54.32H69.5612V55.28H65.3732V58.052H70.0292V59H64.3292ZM70.6414 59V50.516H73.6174C74.0414 50.516 74.4254 50.552 74.7694 50.624C75.1134 50.688 75.4094 50.8 75.6574 50.96C75.9134 51.12 76.1094 51.336 76.2454 51.608C76.3814 51.88 76.4494 52.224 76.4494 52.64C76.4494 53.072 76.3494 53.456 76.1494 53.792C75.9574 54.128 75.6574 54.376 75.2494 54.536C75.7934 54.632 76.2014 54.856 76.4734 55.208C76.7454 55.552 76.8814 56.012 76.8814 56.588C76.8814 57.06 76.7934 57.452 76.6174 57.764C76.4414 58.076 76.1974 58.324 75.8854 58.508C75.5814 58.684 75.2294 58.812 74.8294 58.892C74.4294 58.964 74.0054 59 73.5574 59H70.6414ZM71.6854 58.052H73.5214C73.7694 58.052 74.0254 58.04 74.2894 58.016C74.5614 57.984 74.8134 57.924 75.0454 57.836C75.2774 57.74 75.4654 57.592 75.6094 57.392C75.7534 57.192 75.8254 56.924 75.8254 56.588C75.8254 56.3 75.7694 56.064 75.6574 55.88C75.5534 55.696 75.4094 55.552 75.2254 55.448C75.0494 55.344 74.8454 55.272 74.6134 55.232C74.3814 55.192 74.1454 55.172 73.9054 55.172H71.6854V58.052ZM71.6854 54.236H73.3174C73.6134 54.236 73.8894 54.212 74.1454 54.164C74.4014 54.108 74.6254 54.02 74.8174 53.9C75.0094 53.78 75.1574 53.624 75.2614 53.432C75.3734 53.24 75.4294 53 75.4294 52.712C75.4374 52.344 75.3574 52.072 75.1894 51.896C75.0214 51.72 74.7974 51.604 74.5174 51.548C74.2454 51.492 73.9494 51.464 73.6294 51.464H71.6854V54.236ZM79.751 59V50.516H82.931C83.403 50.516 83.823 50.564 84.191 50.66C84.567 50.756 84.887 50.908 85.151 51.116C85.415 51.324 85.615 51.6 85.751 51.944C85.895 52.28 85.967 52.688 85.967 53.168C85.967 53.64 85.879 54.044 85.703 54.38C85.527 54.708 85.295 54.976 85.007 55.184C84.719 55.392 84.407 55.544 84.071 55.64L85.847 59H84.707L83.015 55.82H80.795V59H79.751ZM80.795 54.872H82.595C82.907 54.872 83.199 54.848 83.471 54.8C83.751 54.752 83.995 54.668 84.203 54.548C84.419 54.42 84.587 54.244 84.707 54.02C84.827 53.788 84.891 53.492 84.899 53.132C84.907 52.724 84.831 52.4 84.671 52.16C84.511 51.912 84.275 51.736 83.963 51.632C83.651 51.52 83.271 51.464 82.823 51.464H80.795V54.872ZM86.6495 59V50.516H92.3495V51.464H87.6935V54.32H91.8815V55.28H87.6935V58.052H92.3495V59H86.6495ZM92.9737 59V50.516H94.3057L98.7337 57.584V50.516H99.7777V59H98.4697L94.0177 51.956V59H92.9737ZM100.868 59V50.516H106.568V51.464H101.912V54.32H106.1V55.28H101.912V58.052H106.568V59H100.868ZM108.62 59L106.316 50.516H107.492L109.424 58.1L111.272 50.516H112.868L114.716 58.1L116.648 50.516H117.776L115.472 59H113.888L112.04 51.512L110.192 59H108.62ZM116.706 59L119.862 50.516H121.362L124.506 59H123.378L122.706 57.176H118.506L117.834 59H116.706ZM118.854 56.228H122.358L120.606 51.428L118.854 56.228ZM124.669 59V50.516H125.713V58.052H130.369V59H124.669Z" fill="#646464"/>
<path d="M76.336 81V79.558L79.094 77.234C79.318 77.0473 79.5653 76.842 79.836 76.618C80.1067 76.394 80.3633 76.1513 80.606 75.89C80.858 75.6193 81.068 75.3393 81.236 75.05C81.404 74.7607 81.488 74.4573 81.488 74.14C81.488 73.664 81.3433 73.2907 81.054 73.02C80.774 72.7493 80.3727 72.614 79.85 72.614C79.3927 72.614 79.0193 72.712 78.73 72.908C78.4407 73.104 78.2587 73.37 78.184 73.706H76.462C76.5273 73.0807 76.728 72.572 77.064 72.18C77.4093 71.7787 77.834 71.48 78.338 71.284C78.842 71.0787 79.3693 70.976 79.92 70.976C80.5453 70.976 81.1053 71.0927 81.6 71.326C82.0947 71.55 82.4867 71.886 82.776 72.334C83.0747 72.7727 83.224 73.3093 83.224 73.944C83.224 74.5133 83.112 75.0267 82.888 75.484C82.6733 75.9413 82.3793 76.3613 82.006 76.744C81.642 77.1173 81.2407 77.486 80.802 77.85L78.912 79.404H83.252V81H76.336ZM87.4953 81.112C86.7767 81.112 86.1653 80.986 85.6613 80.734C85.1573 80.4727 84.7513 80.1087 84.4433 79.642C84.1353 79.1753 83.9067 78.6387 83.7573 78.032C83.6173 77.4253 83.5473 76.772 83.5473 76.072C83.5473 75.3627 83.6173 74.7 83.7573 74.084C83.9067 73.468 84.1353 72.9313 84.4433 72.474C84.7607 72.0073 85.1713 71.6433 85.6753 71.382C86.1793 71.1113 86.7907 70.976 87.5093 70.976C88.2467 70.976 88.8673 71.116 89.3713 71.396C89.8847 71.676 90.2907 72.054 90.5893 72.53C90.8973 73.006 91.1167 73.5473 91.2473 74.154C91.3873 74.7607 91.4573 75.3953 91.4573 76.058C91.4573 76.7113 91.3873 77.3413 91.2473 77.948C91.1167 78.5547 90.8973 79.096 90.5893 79.572C90.2813 80.048 89.8707 80.426 89.3573 80.706C88.8533 80.9767 88.2327 81.112 87.4953 81.112ZM87.4953 79.516C87.9713 79.516 88.354 79.404 88.6433 79.18C88.942 78.956 89.166 78.6713 89.3153 78.326C89.4647 77.9713 89.5627 77.5933 89.6093 77.192C89.6653 76.7907 89.6933 76.4127 89.6933 76.058C89.6933 75.7033 89.67 75.33 89.6233 74.938C89.5767 74.5367 89.4787 74.1587 89.3293 73.804C89.18 73.4493 88.9607 73.16 88.6713 72.936C88.382 72.712 87.9947 72.6 87.5093 72.6C87.024 72.6 86.632 72.712 86.3333 72.936C86.044 73.16 85.8247 73.4493 85.6753 73.804C85.526 74.1493 85.4233 74.5227 85.3673 74.924C85.3207 75.3253 85.2973 75.7033 85.2973 76.058C85.2973 76.4127 85.3207 76.7907 85.3673 77.192C85.414 77.584 85.5073 77.9573 85.6473 78.312C85.7967 78.6667 86.016 78.956 86.3053 79.18C86.604 79.404 87.0007 79.516 87.4953 79.516ZM91.2618 81V79.558L94.0198 77.234C94.2438 77.0473 94.4911 76.842 94.7618 76.618C95.0324 76.394 95.2891 76.1513 95.5318 75.89C95.7838 75.6193 95.9938 75.3393 96.1618 75.05C96.3298 74.7607 96.4138 74.4573 96.4138 74.14C96.4138 73.664 96.2691 73.2907 95.9798 73.02C95.6998 72.7493 95.2984 72.614 94.7758 72.614C94.3184 72.614 93.9451 72.712 93.6558 72.908C93.3664 73.104 93.1844 73.37 93.1098 73.706H91.3878C91.4531 73.0807 91.6538 72.572 91.9898 72.18C92.3351 71.7787 92.7598 71.48 93.2638 71.284C93.7678 71.0787 94.2951 70.976 94.8458 70.976C95.4711 70.976 96.0311 71.0927 96.5258 71.326C97.0204 71.55 97.4124 71.886 97.7018 72.334C98.0004 72.7727 98.1498 73.3093 98.1498 73.944C98.1498 74.5133 98.0378 75.0267 97.8138 75.484C97.5991 75.9413 97.3051 76.3613 96.9318 76.744C96.5678 77.1173 96.1664 77.486 95.7278 77.85L93.8378 79.404H98.1778V81H91.2618ZM102.071 81.112C101.632 81.112 101.217 81.0607 100.825 80.958C100.433 80.846 100.078 80.678 99.7611 80.454C99.4438 80.23 99.1778 79.9453 98.9631 79.6C98.7578 79.2453 98.6178 78.83 98.5431 78.354H100.265C100.34 78.5593 100.461 78.7507 100.629 78.928C100.806 79.1053 101.016 79.2453 101.259 79.348C101.511 79.4507 101.782 79.502 102.071 79.502C102.463 79.502 102.799 79.4367 103.079 79.306C103.359 79.166 103.578 78.97 103.737 78.718C103.896 78.4567 103.975 78.144 103.975 77.78C103.975 77.2387 103.807 76.814 103.471 76.506C103.144 76.198 102.696 76.044 102.127 76.044C101.791 76.044 101.478 76.1047 101.189 76.226C100.9 76.338 100.629 76.4967 100.377 76.702H98.8231L99.0891 71.102H105.403V72.698H100.699L100.531 75.064C100.811 74.868 101.133 74.7233 101.497 74.63C101.861 74.5273 102.258 74.4807 102.687 74.49C103.322 74.4993 103.868 74.6393 104.325 74.91C104.792 75.1713 105.146 75.5353 105.389 76.002C105.632 76.4687 105.753 77.0193 105.753 77.654C105.753 78.3913 105.59 79.0167 105.263 79.53C104.946 80.0433 104.507 80.4353 103.947 80.706C103.396 80.9767 102.771 81.112 102.071 81.112Z" fill="#020F23"/>
<rect x="124" width="2" height="12" fill="#CCCCCC"/>
<rect x="148.5" width="2" height="12" fill="#CCCCCC"/>
<rect x="174.5" width="2" height="12" fill="#CCCCCC"/>
</svg>
