<svg width="80" height="18" viewBox="0 0 80 18" fill="none" xmlns="http://www.w3.org/2000/svg">
<path d="M10.514 15.036H9.282V3.024H10.514V15.036ZM0.574 13.3V12.264H3.108C4.10667 12.264 5.03067 12.2313 5.88 12.166C6.73867 12.1007 7.60667 12.0027 8.484 11.872L8.624 12.894C8.036 12.978 7.448 13.0527 6.86 13.118C6.28133 13.174 5.66067 13.2207 4.998 13.258C4.34467 13.286 3.61667 13.3 2.814 13.3H0.574ZM5.04 10.57V12.922H3.794V10.57H5.04ZM4.424 7.714C3.88267 7.714 3.458 7.81667 3.15 8.022C2.842 8.218 2.688 8.526 2.688 8.946C2.688 9.366 2.842 9.67867 3.15 9.884C3.458 10.08 3.88267 10.178 4.424 10.178C4.97467 10.178 5.39933 10.08 5.698 9.884C6.006 9.67867 6.16 9.366 6.16 8.946C6.16 8.526 6.006 8.218 5.698 8.022C5.39933 7.81667 4.97467 7.714 4.424 7.714ZM4.424 11.13C3.53733 11.1393 2.828 10.9527 2.296 10.57C1.764 10.1873 1.498 9.646 1.498 8.946C1.498 8.246 1.764 7.70467 2.296 7.322C2.828 6.93933 3.53733 6.75267 4.424 6.762C5.31067 6.77133 6.02 6.96267 6.552 7.336C7.084 7.70933 7.35 8.246 7.35 8.946C7.35 9.646 7.084 10.1827 6.552 10.556C6.02 10.9293 5.31067 11.1207 4.424 11.13ZM0.826 6.188V5.208H8.008V6.188H0.826ZM2.45 4.466V3.486H6.384V4.466H2.45ZM20.8882 15.036H19.6562V3.024H20.8882V15.036ZM20.2582 7.924H22.7502V8.96H20.2582V7.924ZM12.1102 12.572L11.2982 11.676C12.0916 11.004 12.7122 10.388 13.1602 9.828C13.6082 9.25867 13.9256 8.694 14.1122 8.134C14.3082 7.574 14.4062 6.97667 14.4062 6.342V4.06H15.6522V6.342C15.6522 6.96733 15.7409 7.55533 15.9182 8.106C16.1049 8.64733 16.4222 9.198 16.8702 9.758C17.3182 10.318 17.9389 10.9293 18.7322 11.592L17.9202 12.502C17.3416 11.9887 16.8376 11.494 16.4082 11.018C15.9882 10.5327 15.6382 10.0287 15.3582 9.506C15.0876 8.974 14.8776 8.38133 14.7282 7.728H15.3162C15.1576 8.4 14.9382 9.00667 14.6582 9.548C14.3782 10.08 14.0282 10.5887 13.6082 11.074C13.1882 11.55 12.6889 12.0493 12.1102 12.572ZM23.4365 10.094L23.0725 9.072C23.9685 8.736 24.7338 8.37667 25.3685 7.994C26.0031 7.61133 26.4885 7.18667 26.8245 6.72C27.1698 6.244 27.3425 5.70267 27.3425 5.096V3.822H28.6025V5.096C28.6025 5.70267 28.7705 6.244 29.1065 6.72C29.4425 7.196 29.9278 7.62533 30.5625 8.008C31.1971 8.38133 31.9671 8.736 32.8725 9.072L32.5225 10.094C31.6545 9.74867 30.8938 9.394 30.2405 9.03C29.5871 8.666 29.0411 8.246 28.6025 7.77C28.1731 7.294 27.8558 6.72 27.6505 6.048H28.2945C28.0891 6.72 27.7718 7.294 27.3425 7.77C26.9131 8.23667 26.3718 8.652 25.7185 9.016C25.0745 9.38 24.3138 9.73933 23.4365 10.094ZM28.6025 13.538H27.3425V9.632H28.6025V13.538ZM22.4845 13.916V12.88H33.4605V13.916H22.4845ZM41.1887 14.532H40.0127V3.22H41.1887V14.532ZM43.8347 15.008H42.6307V3.066H43.8347V15.008ZM40.4747 7.812H43.1627V8.848H40.4747V7.812ZM34.0627 12.46L33.4187 11.466C34.2307 11.0087 34.898 10.57 35.4207 10.15C35.9434 9.72067 36.3494 9.30067 36.6387 8.89C36.9374 8.47933 37.1474 8.06867 37.2687 7.658C37.39 7.238 37.4507 6.80867 37.4507 6.37V5.516H33.9227V4.494H38.6827V6.3C38.6827 7.09333 38.538 7.83067 38.2487 8.512C37.9687 9.184 37.4927 9.83733 36.8207 10.472C36.1487 11.1067 35.2294 11.7693 34.0627 12.46ZM54.4749 15.036H53.2429V3.024H54.4749V15.036ZM50.4009 7.042H53.7889V8.064H50.4009V7.042ZM45.1649 12.572L44.3669 11.676C45.1509 11.004 45.7623 10.388 46.2009 9.828C46.6489 9.25867 46.9616 8.694 47.1389 8.134C47.3256 7.574 47.4189 6.97667 47.4189 6.342V4.06H48.6789V6.342C48.6789 6.96733 48.7676 7.55533 48.9449 8.106C49.1316 8.64733 49.4443 9.198 49.8829 9.758C50.3309 10.318 50.9423 10.9293 51.7169 11.592L50.9189 12.502C50.3403 11.9793 49.8409 11.48 49.4209 11.004C49.0103 10.528 48.6696 10.0287 48.3989 9.506C48.1283 8.974 47.9136 8.38133 47.7549 7.728H48.3429C48.1843 8.4 47.9649 9.00667 47.6849 9.548C47.4143 10.08 47.0689 10.5887 46.6489 11.074C46.2383 11.55 45.7436 12.0493 45.1649 12.572Z" fill="#464646"/>
<path d="M71.0001 3V12.6M66.2 8.25678L71 12.5235L75.8 8.25678M65 15H77" stroke="#464646"/>
</svg>
