<svg width="56" height="56" viewBox="0 0 56 56" fill="none" xmlns="http://www.w3.org/2000/svg">
<g clip-path="url(#clip0_1222_1417)">
<path d="M47.04 0H8.96C4.01153 0 0 4.01153 0 8.96V47.04C0 51.9885 4.01153 56 8.96 56H47.04C51.9885 56 56 51.9885 56 47.04V8.96C56 4.01153 51.9885 0 47.04 0Z" fill="#0F72E7"/>
<path d="M25.4836 32.4141L23.0447 33.5406C23.107 33.6808 24.5945 36.9966 28.6455 36.9966C32.6966 36.9966 34.1882 33.6808 34.2464 33.5406L31.8033 32.4268C31.7742 32.4863 30.9266 34.259 28.6455 34.259C26.3645 34.259 25.5169 32.4863 25.4836 32.4141Z" fill="#BCDBFF"/>
<path d="M14.3889 25.2858C14.3889 21.4993 17.1379 18.6666 21.0081 18.6666C24.8783 18.6666 27.6273 21.4993 27.6273 25.2858C27.6273 29.0723 24.907 31.905 21.0081 31.905C17.1092 31.905 14.3889 29.0475 14.3889 25.2858ZM21.0081 28.816C23.0744 28.816 24.5383 27.1397 24.5383 25.2858C24.5383 23.4319 23.0703 21.7556 21.0081 21.7556C18.9459 21.7556 17.4779 23.4319 17.4779 25.2858C17.4779 27.1397 18.9705 28.816 21.0081 28.816Z" fill="white"/>
<path d="M29.6638 25.2858C29.6638 21.4993 32.4128 18.6666 36.283 18.6666C40.1532 18.6666 42.9022 21.4993 42.9022 25.2858C42.9022 29.0723 40.1819 31.905 36.283 31.905C32.3841 31.905 29.6638 29.0475 29.6638 25.2858ZM36.283 28.816C38.3493 28.816 39.8132 27.1397 39.8132 25.2858C39.8132 23.4319 38.3452 21.7556 36.283 21.7556C34.2208 21.7556 32.7528 23.4319 32.7528 25.2858C32.7528 27.1397 34.2454 28.816 36.283 28.816Z" fill="white"/>
</g>
<defs>
<clipPath id="clip0_1222_1417">
<rect width="56" height="56" rx="12" fill="white"/>
</clipPath>
</defs>
</svg>
