<svg width="19" height="18" viewBox="0 0 19 18" fill="none" xmlns="http://www.w3.org/2000/svg">
<rect x="0.5" width="18" height="18" rx="9" fill="#242424"/>
<path d="M9.30859 13.1172C7.44531 13.1172 6.10938 12.0859 6.07422 10.6094H7.85547C7.89062 11.2422 8.5 11.6641 9.32031 11.6641C10.1641 11.6641 10.7734 11.1836 10.7617 10.5039C10.7734 9.8125 10.1523 9.32031 9.15625 9.32031H8.37109V8.01953H9.15625C9.98828 8.01953 10.5742 7.5625 10.5742 6.89453C10.5742 6.25 10.082 5.80469 9.33203 5.80469C8.58203 5.80469 7.96094 6.22656 7.9375 6.87109H6.25C6.27344 5.40625 7.59766 4.39844 9.33203 4.39844C11.1016 4.39844 12.2852 5.44141 12.2734 6.78906C12.2852 7.73828 11.6172 8.41797 10.668 8.58203V8.65234C11.9102 8.80469 12.6016 9.56641 12.5898 10.6211C12.6016 12.0742 11.2188 13.1172 9.30859 13.1172Z" fill="white"/>
</svg>
