<svg width="506" height="76" viewBox="0 0 506 76" fill="none" xmlns="http://www.w3.org/2000/svg">
<g opacity="0.2">
<path d="M12.9518 59L1.04775 13.752H8.66375L18.1358 52.472L27.4158 13.752H37.0798L46.2958 52.472L55.7678 13.752H62.9998L51.1598 59H41.3038L32.0878 20.92L22.8718 59H12.9518ZM68.0308 59V13.752H74.8148V33.656H97.4708V13.752H104.255V59H97.4708V39.864H74.8148V59H68.0308ZM109.042 59L126.13 13.752H134.898L151.922 59H144.626L141.298 49.912H119.666L116.338 59H109.042ZM121.906 43.832H139.058L130.482 20.216L121.906 43.832ZM163.26 59V19.96H148.924V13.752H184.316V19.96H170.044V59H163.26ZM206.031 59V13.752H237.071V19.96H212.815V35.128H233.743V41.4H212.815V59H206.031ZM243.468 59V13.752H250.252V59H243.468ZM269.698 59V19.96H255.362V13.752H290.754V19.96H276.482V59H269.698ZM311.857 59.512C308.913 59.512 306.139 59.0853 303.537 58.232C300.934 57.3787 298.737 55.992 296.945 54.072C295.153 52.152 293.958 49.6133 293.361 46.456H300.337C300.891 48.248 301.787 49.656 303.025 50.68C304.262 51.6613 305.691 52.344 307.313 52.728C308.977 53.112 310.641 53.304 312.305 53.304C313.883 53.304 315.355 53.0907 316.721 52.664C318.129 52.2373 319.281 51.5333 320.177 50.552C321.073 49.5707 321.521 48.2907 321.521 46.712C321.521 45.5173 321.286 44.536 320.817 43.768C320.347 43 319.686 42.3813 318.833 41.912C318.022 41.4 317.041 40.9947 315.889 40.696C314.566 40.2693 313.137 39.9067 311.601 39.608C310.107 39.3093 308.614 38.968 307.121 38.584C305.67 38.2 304.305 37.7093 303.025 37.112C301.958 36.6853 300.913 36.1733 299.889 35.576C298.907 34.936 298.054 34.1893 297.329 33.336C296.603 32.44 296.006 31.3947 295.537 30.2C295.11 29.0053 294.897 27.64 294.897 26.104C294.897 24.056 295.217 22.3067 295.857 20.856C296.539 19.4053 297.414 18.1893 298.481 17.208C299.59 16.2267 300.849 15.4587 302.257 14.904C303.707 14.3067 305.222 13.88 306.801 13.624C308.379 13.368 309.915 13.24 311.409 13.24C314.139 13.24 316.657 13.6667 318.961 14.52C321.265 15.3733 323.163 16.7387 324.657 18.616C326.193 20.4507 327.025 22.8827 327.153 25.912H320.561C320.39 24.2907 319.835 23.0107 318.897 22.072C318.001 21.0907 316.87 20.408 315.505 20.024C314.139 19.5973 312.689 19.384 311.153 19.384C310.043 19.384 308.934 19.4907 307.825 19.704C306.715 19.8747 305.691 20.216 304.753 20.728C303.857 21.1973 303.131 21.8373 302.577 22.648C302.065 23.4587 301.809 24.4613 301.809 25.656C301.809 26.68 302.022 27.5973 302.449 28.408C302.875 29.176 303.473 29.8373 304.241 30.392C305.051 30.904 305.947 31.352 306.929 31.736C308.721 32.4187 310.683 32.952 312.817 33.336C314.95 33.6773 316.955 34.168 318.833 34.808C320.198 35.2347 321.478 35.768 322.673 36.408C323.867 37.0053 324.891 37.752 325.745 38.648C326.598 39.5013 327.259 40.5253 327.729 41.72C328.198 42.872 328.433 44.216 328.433 45.752C328.433 48.2693 327.985 50.424 327.089 52.216C326.193 53.9653 324.977 55.3733 323.441 56.44C321.905 57.5067 320.134 58.296 318.129 58.808C316.123 59.2773 314.033 59.512 311.857 59.512ZM334.982 67.448L333.126 64.696C333.723 64.312 334.32 63.8 334.918 63.16C335.558 62.5627 336.112 61.9013 336.582 61.176C337.051 60.4933 337.392 59.832 337.606 59.192C336.411 59.1067 335.43 58.7013 334.662 57.976C333.894 57.2507 333.51 56.2693 333.51 55.032C333.552 53.7093 334 52.6853 334.854 51.96C335.75 51.192 336.752 50.808 337.862 50.808C339.312 50.808 340.464 51.3413 341.318 52.408C342.171 53.432 342.598 54.84 342.598 56.632C342.598 58.168 342.235 59.6827 341.51 61.176C340.784 62.6693 339.846 63.9707 338.694 65.08C337.542 66.1893 336.304 66.9787 334.982 67.448Z" fill="#121212"/>
<path d="M372.182 67.808C370.56 66.6987 369.195 65.2267 368.086 63.392C366.976 61.5573 366.144 59.4027 365.59 56.928C365.078 54.4533 364.822 51.744 364.822 48.8C364.822 45.088 365.184 41.3547 365.91 37.6C366.678 33.8027 367.83 30.1973 369.366 26.784C370.902 23.3707 372.864 20.3627 375.254 17.76C377.643 15.1573 380.48 13.1733 383.766 11.808L383.574 12.448C381.44 13.728 379.542 15.4133 377.878 17.504C376.256 19.5947 374.848 21.9627 373.654 24.608C372.459 27.2533 371.478 30.0267 370.71 32.928C369.942 35.8293 369.366 38.7093 368.982 41.568C368.64 44.384 368.47 47.0507 368.47 49.568C368.47 52.3413 368.598 54.9013 368.854 57.248C369.152 59.552 369.579 61.5573 370.134 63.264C370.731 64.9707 371.478 66.2933 372.374 67.232L372.182 67.808ZM387.494 60.64C385.617 60.64 384.06 60.2987 382.822 59.616C381.628 58.8907 380.732 57.9733 380.134 56.864C379.537 55.712 379.238 54.56 379.238 53.408C379.238 52.4693 379.388 51.744 379.686 51.232C379.985 50.72 380.369 50.3573 380.838 50.144C381.308 49.888 381.798 49.76 382.31 49.76C382.31 50.1013 382.31 50.4427 382.31 50.784C382.31 51.0827 382.31 51.3813 382.31 51.68C382.396 53.4293 382.63 54.944 383.014 56.224C383.441 57.4613 384.06 58.4 384.87 59.04C385.724 59.68 386.79 60 388.07 60C389.948 60 391.441 59.296 392.55 57.888C393.66 56.48 394.214 54.5813 394.214 52.192C394.214 51.1253 394.065 50.144 393.766 49.248C393.468 48.3093 392.956 47.4133 392.23 46.56C391.548 45.664 390.588 44.768 389.35 43.872C388.241 43.0187 387.217 42.1653 386.278 41.312C385.382 40.416 384.657 39.4133 384.102 38.304C383.548 37.1947 383.27 35.872 383.27 34.336C383.27 32.416 383.676 30.7733 384.486 29.408C385.34 28 386.47 26.912 387.878 26.144C389.329 25.376 390.95 24.992 392.742 24.992C394.492 24.992 395.9 25.312 396.966 25.952C398.033 26.592 398.801 27.4027 399.27 28.384C399.74 29.3653 399.974 30.3893 399.974 31.456C399.974 32.608 399.697 33.44 399.142 33.952C398.588 34.464 397.841 34.72 396.902 34.72C396.902 34.336 396.902 33.9733 396.902 33.632C396.902 33.248 396.902 32.864 396.902 32.48C396.86 30.304 396.518 28.6187 395.878 27.424C395.281 26.2293 394.129 25.632 392.422 25.632C390.758 25.632 389.329 26.2933 388.134 27.616C386.94 28.896 386.342 30.6667 386.342 32.928C386.342 34.1227 386.534 35.1467 386.918 36C387.302 36.8533 387.878 37.6427 388.646 38.368C389.457 39.0507 390.417 39.84 391.526 40.736C392.678 41.5893 393.681 42.4427 394.534 43.296C395.43 44.1493 396.113 45.152 396.582 46.304C397.052 47.4133 397.286 48.7787 397.286 50.4C397.286 52.3627 396.902 54.1333 396.134 55.712C395.366 57.248 394.236 58.464 392.742 59.36C391.292 60.2133 389.542 60.64 387.494 60.64ZM408.101 60.64C406.992 60.64 406.075 60.4053 405.349 59.936C404.624 59.4667 404.069 58.8267 403.685 58.016C403.344 57.2053 403.173 56.288 403.173 55.264C403.173 54.624 403.195 54.0053 403.237 53.408C403.323 52.768 403.429 52 403.557 51.104C403.728 50.208 403.963 49.0773 404.261 47.712L408.677 26.336H404.197L404.261 26.016C405.157 26.016 406.053 25.9307 406.949 25.76C407.845 25.5467 408.699 25.1627 409.509 24.608C410.363 24.0533 411.152 23.2427 411.877 22.176C412.603 21.0667 413.243 19.616 413.797 17.824H414.437L412.773 25.696H418.213L418.085 26.336H412.645L407.781 49.312C407.483 50.7627 407.248 51.9147 407.077 52.768C406.949 53.6213 406.864 54.304 406.821 54.816C406.779 55.2853 406.757 55.712 406.757 56.096C406.757 57.2907 406.928 58.1867 407.269 58.784C407.653 59.3813 408.315 59.68 409.253 59.68C410.064 59.68 410.853 59.5093 411.621 59.168C412.432 58.8267 413.243 58.3573 414.053 57.76L414.245 58.336C413.264 59.0187 412.261 59.5733 411.237 60C410.256 60.4267 409.211 60.64 408.101 60.64ZM424.15 60.64C422.742 60.64 421.59 60.256 420.694 59.488C419.798 58.6773 419.137 57.5467 418.71 56.096C418.284 54.6027 418.07 52.8533 418.07 50.848C418.07 48.7573 418.284 46.5387 418.71 44.192C419.18 41.8453 419.841 39.5413 420.694 37.28C421.548 35.0187 422.614 32.9707 423.894 31.136C425.174 29.2587 426.625 27.7867 428.246 26.72C429.91 25.6107 431.766 25.056 433.814 25.056C435.18 25.056 436.31 25.312 437.206 25.824C438.102 26.336 438.828 26.912 439.382 27.552L441.942 25.76H442.454L437.846 47.392C437.718 48.2027 437.548 49.1627 437.334 50.272C437.164 51.3813 436.993 52.4907 436.822 53.6C436.694 54.6667 436.63 55.5627 436.63 56.288C436.63 57.312 436.801 58.1013 437.142 58.656C437.484 59.2107 437.996 59.488 438.678 59.488C439.276 59.488 439.873 59.296 440.47 58.912C441.068 58.528 441.708 57.9733 442.39 57.248L442.774 57.76C442.305 58.272 441.793 58.7413 441.238 59.168C440.684 59.5947 440.086 59.936 439.446 60.192C438.806 60.4907 438.06 60.64 437.206 60.64C435.841 60.64 434.838 60.2133 434.198 59.36C433.601 58.5067 433.302 57.3333 433.302 55.84C433.302 54.816 433.388 53.7493 433.558 52.64C433.729 51.5307 433.9 50.4213 434.07 49.312H433.878C432.342 53.4507 430.764 56.3733 429.142 58.08C427.521 59.7867 425.857 60.64 424.15 60.64ZM425.238 59.68C426.22 59.68 427.201 59.1893 428.182 58.208C429.164 57.184 430.102 55.84 430.998 54.176C431.937 52.4693 432.769 50.5707 433.494 48.48C434.22 46.3467 434.817 44.1493 435.286 41.888L438.166 28.064C437.74 27.2533 437.142 26.656 436.374 26.272C435.649 25.888 434.881 25.696 434.07 25.696C432.577 25.696 431.19 26.272 429.91 27.424C428.673 28.576 427.542 30.112 426.518 32.032C425.537 33.9093 424.684 36.0213 423.958 38.368C423.276 40.672 422.742 42.9973 422.358 45.344C422.017 47.6907 421.846 49.8667 421.846 51.872C421.846 53.7067 421.974 55.2 422.23 56.352C422.529 57.504 422.934 58.3573 423.446 58.912C423.958 59.424 424.556 59.68 425.238 59.68ZM439.313 75.36C438.503 75.36 437.671 75.2533 436.817 75.04C435.964 74.8693 435.26 74.6133 434.705 74.272L434.961 73.632C435.516 73.9307 436.156 74.1867 436.881 74.4C437.564 74.6133 438.353 74.72 439.249 74.72C440.871 74.72 442.343 74.4853 443.665 74.016C445.031 73.5893 446.289 72.864 447.441 71.84C448.593 70.8587 449.745 69.536 450.897 67.872C452.049 66.208 453.265 64.16 454.545 61.728L448.337 29.088C448.124 27.8507 447.847 27.0827 447.505 26.784C447.207 26.4853 446.652 26.336 445.841 26.336H445.201L445.329 25.696H451.665L455.825 48.416C455.953 49.184 456.081 49.9733 456.209 50.784C456.337 51.552 456.465 52.32 456.593 53.088C456.721 53.856 456.828 54.624 456.913 55.392C457.041 56.16 457.148 56.8853 457.233 57.568H457.425C458.577 55.6053 459.708 53.6 460.817 51.552C461.927 49.504 462.908 47.4133 463.761 45.28C464.657 43.1467 465.361 40.9493 465.873 38.688C466.428 36.384 466.705 34.0373 466.705 31.648C466.705 30.5387 466.556 29.6853 466.257 29.088C465.959 28.4907 465.575 28.1067 465.105 27.936C464.636 27.7227 464.145 27.616 463.633 27.616C463.633 26.8907 463.847 26.3147 464.273 25.888C464.7 25.4187 465.255 25.184 465.937 25.184C466.748 25.184 467.388 25.5467 467.857 26.272C468.369 26.9973 468.625 28.192 468.625 29.856C468.625 32.544 468.177 35.3173 467.281 38.176C466.428 41.0347 465.255 43.9787 463.761 47.008C462.311 50.0373 460.668 53.216 458.833 56.544C456.913 59.9573 455.228 62.8587 453.777 65.248C452.327 67.6373 450.897 69.5787 449.489 71.072C448.081 72.5653 446.567 73.6533 444.945 74.336C443.367 75.0187 441.489 75.36 439.313 75.36ZM477.682 60.64C475.804 60.64 474.247 60.2987 473.01 59.616C471.815 58.8907 470.919 57.9733 470.322 56.864C469.724 55.712 469.426 54.56 469.426 53.408C469.426 52.4693 469.575 51.744 469.874 51.232C470.172 50.72 470.556 50.3573 471.026 50.144C471.495 49.888 471.986 49.76 472.498 49.76C472.498 50.1013 472.498 50.4427 472.498 50.784C472.498 51.0827 472.498 51.3813 472.498 51.68C472.583 53.4293 472.818 54.944 473.202 56.224C473.628 57.4613 474.247 58.4 475.058 59.04C475.911 59.68 476.978 60 478.258 60C480.135 60 481.628 59.296 482.738 57.888C483.847 56.48 484.402 54.5813 484.402 52.192C484.402 51.1253 484.252 50.144 483.954 49.248C483.655 48.3093 483.143 47.4133 482.418 46.56C481.735 45.664 480.775 44.768 479.538 43.872C478.428 43.0187 477.404 42.1653 476.466 41.312C475.57 40.416 474.844 39.4133 474.29 38.304C473.735 37.1947 473.458 35.872 473.458 34.336C473.458 32.416 473.863 30.7733 474.674 29.408C475.527 28 476.658 26.912 478.066 26.144C479.516 25.376 481.138 24.992 482.93 24.992C484.679 24.992 486.087 25.312 487.154 25.952C488.22 26.592 488.988 27.4027 489.458 28.384C489.927 29.3653 490.162 30.3893 490.162 31.456C490.162 32.608 489.884 33.44 489.33 33.952C488.775 34.464 488.028 34.72 487.09 34.72C487.09 34.336 487.09 33.9733 487.09 33.632C487.09 33.248 487.09 32.864 487.09 32.48C487.047 30.304 486.706 28.6187 486.066 27.424C485.468 26.2293 484.316 25.632 482.61 25.632C480.946 25.632 479.516 26.2933 478.322 27.616C477.127 28.896 476.53 30.6667 476.53 32.928C476.53 34.1227 476.722 35.1467 477.106 36C477.49 36.8533 478.066 37.6427 478.834 38.368C479.644 39.0507 480.604 39.84 481.714 40.736C482.866 41.5893 483.868 42.4427 484.722 43.296C485.618 44.1493 486.3 45.152 486.77 46.304C487.239 47.4133 487.474 48.7787 487.474 50.4C487.474 52.3627 487.09 54.1333 486.322 55.712C485.554 57.248 484.423 58.464 482.93 59.36C481.479 60.2133 479.73 60.64 477.682 60.64ZM486.897 67.04C489.03 65.8027 490.907 64.1387 492.529 62.048C494.193 59.9573 495.622 57.5893 496.817 54.944C498.011 52.2987 498.993 49.5253 499.761 46.624C500.529 43.7227 501.083 40.8427 501.425 37.984C501.809 35.1253 502.001 32.4373 502.001 29.92C502.001 27.104 501.851 24.544 501.553 22.24C501.297 19.936 500.87 17.952 500.273 16.288C499.718 14.5813 498.993 13.2587 498.097 12.32L498.289 11.744C499.91 12.8107 501.275 14.2827 502.385 16.16C503.494 17.9947 504.305 20.1493 504.817 22.624C505.371 25.0987 505.649 27.808 505.649 30.752C505.649 34.4213 505.265 38.1547 504.497 41.952C503.771 45.7067 502.641 49.2907 501.105 52.704C499.569 56.1173 497.606 59.1253 495.217 61.728C492.827 64.3307 489.99 66.3147 486.705 67.68L486.897 67.04Z" fill="#121212"/>
</g>
</svg>
