<svg width="320" height="76" viewBox="0 0 320 76" fill="none" xmlns="http://www.w3.org/2000/svg">
<g opacity="0.05">
<path d="M-177.048 59L-188.952 13.752H-181.336L-171.864 52.472L-162.584 13.752H-152.92L-143.704 52.472L-134.232 13.752H-127L-138.84 59H-148.696L-157.912 20.92L-167.128 59H-177.048ZM-121.969 59V13.752H-115.185V33.656H-92.5292V13.752H-85.7452V59H-92.5292V39.864H-115.185V59H-121.969ZM-80.9582 59L-63.8702 13.752H-55.1022L-38.0782 59H-45.3742L-48.7022 49.912H-70.3342L-73.6622 59H-80.9582ZM-68.0942 43.832H-50.9422L-59.5182 20.216L-68.0942 43.832ZM-26.7397 59V19.96H-41.0757V13.752H-5.68375V19.96H-19.9557V59H-26.7397ZM16.0308 59V13.752H47.0708V19.96H22.8148V35.128H43.7428V41.4H22.8148V59H16.0308ZM53.4683 59V13.752H60.2523V59H53.4683ZM79.6978 59V19.96H65.3618V13.752H100.754V19.96H86.4818V59H79.6978ZM121.857 59.512C118.913 59.512 116.139 59.0853 113.537 58.232C110.934 57.3787 108.737 55.992 106.945 54.072C105.153 52.152 103.958 49.6133 103.361 46.456H110.337C110.891 48.248 111.787 49.656 113.025 50.68C114.262 51.6613 115.691 52.344 117.313 52.728C118.977 53.112 120.641 53.304 122.305 53.304C123.883 53.304 125.355 53.0907 126.721 52.664C128.129 52.2373 129.281 51.5333 130.177 50.552C131.073 49.5707 131.521 48.2907 131.521 46.712C131.521 45.5173 131.286 44.536 130.817 43.768C130.347 43 129.686 42.3813 128.833 41.912C128.022 41.4 127.041 40.9947 125.889 40.696C124.566 40.2693 123.137 39.9067 121.601 39.608C120.107 39.3093 118.614 38.968 117.121 38.584C115.67 38.2 114.305 37.7093 113.025 37.112C111.958 36.6853 110.913 36.1733 109.889 35.576C108.907 34.936 108.054 34.1893 107.329 33.336C106.603 32.44 106.006 31.3947 105.537 30.2C105.11 29.0053 104.897 27.64 104.897 26.104C104.897 24.056 105.217 22.3067 105.857 20.856C106.539 19.4053 107.414 18.1893 108.481 17.208C109.59 16.2267 110.849 15.4587 112.257 14.904C113.707 14.3067 115.222 13.88 116.801 13.624C118.379 13.368 119.915 13.24 121.409 13.24C124.139 13.24 126.657 13.6667 128.961 14.52C131.265 15.3733 133.163 16.7387 134.657 18.616C136.193 20.4507 137.025 22.8827 137.153 25.912H130.561C130.39 24.2907 129.835 23.0107 128.897 22.072C128.001 21.0907 126.87 20.408 125.505 20.024C124.139 19.5973 122.689 19.384 121.153 19.384C120.043 19.384 118.934 19.4907 117.825 19.704C116.715 19.8747 115.691 20.216 114.753 20.728C113.857 21.1973 113.131 21.8373 112.577 22.648C112.065 23.4587 111.809 24.4613 111.809 25.656C111.809 26.68 112.022 27.5973 112.449 28.408C112.875 29.176 113.473 29.8373 114.241 30.392C115.051 30.904 115.947 31.352 116.929 31.736C118.721 32.4187 120.683 32.952 122.817 33.336C124.95 33.6773 126.955 34.168 128.833 34.808C130.198 35.2347 131.478 35.768 132.673 36.408C133.867 37.0053 134.891 37.752 135.745 38.648C136.598 39.5013 137.259 40.5253 137.729 41.72C138.198 42.872 138.433 44.216 138.433 45.752C138.433 48.2693 137.985 50.424 137.089 52.216C136.193 53.9653 134.977 55.3733 133.441 56.44C131.905 57.5067 130.134 58.296 128.129 58.808C126.123 59.2773 124.033 59.512 121.857 59.512ZM144.982 67.448L143.126 64.696C143.723 64.312 144.32 63.8 144.918 63.16C145.558 62.5627 146.112 61.9013 146.582 61.176C147.051 60.4933 147.392 59.832 147.606 59.192C146.411 59.1067 145.43 58.7013 144.662 57.976C143.894 57.2507 143.51 56.2693 143.51 55.032C143.552 53.7093 144 52.6853 144.854 51.96C145.75 51.192 146.752 50.808 147.862 50.808C149.312 50.808 150.464 51.3413 151.318 52.408C152.171 53.432 152.598 54.84 152.598 56.632C152.598 58.168 152.235 59.6827 151.51 61.176C150.784 62.6693 149.846 63.9707 148.694 65.08C147.542 66.1893 146.304 66.9787 144.982 67.448Z" fill="#121212"/>
<path d="M182.088 67.808C180.467 66.6987 179.101 65.2267 177.992 63.392C176.883 61.5573 176.051 59.4027 175.496 56.928C174.984 54.4533 174.728 51.744 174.728 48.8C174.728 45.088 175.091 41.3547 175.816 37.6C176.584 33.8027 177.736 30.1973 179.272 26.784C180.808 23.3707 182.771 20.3627 185.16 17.76C187.549 15.1573 190.387 13.1733 193.672 11.808L193.48 12.448C191.347 13.728 189.448 15.4133 187.784 17.504C186.163 19.5947 184.755 21.9627 183.56 24.608C182.365 27.2533 181.384 30.0267 180.616 32.928C179.848 35.8293 179.272 38.7093 178.888 41.568C178.547 44.384 178.376 47.0507 178.376 49.568C178.376 52.3413 178.504 54.9013 178.76 57.248C179.059 59.552 179.485 61.5573 180.04 63.264C180.637 64.9707 181.384 66.2933 182.28 67.232L182.088 67.808ZM182.296 75.36C181.656 75.36 181.059 75.296 180.504 75.168C179.95 75.0827 179.502 74.976 179.16 74.848L179.352 74.272C179.651 74.3573 180.035 74.4427 180.504 74.528C180.931 74.656 181.358 74.72 181.784 74.72C182.766 74.72 183.619 74.3787 184.344 73.696C185.07 73.056 185.752 71.8613 186.392 70.112C186.99 68.4053 187.608 65.9307 188.248 62.688L195.929 26.336H191.513L191.641 26.016L196.057 25.696L196.825 22.112C197.635 18.4 198.83 15.584 200.409 13.664C201.987 11.7013 204.206 10.72 207.065 10.72C208.217 10.72 209.198 10.8693 210.009 11.168C210.819 11.4667 211.459 11.872 211.929 12.384L215.065 11.36H216.153L208.089 48.864C207.918 49.8027 207.747 50.7627 207.577 51.744C207.406 52.7253 207.278 53.6427 207.193 54.496C207.107 55.3067 207.065 56.0107 207.065 56.608C207.065 57.8027 207.257 58.6133 207.641 59.04C208.025 59.4667 208.537 59.68 209.177 59.68C210.073 59.68 210.862 59.3813 211.545 58.784C212.27 58.144 212.867 57.5467 213.337 56.992L213.785 57.504C213.059 58.4427 212.249 59.1893 211.353 59.744C210.457 60.2987 209.39 60.576 208.153 60.576C206.787 60.576 205.635 60.192 204.697 59.424C203.801 58.6133 203.353 57.2053 203.353 55.2C203.353 54.6027 203.395 53.9627 203.481 53.28C203.566 52.5547 203.694 51.744 203.865 50.848C204.035 49.952 204.227 48.9493 204.441 47.84L210.905 16.928C210.862 14.8373 210.542 13.3867 209.945 12.576C209.347 11.7653 208.494 11.36 207.385 11.36C205.593 11.36 204.249 12.1493 203.353 13.728C202.499 15.264 201.71 17.6107 200.985 20.768L199.961 25.696H205.529L205.401 26.336H199.833L192.409 61.408C191.811 64.2667 191.15 66.592 190.424 68.384C189.742 70.2187 188.974 71.6267 188.12 72.608C187.267 73.632 186.371 74.336 185.432 74.72C184.451 75.1467 183.406 75.36 182.296 75.36ZM226.696 60.64C224.008 60.64 221.832 59.6587 220.168 57.696C218.546 55.6907 217.736 52.64 217.736 48.544C217.736 46.6667 217.928 44.6613 218.312 42.528C218.738 40.3947 219.357 38.304 220.168 36.256C220.978 34.208 221.981 32.3307 223.176 30.624C224.413 28.9173 225.842 27.5733 227.464 26.592C229.128 25.568 230.984 25.056 233.032 25.056C234.696 25.056 236.189 25.4827 237.512 26.336C238.877 27.1467 239.944 28.448 240.712 30.24C241.522 31.9893 241.928 34.336 241.928 37.28C241.928 39.1147 241.714 41.0773 241.288 43.168C240.904 45.2587 240.306 47.3493 239.496 49.44C238.728 51.488 237.725 53.3653 236.488 55.072C235.293 56.7787 233.864 58.144 232.2 59.168C230.578 60.1493 228.744 60.64 226.696 60.64ZM226.888 60C228.338 60 229.661 59.5093 230.856 58.528C232.093 57.504 233.16 56.16 234.056 54.496C234.994 52.7893 235.762 50.8907 236.36 48.8C236.957 46.7093 237.405 44.5547 237.704 42.336C238.045 40.0747 238.216 37.92 238.216 35.872C238.216 33.5253 238.002 31.6053 237.576 30.112C237.192 28.6187 236.594 27.5093 235.784 26.784C234.973 26.0587 233.97 25.696 232.776 25.696C231.368 25.696 230.066 26.1867 228.872 27.168C227.72 28.1493 226.674 29.472 225.736 31.136C224.797 32.8 223.986 34.6773 223.304 36.768C222.664 38.8587 222.173 41.056 221.832 43.36C221.533 45.6213 221.384 47.84 221.384 50.016C221.384 53.6853 221.853 56.2667 222.792 57.76C223.773 59.2533 225.138 60 226.888 60ZM265.08 60.832C265.08 59.2533 265.101 57.2907 265.144 54.944C265.187 52.5973 265.229 50.1013 265.272 47.456C265.315 44.768 265.336 42.1653 265.336 39.648C265.379 37.1307 265.421 34.8907 265.464 32.928C265.507 30.9653 265.507 29.536 265.464 28.64C264.952 29.92 264.355 31.4133 263.672 33.12C263.032 34.784 262.307 36.576 261.496 38.496C260.728 40.3733 259.917 42.3147 259.064 44.32C258.253 46.2827 257.421 48.224 256.568 50.144C255.757 52.0213 254.968 53.8347 254.2 55.584C253.475 57.2907 252.813 58.8053 252.216 60.128L248.568 60.704L249.144 30.048C249.187 28.896 249.144 28.064 249.016 27.552C248.931 27.04 248.717 26.72 248.376 26.592C248.035 26.4213 247.544 26.336 246.904 26.336H245.88L246.072 25.696H252.856C252.813 27.488 252.749 29.5147 252.664 31.776C252.621 34.0373 252.579 36.4053 252.536 38.88C252.493 41.312 252.429 43.744 252.344 46.176C252.301 48.5653 252.259 50.8267 252.216 52.96C252.173 55.0507 252.131 56.8853 252.088 58.464H252.28C252.963 57.056 253.731 55.3067 254.584 53.216C255.48 51.1253 256.44 48.864 257.464 46.432C258.531 44 259.555 41.5467 260.536 39.072C261.56 36.5973 262.52 34.2507 263.416 32.032C264.312 29.8133 265.08 27.8933 265.72 26.272L268.472 26.016C268.515 27.296 268.536 29.0453 268.536 31.264C268.579 33.4827 268.6 35.936 268.6 38.624C268.643 41.2693 268.643 43.9147 268.6 46.56C268.6 49.1627 268.579 51.552 268.536 53.728C268.536 55.8613 268.536 57.5253 268.536 58.72H268.792C271.437 54.5387 273.699 50.8267 275.576 47.584C277.453 44.3413 278.883 41.376 279.864 38.688C280.888 36 281.4 33.3973 281.4 30.88C281.4 29.5573 281.187 28.64 280.76 28.128C280.333 27.5733 279.587 27.296 278.52 27.296C278.563 26.4427 278.776 25.8667 279.16 25.568C279.544 25.2267 280.013 25.056 280.568 25.056C281.379 25.056 281.976 25.4187 282.36 26.144C282.787 26.8693 283 27.9787 283 29.472C283 31.264 282.68 33.2267 282.04 35.36C281.4 37.4933 280.44 39.8187 279.16 42.336C277.88 44.8107 276.323 47.5413 274.488 50.528C272.696 53.472 270.627 56.6933 268.28 60.192L265.08 60.832ZM291.776 60.64C289.898 60.64 288.341 60.2987 287.104 59.616C285.909 58.8907 285.013 57.9733 284.416 56.864C283.818 55.712 283.52 54.56 283.52 53.408C283.52 52.4693 283.669 51.744 283.968 51.232C284.266 50.72 284.65 50.3573 285.12 50.144C285.589 49.888 286.08 49.76 286.592 49.76C286.592 50.1013 286.592 50.4427 286.592 50.784C286.592 51.0827 286.592 51.3813 286.592 51.68C286.677 53.4293 286.912 54.944 287.296 56.224C287.722 57.4613 288.341 58.4 289.152 59.04C290.005 59.68 291.072 60 292.352 60C294.229 60 295.722 59.296 296.832 57.888C297.941 56.48 298.496 54.5813 298.496 52.192C298.496 51.1253 298.346 50.144 298.048 49.248C297.749 48.3093 297.237 47.4133 296.512 46.56C295.829 45.664 294.869 44.768 293.632 43.872C292.522 43.0187 291.498 42.1653 290.56 41.312C289.664 40.416 288.938 39.4133 288.384 38.304C287.829 37.1947 287.552 35.872 287.552 34.336C287.552 32.416 287.957 30.7733 288.768 29.408C289.621 28 290.752 26.912 292.16 26.144C293.61 25.376 295.232 24.992 297.024 24.992C298.773 24.992 300.181 25.312 301.248 25.952C302.314 26.592 303.082 27.4027 303.552 28.384C304.021 29.3653 304.256 30.3893 304.256 31.456C304.256 32.608 303.978 33.44 303.424 33.952C302.869 34.464 302.122 34.72 301.184 34.72C301.184 34.336 301.184 33.9733 301.184 33.632C301.184 33.248 301.184 32.864 301.184 32.48C301.141 30.304 300.8 28.6187 300.16 27.424C299.562 26.2293 298.41 25.632 296.704 25.632C295.04 25.632 293.61 26.2933 292.416 27.616C291.221 28.896 290.624 30.6667 290.624 32.928C290.624 34.1227 290.816 35.1467 291.2 36C291.584 36.8533 292.16 37.6427 292.928 38.368C293.738 39.0507 294.698 39.84 295.808 40.736C296.96 41.5893 297.962 42.4427 298.816 43.296C299.712 44.1493 300.394 45.152 300.864 46.304C301.333 47.4133 301.568 48.7787 301.568 50.4C301.568 52.3627 301.184 54.1333 300.416 55.712C299.648 57.248 298.517 58.464 297.024 59.36C295.573 60.2133 293.824 60.64 291.776 60.64ZM300.99 67.04C303.124 65.8027 305.001 64.1387 306.623 62.048C308.287 59.9573 309.716 57.5893 310.911 54.944C312.105 52.2987 313.087 49.5253 313.855 46.624C314.623 43.7227 315.177 40.8427 315.519 37.984C315.903 35.1253 316.095 32.4373 316.095 29.92C316.095 27.104 315.945 24.544 315.647 22.24C315.391 19.936 314.964 17.952 314.367 16.288C313.812 14.5813 313.087 13.2587 312.191 12.32L312.383 11.744C314.004 12.8107 315.369 14.2827 316.479 16.16C317.588 17.9947 318.399 20.1493 318.911 22.624C319.465 25.0987 319.743 27.808 319.743 30.752C319.743 34.4213 319.359 38.1547 318.591 41.952C317.865 45.7067 316.735 49.2907 315.199 52.704C313.663 56.1173 311.7 59.1253 309.311 61.728C306.921 64.3307 304.084 66.3147 300.798 67.68L300.99 67.04Z" fill="#121212"/>
</g>
</svg>
