<svg width="450" height="76" viewBox="0 0 450 76" fill="none" xmlns="http://www.w3.org/2000/svg">
<g opacity="0.05">
<path d="M12.9518 59L1.04775 13.752H8.66375L18.1358 52.472L27.4158 13.752H37.0798L46.2958 52.472L55.7678 13.752H62.9998L51.1598 59H41.3038L32.0878 20.92L22.8718 59H12.9518ZM68.0308 59V13.752H74.8148V33.656H97.4708V13.752H104.255V59H97.4708V39.864H74.8148V59H68.0308ZM109.042 59L126.13 13.752H134.898L151.922 59H144.626L141.298 49.912H119.666L116.338 59H109.042ZM121.906 43.832H139.058L130.482 20.216L121.906 43.832ZM163.26 59V19.96H148.924V13.752H184.316V19.96H170.044V59H163.26ZM206.031 59V13.752H237.071V19.96H212.815V35.128H233.743V41.4H212.815V59H206.031ZM243.468 59V13.752H250.252V59H243.468ZM269.698 59V19.96H255.362V13.752H290.754V19.96H276.482V59H269.698ZM311.857 59.512C308.913 59.512 306.139 59.0853 303.537 58.232C300.934 57.3787 298.737 55.992 296.945 54.072C295.153 52.152 293.958 49.6133 293.361 46.456H300.337C300.891 48.248 301.787 49.656 303.025 50.68C304.262 51.6613 305.691 52.344 307.313 52.728C308.977 53.112 310.641 53.304 312.305 53.304C313.883 53.304 315.355 53.0907 316.721 52.664C318.129 52.2373 319.281 51.5333 320.177 50.552C321.073 49.5707 321.521 48.2907 321.521 46.712C321.521 45.5173 321.286 44.536 320.817 43.768C320.347 43 319.686 42.3813 318.833 41.912C318.022 41.4 317.041 40.9947 315.889 40.696C314.566 40.2693 313.137 39.9067 311.601 39.608C310.107 39.3093 308.614 38.968 307.121 38.584C305.67 38.2 304.305 37.7093 303.025 37.112C301.958 36.6853 300.913 36.1733 299.889 35.576C298.907 34.936 298.054 34.1893 297.329 33.336C296.603 32.44 296.006 31.3947 295.537 30.2C295.11 29.0053 294.897 27.64 294.897 26.104C294.897 24.056 295.217 22.3067 295.857 20.856C296.539 19.4053 297.414 18.1893 298.481 17.208C299.59 16.2267 300.849 15.4587 302.257 14.904C303.707 14.3067 305.222 13.88 306.801 13.624C308.379 13.368 309.915 13.24 311.409 13.24C314.139 13.24 316.657 13.6667 318.961 14.52C321.265 15.3733 323.163 16.7387 324.657 18.616C326.193 20.4507 327.025 22.8827 327.153 25.912H320.561C320.39 24.2907 319.835 23.0107 318.897 22.072C318.001 21.0907 316.87 20.408 315.505 20.024C314.139 19.5973 312.689 19.384 311.153 19.384C310.043 19.384 308.934 19.4907 307.825 19.704C306.715 19.8747 305.691 20.216 304.753 20.728C303.857 21.1973 303.131 21.8373 302.577 22.648C302.065 23.4587 301.809 24.4613 301.809 25.656C301.809 26.68 302.022 27.5973 302.449 28.408C302.875 29.176 303.473 29.8373 304.241 30.392C305.051 30.904 305.947 31.352 306.929 31.736C308.721 32.4187 310.683 32.952 312.817 33.336C314.95 33.6773 316.955 34.168 318.833 34.808C320.198 35.2347 321.478 35.768 322.673 36.408C323.867 37.0053 324.891 37.752 325.745 38.648C326.598 39.5013 327.259 40.5253 327.729 41.72C328.198 42.872 328.433 44.216 328.433 45.752C328.433 48.2693 327.985 50.424 327.089 52.216C326.193 53.9653 324.977 55.3733 323.441 56.44C321.905 57.5067 320.134 58.296 318.129 58.808C316.123 59.2773 314.033 59.512 311.857 59.512ZM334.982 67.448L333.126 64.696C333.723 64.312 334.32 63.8 334.918 63.16C335.558 62.5627 336.112 61.9013 336.582 61.176C337.051 60.4933 337.392 59.832 337.606 59.192C336.411 59.1067 335.43 58.7013 334.662 57.976C333.894 57.2507 333.51 56.2693 333.51 55.032C333.552 53.7093 334 52.6853 334.854 51.96C335.75 51.192 336.752 50.808 337.862 50.808C339.312 50.808 340.464 51.3413 341.318 52.408C342.171 53.432 342.598 54.84 342.598 56.632C342.598 58.168 342.235 59.6827 341.51 61.176C340.784 62.6693 339.846 63.9707 338.694 65.08C337.542 66.1893 336.304 66.9787 334.982 67.448Z" fill="#121212"/>
<path d="M372.276 67.808C370.654 66.6987 369.289 65.2267 368.18 63.392C367.07 61.5573 366.238 59.4027 365.684 56.928C365.172 54.4533 364.916 51.744 364.916 48.8C364.916 45.088 365.278 41.3547 366.004 37.6C366.772 33.8027 367.924 30.1973 369.46 26.784C370.996 23.3707 372.958 20.3627 375.348 17.76C377.737 15.1573 380.574 13.1733 383.86 11.808L383.668 12.448C381.534 13.728 379.636 15.4133 377.972 17.504C376.35 19.5947 374.942 21.9627 373.748 24.608C372.553 27.2533 371.572 30.0267 370.804 32.928C370.036 35.8293 369.46 38.7093 369.076 41.568C368.734 44.384 368.564 47.0507 368.564 49.568C368.564 52.3413 368.692 54.9013 368.948 57.248C369.246 59.552 369.673 61.5573 370.228 63.264C370.825 64.9707 371.572 66.2933 372.468 67.232L372.276 67.808ZM386.372 60.64C384.921 60.64 383.812 60.192 383.044 59.296C382.319 58.4 381.956 57.0987 381.956 55.392C381.956 54.7093 381.999 53.984 382.084 53.216C382.169 52.448 382.297 51.616 382.468 50.72C382.639 49.824 382.831 48.9067 383.044 47.968L386.756 30.176C386.841 29.792 386.905 29.4293 386.948 29.088C386.991 28.704 387.012 28.384 387.012 28.128C387.012 27.5307 386.799 27.0827 386.372 26.784C385.945 26.4853 385.092 26.336 383.812 26.336H382.98L383.108 25.696H391.62L386.244 50.976C386.073 51.8293 385.945 52.5973 385.86 53.28C385.775 53.92 385.711 54.496 385.668 55.008C385.625 55.4773 385.604 55.8827 385.604 56.224C385.604 57.2907 385.732 58.144 385.988 58.784C386.287 59.424 386.82 59.744 387.588 59.744C388.185 59.744 388.804 59.5093 389.444 59.04C390.084 58.528 390.745 57.8667 391.428 57.056L391.876 57.504C391.108 58.4427 390.297 59.2107 389.444 59.808C388.633 60.3627 387.609 60.64 386.372 60.64ZM390.852 17.312C390.255 17.312 389.721 17.1413 389.252 16.8C388.825 16.416 388.612 15.8187 388.612 15.008C388.612 14.4107 388.74 13.8987 388.996 13.472C389.252 13.0453 389.593 12.704 390.02 12.448C390.489 12.192 390.98 12.064 391.492 12.064C392.132 12.064 392.665 12.2347 393.092 12.576C393.519 12.9173 393.732 13.4933 393.732 14.304C393.732 15.2427 393.455 15.9893 392.9 16.544C392.345 17.056 391.663 17.312 390.852 17.312ZM401.463 60.64C399.586 60.64 398.028 60.2987 396.791 59.616C395.596 58.8907 394.7 57.9733 394.103 56.864C393.506 55.712 393.207 54.56 393.207 53.408C393.207 52.4693 393.356 51.744 393.655 51.232C393.954 50.72 394.338 50.3573 394.807 50.144C395.276 49.888 395.767 49.76 396.279 49.76C396.279 50.1013 396.279 50.4427 396.279 50.784C396.279 51.0827 396.279 51.3813 396.279 51.68C396.364 53.4293 396.599 54.944 396.983 56.224C397.41 57.4613 398.028 58.4 398.839 59.04C399.692 59.68 400.759 60 402.039 60C403.916 60 405.41 59.296 406.519 57.888C407.628 56.48 408.183 54.5813 408.183 52.192C408.183 51.1253 408.034 50.144 407.735 49.248C407.436 48.3093 406.924 47.4133 406.199 46.56C405.516 45.664 404.556 44.768 403.319 43.872C402.21 43.0187 401.186 42.1653 400.247 41.312C399.351 40.416 398.626 39.4133 398.071 38.304C397.516 37.1947 397.239 35.872 397.239 34.336C397.239 32.416 397.644 30.7733 398.455 29.408C399.308 28 400.439 26.912 401.847 26.144C403.298 25.376 404.919 24.992 406.711 24.992C408.46 24.992 409.868 25.312 410.935 25.952C412.002 26.592 412.77 27.4027 413.239 28.384C413.708 29.3653 413.943 30.3893 413.943 31.456C413.943 32.608 413.666 33.44 413.111 33.952C412.556 34.464 411.81 34.72 410.871 34.72C410.871 34.336 410.871 33.9733 410.871 33.632C410.871 33.248 410.871 32.864 410.871 32.48C410.828 30.304 410.487 28.6187 409.847 27.424C409.25 26.2293 408.098 25.632 406.391 25.632C404.727 25.632 403.298 26.2933 402.103 27.616C400.908 28.896 400.311 30.6667 400.311 32.928C400.311 34.1227 400.503 35.1467 400.887 36C401.271 36.8533 401.847 37.6427 402.615 38.368C403.426 39.0507 404.386 39.84 405.495 40.736C406.647 41.5893 407.65 42.4427 408.503 43.296C409.399 44.1493 410.082 45.152 410.551 46.304C411.02 47.4133 411.255 48.7787 411.255 50.4C411.255 52.3627 410.871 54.1333 410.103 55.712C409.335 57.248 408.204 58.464 406.711 59.36C405.26 60.2133 403.511 60.64 401.463 60.64ZM433.798 60.64C432.39 60.64 431.259 60.2133 430.406 59.36C429.595 58.464 428.998 57.2907 428.614 55.84C428.272 54.3467 428.102 52.704 428.102 50.912C428.102 48.736 428.315 46.4747 428.742 44.128C429.211 41.7387 429.872 39.4347 430.726 37.216C431.579 34.9547 432.624 32.9067 433.862 31.072C435.099 29.2373 436.507 27.7867 438.086 26.72C439.707 25.6107 441.478 25.056 443.398 25.056C444.592 25.056 445.574 25.248 446.342 25.632C447.152 26.016 447.856 26.5707 448.454 27.296C448.582 26.4 448.752 25.4613 448.966 24.48C449.179 23.456 449.328 22.6667 449.414 22.112L450.758 15.712C450.843 15.2853 450.907 14.9013 450.95 14.56C450.992 14.176 451.014 13.8773 451.014 13.664C451.014 13.152 450.843 12.7467 450.502 12.448C450.16 12.1493 449.478 12 448.454 12H446.918L447.046 11.36H455.558L447.942 47.264C447.771 48.16 447.558 49.1413 447.302 50.208C447.088 51.2747 446.918 52.32 446.79 53.344C446.662 54.368 446.598 55.2427 446.598 55.968C446.598 57.3333 446.79 58.2933 447.174 58.848C447.558 59.4027 448.112 59.68 448.838 59.68C449.52 59.68 450.16 59.4453 450.758 58.976C451.355 58.5067 451.974 57.9093 452.614 57.184L452.998 57.696C452.486 58.2507 451.952 58.7627 451.398 59.232C450.886 59.6587 450.31 60 449.67 60.256C449.03 60.512 448.304 60.64 447.494 60.64C446.128 60.64 445.104 60.2133 444.422 59.36C443.739 58.464 443.398 57.1627 443.398 55.456C443.398 54.4747 443.462 53.4933 443.59 52.512C443.76 51.5307 443.952 50.4427 444.166 49.248H443.91C442.886 52.1493 441.798 54.432 440.646 56.096C439.494 57.76 438.342 58.9333 437.19 59.616C436.038 60.2987 434.907 60.64 433.798 60.64ZM435.206 59.296C436.23 59.296 437.232 58.8053 438.214 57.824C439.238 56.8427 440.176 55.584 441.03 54.048C441.883 52.512 442.608 50.912 443.206 49.248C443.846 47.584 444.294 46.112 444.55 44.832L448.198 28.192C447.814 27.3813 447.238 26.784 446.47 26.4C445.744 25.9733 444.955 25.76 444.102 25.76C442.651 25.76 441.286 26.3147 440.006 27.424C438.768 28.4907 437.638 29.9413 436.614 31.776C435.632 33.6107 434.779 35.6587 434.054 37.92C433.328 40.1813 432.774 42.5067 432.39 44.896C432.006 47.2427 431.814 49.4827 431.814 51.616C431.814 53.4507 431.942 54.944 432.198 56.096C432.496 57.248 432.902 58.08 433.414 58.592C433.926 59.0613 434.523 59.296 435.206 59.296ZM464.827 60.64C462.992 60.64 461.371 60.192 459.963 59.296C458.597 58.3573 457.531 56.992 456.763 55.2C456.037 53.3653 455.674 51.0827 455.674 48.352C455.674 46.432 455.867 44.4053 456.251 42.272C456.677 40.1387 457.296 38.048 458.107 36C458.917 33.952 459.92 32.1173 461.115 30.496C462.352 28.832 463.76 27.5093 465.339 26.528C466.917 25.5467 468.688 25.056 470.651 25.056C472.699 25.056 474.277 25.6747 475.387 26.912C476.496 28.1067 477.051 29.792 477.051 31.968C477.051 34.528 476.389 36.7253 475.067 38.56C473.744 40.352 471.952 41.7387 469.691 42.72C467.429 43.6587 464.912 44.128 462.139 44.128H459.771C459.728 44.3413 459.685 44.7253 459.643 45.28C459.6 45.792 459.557 46.3893 459.515 47.072C459.472 47.712 459.451 48.3307 459.451 48.928C459.451 51.232 459.685 53.216 460.155 54.88C460.624 56.544 461.285 57.8027 462.139 58.656C463.035 59.5093 464.101 59.936 465.339 59.936C467.045 59.936 468.496 59.232 469.691 57.824C470.885 56.3733 471.824 54.6453 472.507 52.64C472.635 52.7253 472.741 52.8747 472.827 53.088C472.955 53.2587 473.019 53.6 473.019 54.112C473.019 55.008 472.677 55.968 471.995 56.992C471.355 57.9733 470.416 58.8267 469.179 59.552C467.941 60.2773 466.491 60.64 464.827 60.64ZM461.627 43.488C463.376 43.488 464.955 43.1893 466.363 42.592C467.813 41.952 469.072 41.0773 470.139 39.968C471.205 38.816 472.016 37.472 472.571 35.936C473.125 34.3573 473.403 32.6507 473.403 30.816C473.403 28.9813 473.125 27.68 472.571 26.912C472.059 26.144 471.227 25.76 470.075 25.76C468.88 25.76 467.749 26.1867 466.683 27.04C465.659 27.8933 464.699 29.1093 463.803 30.688C462.949 32.2667 462.181 34.144 461.499 36.32C460.859 38.496 460.325 40.8853 459.899 43.488H461.627ZM485.526 60.64C483.648 60.64 482.091 60.2987 480.854 59.616C479.659 58.8907 478.763 57.9733 478.166 56.864C477.568 55.712 477.27 54.56 477.27 53.408C477.27 52.4693 477.419 51.744 477.718 51.232C478.016 50.72 478.4 50.3573 478.87 50.144C479.339 49.888 479.83 49.76 480.342 49.76C480.342 50.1013 480.342 50.4427 480.342 50.784C480.342 51.0827 480.342 51.3813 480.342 51.68C480.427 53.4293 480.662 54.944 481.046 56.224C481.472 57.4613 482.091 58.4 482.902 59.04C483.755 59.68 484.822 60 486.102 60C487.979 60 489.472 59.296 490.582 57.888C491.691 56.48 492.246 54.5813 492.246 52.192C492.246 51.1253 492.096 50.144 491.798 49.248C491.499 48.3093 490.987 47.4133 490.262 46.56C489.579 45.664 488.619 44.768 487.382 43.872C486.272 43.0187 485.248 42.1653 484.31 41.312C483.414 40.416 482.688 39.4133 482.134 38.304C481.579 37.1947 481.302 35.872 481.302 34.336C481.302 32.416 481.707 30.7733 482.518 29.408C483.371 28 484.502 26.912 485.91 26.144C487.36 25.376 488.982 24.992 490.774 24.992C492.523 24.992 493.931 25.312 494.998 25.952C496.064 26.592 496.832 27.4027 497.302 28.384C497.771 29.3653 498.006 30.3893 498.006 31.456C498.006 32.608 497.728 33.44 497.174 33.952C496.619 34.464 495.872 34.72 494.934 34.72C494.934 34.336 494.934 33.9733 494.934 33.632C494.934 33.248 494.934 32.864 494.934 32.48C494.891 30.304 494.55 28.6187 493.91 27.424C493.312 26.2293 492.16 25.632 490.454 25.632C488.79 25.632 487.36 26.2933 486.166 27.616C484.971 28.896 484.374 30.6667 484.374 32.928C484.374 34.1227 484.566 35.1467 484.95 36C485.334 36.8533 485.91 37.6427 486.678 38.368C487.488 39.0507 488.448 39.84 489.558 40.736C490.71 41.5893 491.712 42.4427 492.566 43.296C493.462 44.1493 494.144 45.152 494.614 46.304C495.083 47.4133 495.318 48.7787 495.318 50.4C495.318 52.3627 494.934 54.1333 494.166 55.712C493.398 57.248 492.267 58.464 490.774 59.36C489.323 60.2133 487.574 60.64 485.526 60.64ZM505.685 60.64C504.234 60.64 503.125 60.192 502.357 59.296C501.631 58.4 501.269 57.0987 501.269 55.392C501.269 54.7093 501.311 53.984 501.397 53.216C501.482 52.448 501.61 51.616 501.781 50.72C501.951 49.824 502.143 48.9067 502.357 47.968L506.069 30.176C506.154 29.792 506.218 29.4293 506.26 29.088C506.303 28.704 506.325 28.384 506.325 28.128C506.325 27.5307 506.111 27.0827 505.685 26.784C505.258 26.4853 504.405 26.336 503.125 26.336H502.293L502.421 25.696H510.933L505.557 50.976C505.386 51.8293 505.258 52.5973 505.173 53.28C505.087 53.92 505.023 54.496 504.981 55.008C504.938 55.4773 504.917 55.8827 504.917 56.224C504.917 57.2907 505.045 58.144 505.301 58.784C505.599 59.424 506.133 59.744 506.901 59.744C507.498 59.744 508.117 59.5093 508.757 59.04C509.397 58.528 510.058 57.8667 510.741 57.056L511.189 57.504C510.421 58.4427 509.61 59.2107 508.757 59.808C507.946 60.3627 506.922 60.64 505.685 60.64ZM510.165 17.312C509.567 17.312 509.034 17.1413 508.565 16.8C508.138 16.416 507.925 15.8187 507.925 15.008C507.925 14.4107 508.053 13.8987 508.309 13.472C508.565 13.0453 508.906 12.704 509.333 12.448C509.802 12.192 510.293 12.064 510.805 12.064C511.445 12.064 511.978 12.2347 512.405 12.576C512.831 12.9173 513.045 13.4933 513.045 14.304C513.045 15.2427 512.767 15.9893 512.213 16.544C511.658 17.056 510.975 17.312 510.165 17.312ZM518.856 75.36C516.509 75.36 514.546 75.04 512.968 74.4C511.389 73.8027 510.194 72.8853 509.383 71.648C508.573 70.4533 508.167 68.96 508.167 67.168C508.167 65.248 508.594 63.584 509.447 62.176C510.258 60.8107 511.367 59.7227 512.776 58.912C514.226 58.0587 515.869 57.504 517.704 57.248C516.594 56.8213 515.805 56.2453 515.336 55.52C514.866 54.752 514.632 53.9413 514.632 53.088C514.632 51.9787 514.994 50.9333 515.72 49.952C516.488 48.9707 517.917 48.0747 520.008 47.264C518.813 46.5813 517.874 45.6213 517.192 44.384C516.509 43.104 516.168 41.5253 516.168 39.648C516.168 38.112 516.402 36.512 516.872 34.848C517.341 33.184 518.045 31.6053 518.984 30.112C519.965 28.6187 521.181 27.4027 522.632 26.464C524.125 25.5253 525.874 25.056 527.88 25.056C529.032 25.056 530.034 25.2267 530.888 25.568C531.784 25.9093 532.552 26.464 533.192 27.232C533.704 26.592 534.194 25.9947 534.664 25.44C535.176 24.8853 535.688 24.4373 536.2 24.096C536.754 23.7547 537.352 23.584 537.992 23.584C538.802 23.584 539.4 23.84 539.784 24.352C540.168 24.8213 540.36 25.3973 540.36 26.08C540.36 26.72 540.21 27.2747 539.912 27.744C539.656 28.2133 539.165 28.448 538.44 28.448C538.44 27.2107 538.312 26.336 538.056 25.824C537.842 25.312 537.48 25.056 536.968 25.056C536.456 25.056 535.922 25.2907 535.368 25.76C534.856 26.2293 534.28 26.8693 533.64 27.68C533.981 28.192 534.344 28.9813 534.728 30.048C535.112 31.072 535.304 32.3733 535.304 33.952C535.304 35.2747 535.09 36.7467 534.664 38.368C534.28 39.9467 533.618 41.4827 532.68 42.976C531.784 44.4267 530.61 45.6213 529.16 46.56C527.752 47.4987 526.002 47.968 523.912 47.968C523.4 47.968 522.909 47.9467 522.44 47.904C522.013 47.8613 521.65 47.8187 521.352 47.776C521.053 47.6907 520.818 47.6267 520.648 47.584C519.41 48.1813 518.472 48.8213 517.832 49.504C517.234 50.1867 516.936 50.9333 516.936 51.744C516.936 52.64 517.256 53.3013 517.896 53.728C518.578 54.112 519.517 54.368 520.712 54.496L524.552 55.008C526.216 55.1787 527.602 55.6053 528.712 56.288C529.864 56.928 530.738 57.824 531.336 58.976C531.933 60.128 532.232 61.5787 532.232 63.328C532.232 64.864 531.954 66.3573 531.4 67.808C530.888 69.2587 530.077 70.5387 528.968 71.648C527.901 72.8 526.514 73.696 524.808 74.336C523.144 75.0187 521.16 75.36 518.856 75.36ZM519.176 74.72C521.522 74.72 523.421 74.2293 524.872 73.248C526.322 72.2667 527.368 71.0293 528.008 69.536C528.69 68.0427 529.032 66.528 529.032 64.992C529.032 62.944 528.52 61.3867 527.496 60.32C526.514 59.2533 525.106 58.5707 523.272 58.272L518.536 57.568C516.232 58.2507 514.44 59.424 513.16 61.088C511.88 62.752 511.239 64.7573 511.239 67.104C511.239 69.28 511.858 71.0933 513.096 72.544C514.333 73.9947 516.36 74.72 519.176 74.72ZM523.976 47.328C525.085 47.328 526.066 47.0507 526.92 46.496C527.773 45.8987 528.498 45.088 529.096 44.064C529.736 43.04 530.248 41.888 530.632 40.608C531.016 39.328 531.293 37.984 531.464 36.576C531.677 35.1253 531.784 33.6747 531.784 32.224C531.784 30.5173 531.613 29.216 531.272 28.32C530.93 27.3813 530.44 26.72 529.8 26.336C529.202 25.9093 528.477 25.696 527.624 25.696C526.429 25.696 525.384 25.9947 524.488 26.592C523.634 27.1893 522.888 28.0213 522.248 29.088C521.65 30.112 521.138 31.264 520.712 32.544C520.328 33.824 520.05 35.1253 519.88 36.448C519.709 37.7707 519.624 39.0507 519.624 40.288C519.624 42.6347 519.965 44.4053 520.648 45.6C521.373 46.752 522.482 47.328 523.976 47.328ZM558.885 60.64C557.392 60.64 556.261 60.192 555.493 59.296C554.768 58.3573 554.405 57.0347 554.405 55.328C554.405 54.2187 554.512 53.0027 554.725 51.68C554.938 50.3147 555.237 48.8 555.621 47.136L557.541 38.048C557.669 37.4933 557.818 36.8107 557.989 36C558.202 35.1467 558.373 34.2507 558.501 33.312C558.629 32.3307 558.693 31.4773 558.693 30.752C558.693 30.1547 558.629 29.536 558.501 28.896C558.373 28.256 558.117 27.7013 557.733 27.232C557.349 26.7627 556.773 26.528 556.005 26.528C554.938 26.528 553.914 26.9547 552.933 27.808C551.952 28.6613 551.034 29.8133 550.181 31.264C549.328 32.7147 548.56 34.336 547.877 36.128C547.237 37.8773 546.725 39.6267 546.341 41.376L542.373 60H538.533L544.549 31.648C544.677 30.9653 544.784 30.368 544.869 29.856C544.954 29.344 544.997 28.9173 544.997 28.576C544.997 27.808 544.826 27.2533 544.485 26.912C544.144 26.528 543.418 26.336 542.309 26.336H541.669L541.733 25.696H549.413L547.429 35.488H547.557C548.538 33.0133 549.541 31.0293 550.565 29.536C551.632 28 552.72 26.8907 553.829 26.208C554.938 25.5253 556.133 25.184 557.413 25.184C558.65 25.184 559.632 25.4827 560.357 26.08C561.082 26.6347 561.594 27.36 561.893 28.256C562.234 29.152 562.405 30.1547 562.405 31.264C562.405 32.3307 562.277 33.568 562.021 34.976C561.765 36.384 561.488 37.8347 561.189 39.328L559.205 48.608C558.906 50.016 558.65 51.3813 558.437 52.704C558.266 53.984 558.181 55.1787 558.181 56.288C558.181 57.3973 558.33 58.2507 558.629 58.848C558.928 59.4027 559.418 59.68 560.101 59.68C560.485 59.68 560.869 59.5947 561.253 59.424C561.68 59.2107 562.106 58.912 562.533 58.528C562.96 58.144 563.429 57.632 563.941 56.992L564.389 57.504C563.493 58.6133 562.618 59.424 561.765 59.936C560.954 60.4053 559.994 60.64 558.885 60.64ZM561.803 67.04C563.936 65.8027 565.814 64.1387 567.435 62.048C569.099 59.9573 570.528 57.5893 571.723 54.944C572.918 52.2987 573.899 49.5253 574.667 46.624C575.435 43.7227 575.99 40.8427 576.331 37.984C576.715 35.1253 576.907 32.4373 576.907 29.92C576.907 27.104 576.758 24.544 576.459 22.24C576.203 19.936 575.776 17.952 575.179 16.288C574.624 14.5813 573.899 13.2587 573.003 12.32L573.195 11.744C574.816 12.8107 576.182 14.2827 577.291 16.16C578.4 17.9947 579.211 20.1493 579.723 22.624C580.278 25.0987 580.555 27.808 580.555 30.752C580.555 34.4213 580.171 38.1547 579.403 41.952C578.678 45.7067 577.547 49.2907 576.011 52.704C574.475 56.1173 572.512 59.1253 570.123 61.728C567.734 64.3307 564.896 66.3147 561.611 67.68L561.803 67.04Z" fill="#121212"/>
</g>
</svg>
