<svg width="532" height="70" viewBox="0 0 532 70" fill="none" xmlns="http://www.w3.org/2000/svg">
<g opacity="0.05">
<path d="M12.9518 59L1.04775 13.752H8.66375L18.1358 52.472L27.4158 13.752H37.0798L46.2958 52.472L55.7678 13.752H62.9998L51.1598 59H41.3038L32.0878 20.92L22.8718 59H12.9518ZM68.0308 59V13.752H74.8148V33.656H97.4708V13.752H104.255V59H97.4708V39.864H74.8148V59H68.0308ZM109.042 59L126.13 13.752H134.898L151.922 59H144.626L141.298 49.912H119.666L116.338 59H109.042ZM121.906 43.832H139.058L130.482 20.216L121.906 43.832ZM163.26 59V19.96H148.924V13.752H184.316V19.96H170.044V59H163.26ZM206.031 59V13.752H237.071V19.96H212.815V35.128H233.743V41.4H212.815V59H206.031ZM243.468 59V13.752H250.252V59H243.468ZM269.698 59V19.96H255.362V13.752H290.754V19.96H276.482V59H269.698ZM311.857 59.512C308.913 59.512 306.139 59.0853 303.537 58.232C300.934 57.3787 298.737 55.992 296.945 54.072C295.153 52.152 293.958 49.6133 293.361 46.456H300.337C300.891 48.248 301.787 49.656 303.025 50.68C304.262 51.6613 305.691 52.344 307.313 52.728C308.977 53.112 310.641 53.304 312.305 53.304C313.883 53.304 315.355 53.0907 316.721 52.664C318.129 52.2373 319.281 51.5333 320.177 50.552C321.073 49.5707 321.521 48.2907 321.521 46.712C321.521 45.5173 321.286 44.536 320.817 43.768C320.347 43 319.686 42.3813 318.833 41.912C318.022 41.4 317.041 40.9947 315.889 40.696C314.566 40.2693 313.137 39.9067 311.601 39.608C310.107 39.3093 308.614 38.968 307.121 38.584C305.67 38.2 304.305 37.7093 303.025 37.112C301.958 36.6853 300.913 36.1733 299.889 35.576C298.907 34.936 298.054 34.1893 297.329 33.336C296.603 32.44 296.006 31.3947 295.537 30.2C295.11 29.0053 294.897 27.64 294.897 26.104C294.897 24.056 295.217 22.3067 295.857 20.856C296.539 19.4053 297.414 18.1893 298.481 17.208C299.59 16.2267 300.849 15.4587 302.257 14.904C303.707 14.3067 305.222 13.88 306.801 13.624C308.379 13.368 309.915 13.24 311.409 13.24C314.139 13.24 316.657 13.6667 318.961 14.52C321.265 15.3733 323.163 16.7387 324.657 18.616C326.193 20.4507 327.025 22.8827 327.153 25.912H320.561C320.39 24.2907 319.835 23.0107 318.897 22.072C318.001 21.0907 316.87 20.408 315.505 20.024C314.139 19.5973 312.689 19.384 311.153 19.384C310.043 19.384 308.934 19.4907 307.825 19.704C306.715 19.8747 305.691 20.216 304.753 20.728C303.857 21.1973 303.131 21.8373 302.577 22.648C302.065 23.4587 301.809 24.4613 301.809 25.656C301.809 26.68 302.022 27.5973 302.449 28.408C302.875 29.176 303.473 29.8373 304.241 30.392C305.051 30.904 305.947 31.352 306.929 31.736C308.721 32.4187 310.683 32.952 312.817 33.336C314.95 33.6773 316.955 34.168 318.833 34.808C320.198 35.2347 321.478 35.768 322.673 36.408C323.867 37.0053 324.891 37.752 325.745 38.648C326.598 39.5013 327.259 40.5253 327.729 41.72C328.198 42.872 328.433 44.216 328.433 45.752C328.433 48.2693 327.985 50.424 327.089 52.216C326.193 53.9653 324.977 55.3733 323.441 56.44C321.905 57.5067 320.134 58.296 318.129 58.808C316.123 59.2773 314.033 59.512 311.857 59.512ZM334.982 67.448L333.126 64.696C333.723 64.312 334.32 63.8 334.918 63.16C335.558 62.5627 336.112 61.9013 336.582 61.176C337.051 60.4933 337.392 59.832 337.606 59.192C336.411 59.1067 335.43 58.7013 334.662 57.976C333.894 57.2507 333.51 56.2693 333.51 55.032C333.552 53.7093 334 52.6853 334.854 51.96C335.75 51.192 336.752 50.808 337.862 50.808C339.312 50.808 340.464 51.3413 341.318 52.408C342.171 53.432 342.598 54.84 342.598 56.632C342.598 58.168 342.235 59.6827 341.51 61.176C340.784 62.6693 339.846 63.9707 338.694 65.08C337.542 66.1893 336.304 66.9787 334.982 67.448Z" fill="#121212"/>
<path d="M372.213 67.808C370.592 66.6987 369.226 65.2267 368.117 63.392C367.008 61.5573 366.176 59.4027 365.621 56.928C365.109 54.4533 364.853 51.744 364.853 48.8C364.853 45.088 365.216 41.3547 365.941 37.6C366.709 33.8027 367.861 30.1973 369.397 26.784C370.933 23.3707 372.896 20.3627 375.285 17.76C377.674 15.1573 380.512 13.1733 383.797 11.808L383.605 12.448C381.472 13.728 379.573 15.4133 377.909 17.504C376.288 19.5947 374.88 21.9627 373.685 24.608C372.49 27.2533 371.509 30.0267 370.741 32.928C369.973 35.8293 369.397 38.7093 369.013 41.568C368.672 44.384 368.501 47.0507 368.501 49.568C368.501 52.3413 368.629 54.9013 368.885 57.248C369.184 59.552 369.61 61.5573 370.165 63.264C370.762 64.9707 371.509 66.2933 372.405 67.232L372.213 67.808ZM400.518 60.832C400.518 59.2533 400.539 57.2907 400.582 54.944C400.624 52.5973 400.667 50.1013 400.71 47.456C400.752 44.768 400.774 42.1653 400.774 39.648C400.816 37.1307 400.859 34.8907 400.902 32.928C400.944 30.9653 400.944 29.536 400.902 28.64C400.39 29.92 399.792 31.4133 399.11 33.12C398.47 34.784 397.744 36.576 396.934 38.496C396.166 40.3733 395.355 42.3147 394.502 44.32C393.691 46.2827 392.859 48.224 392.006 50.144C391.195 52.0213 390.406 53.8347 389.638 55.584C388.912 57.2907 388.251 58.8053 387.654 60.128L384.006 60.704L384.582 30.048C384.624 28.896 384.582 28.064 384.454 27.552C384.368 27.04 384.155 26.72 383.814 26.592C383.472 26.4213 382.982 26.336 382.342 26.336H381.318L381.51 25.696H388.294C388.251 27.488 388.187 29.5147 388.102 31.776C388.059 34.0373 388.016 36.4053 387.974 38.88C387.931 41.312 387.867 43.744 387.782 46.176C387.739 48.5653 387.696 50.8267 387.654 52.96C387.611 55.0507 387.568 56.8853 387.526 58.464H387.718C388.4 57.056 389.168 55.3067 390.022 53.216C390.918 51.1253 391.878 48.864 392.902 46.432C393.968 44 394.992 41.5467 395.974 39.072C396.998 36.5973 397.958 34.2507 398.854 32.032C399.75 29.8133 400.518 27.8933 401.158 26.272L403.91 26.016C403.952 27.296 403.974 29.0453 403.974 31.264C404.016 33.4827 404.038 35.936 404.038 38.624C404.08 41.2693 404.08 43.9147 404.038 46.56C404.038 49.1627 404.016 51.552 403.974 53.728C403.974 55.8613 403.974 57.5253 403.974 58.72H404.23C406.875 54.5387 409.136 50.8267 411.014 47.584C412.891 44.3413 414.32 41.376 415.302 38.688C416.326 36 416.838 33.3973 416.838 30.88C416.838 29.5573 416.624 28.64 416.198 28.128C415.771 27.5733 415.024 27.296 413.958 27.296C414 26.4427 414.214 25.8667 414.597 25.568C414.981 25.2267 415.451 25.056 416.006 25.056C416.816 25.056 417.414 25.4187 417.798 26.144C418.224 26.8693 418.438 27.9787 418.438 29.472C418.438 31.264 418.118 33.2267 417.478 35.36C416.838 37.4933 415.878 39.8187 414.597 42.336C413.318 44.8107 411.76 47.5413 409.926 50.528C408.134 53.472 406.064 56.6933 403.718 60.192L400.518 60.832ZM429.133 60.64C426.445 60.64 424.269 59.6587 422.605 57.696C420.984 55.6907 420.173 52.64 420.173 48.544C420.173 46.6667 420.365 44.6613 420.749 42.528C421.176 40.3947 421.794 38.304 422.605 36.256C423.416 34.208 424.418 32.3307 425.613 30.624C426.85 28.9173 428.28 27.5733 429.901 26.592C431.565 25.568 433.421 25.056 435.469 25.056C437.133 25.056 438.626 25.4827 439.949 26.336C441.314 27.1467 442.381 28.448 443.149 30.24C443.96 31.9893 444.365 34.336 444.365 37.28C444.365 39.1147 444.152 41.0773 443.725 43.168C443.341 45.2587 442.744 47.3493 441.933 49.44C441.165 51.488 440.162 53.3653 438.925 55.072C437.73 56.7787 436.301 58.144 434.637 59.168C433.016 60.1493 431.181 60.64 429.133 60.64ZM429.325 60C430.776 60 432.098 59.5093 433.293 58.528C434.53 57.504 435.597 56.16 436.493 54.496C437.432 52.7893 438.2 50.8907 438.797 48.8C439.394 46.7093 439.842 44.5547 440.141 42.336C440.482 40.0747 440.653 37.92 440.653 35.872C440.653 33.5253 440.44 31.6053 440.013 30.112C439.629 28.6187 439.032 27.5093 438.221 26.784C437.41 26.0587 436.408 25.696 435.213 25.696C433.805 25.696 432.504 26.1867 431.309 27.168C430.157 28.1493 429.112 29.472 428.173 31.136C427.234 32.8 426.424 34.6773 425.741 36.768C425.101 38.8587 424.61 41.056 424.269 43.36C423.97 45.6213 423.821 47.84 423.821 50.016C423.821 53.6853 424.29 56.2667 425.229 57.76C426.21 59.2533 427.576 60 429.325 60ZM453.246 31.648C453.416 30.9227 453.523 30.2827 453.566 29.728C453.651 29.1733 453.694 28.704 453.694 28.32C453.694 27.5093 453.459 26.976 452.99 26.72C452.52 26.464 451.795 26.336 450.814 26.336H449.918L450.046 25.696H457.982L456.382 34.656H456.574C457.299 32.5653 458.088 30.816 458.942 29.408C459.838 27.9573 460.819 26.8693 461.885 26.144C462.995 25.4187 464.211 25.056 465.534 25.056C466.942 25.056 467.966 25.4613 468.606 26.272C469.246 27.0827 469.566 28.0427 469.566 29.152C469.566 29.8773 469.416 30.496 469.118 31.008C468.862 31.52 468.478 31.904 467.966 32.16C467.496 32.3733 466.92 32.48 466.238 32.48C466.238 32.0533 466.238 31.6907 466.238 31.392C466.28 31.0507 466.302 30.7307 466.302 30.432C466.302 29.3227 466.195 28.4693 465.982 27.872C465.811 27.232 465.576 26.8053 465.278 26.592C464.979 26.336 464.595 26.208 464.126 26.208C463.23 26.208 462.334 26.592 461.438 27.36C460.584 28.128 459.752 29.1733 458.942 30.496C458.174 31.8187 457.491 33.312 456.894 34.976C456.296 36.64 455.806 38.3467 455.422 40.096L451.07 60H447.23L453.246 31.648ZM491.058 60.384C489.65 60.384 488.519 60.256 487.666 60C486.813 59.7013 486.109 59.1253 485.554 58.272C485.042 57.4187 484.551 56.1813 484.082 54.56L480.306 41.12L482.226 39.84L475.378 46.368L472.626 60H468.722L478.13 15.84C478.215 15.5413 478.279 15.2 478.322 14.816C478.407 14.432 478.45 14.0693 478.45 13.728C478.45 13.0453 478.258 12.5973 477.874 12.384C477.49 12.128 476.935 12 476.21 12H474.482L474.61 11.36H483.058L479.986 25.568C479.687 26.8053 479.389 28.0853 479.09 29.408C478.834 30.688 478.557 32.0107 478.258 33.376C478.002 34.6987 477.703 36.0427 477.362 37.408C477.063 38.7733 476.743 40.1387 476.402 41.504C476.103 42.8267 475.805 44.1493 475.506 45.472L489.842 31.456C490.695 30.6453 491.357 29.9627 491.826 29.408C492.338 28.8107 492.594 28.2987 492.594 27.872C492.594 27.1467 492.21 26.72 491.442 26.592C490.674 26.4213 489.373 26.336 487.538 26.336L487.666 25.696H498.354L498.226 26.336C497.159 26.336 496.221 26.6347 495.41 27.232C494.642 27.7867 493.597 28.7253 492.274 30.048L482.61 39.584L483.378 38.688L488.498 56.032C488.797 57.0133 489.074 57.7813 489.33 58.336C489.629 58.8907 490.034 59.2747 490.546 59.488C491.058 59.6587 491.762 59.744 492.658 59.744L492.53 60.384H491.058ZM503.651 60.64C501.773 60.64 500.216 60.2987 498.979 59.616C497.784 58.8907 496.888 57.9733 496.291 56.864C495.693 55.712 495.395 54.56 495.395 53.408C495.395 52.4693 495.544 51.744 495.843 51.232C496.141 50.72 496.525 50.3573 496.995 50.144C497.464 49.888 497.955 49.76 498.467 49.76C498.467 50.1013 498.467 50.4427 498.467 50.784C498.467 51.0827 498.467 51.3813 498.467 51.68C498.552 53.4293 498.787 54.944 499.171 56.224C499.597 57.4613 500.216 58.4 501.027 59.04C501.88 59.68 502.947 60 504.227 60C506.104 60 507.597 59.296 508.707 57.888C509.816 56.48 510.371 54.5813 510.371 52.192C510.371 51.1253 510.221 50.144 509.923 49.248C509.624 48.3093 509.112 47.4133 508.387 46.56C507.704 45.664 506.744 44.768 505.507 43.872C504.397 43.0187 503.373 42.1653 502.435 41.312C501.539 40.416 500.813 39.4133 500.259 38.304C499.704 37.1947 499.427 35.872 499.427 34.336C499.427 32.416 499.832 30.7733 500.643 29.408C501.496 28 502.627 26.912 504.035 26.144C505.485 25.376 507.107 24.992 508.899 24.992C510.648 24.992 512.056 25.312 513.123 25.952C514.189 26.592 514.957 27.4027 515.427 28.384C515.896 29.3653 516.131 30.3893 516.131 31.456C516.131 32.608 515.853 33.44 515.299 33.952C514.744 34.464 513.997 34.72 513.059 34.72C513.059 34.336 513.059 33.9733 513.059 33.632C513.059 33.248 513.059 32.864 513.059 32.48C513.016 30.304 512.675 28.6187 512.035 27.424C511.437 26.2293 510.285 25.632 508.579 25.632C506.915 25.632 505.485 26.2933 504.291 27.616C503.096 28.896 502.499 30.6667 502.499 32.928C502.499 34.1227 502.691 35.1467 503.075 36C503.459 36.8533 504.035 37.6427 504.803 38.368C505.613 39.0507 506.573 39.84 507.683 40.736C508.835 41.5893 509.837 42.4427 510.691 43.296C511.587 44.1493 512.269 45.152 512.739 46.304C513.208 47.4133 513.443 48.7787 513.443 50.4C513.443 52.3627 513.059 54.1333 512.291 55.712C511.523 57.248 510.392 58.464 508.899 59.36C507.448 60.2133 505.699 60.64 503.651 60.64ZM512.865 67.04C514.999 65.8027 516.876 64.1387 518.498 62.048C520.162 59.9573 521.591 57.5893 522.786 54.944C523.98 52.2987 524.962 49.5253 525.73 46.624C526.498 43.7227 527.052 40.8427 527.394 37.984C527.778 35.1253 527.97 32.4373 527.97 29.92C527.97 27.104 527.82 24.544 527.522 22.24C527.266 19.936 526.839 17.952 526.242 16.288C525.687 14.5813 524.962 13.2587 524.066 12.32L524.258 11.744C525.879 12.8107 527.244 14.2827 528.354 16.16C529.463 17.9947 530.274 20.1493 530.786 22.624C531.34 25.0987 531.618 27.808 531.618 30.752C531.618 34.4213 531.234 38.1547 530.466 41.952C529.74 45.7067 528.61 49.2907 527.074 52.704C525.538 56.1173 523.575 59.1253 521.186 61.728C518.796 64.3307 515.959 66.3147 512.673 67.68L512.865 67.04Z" fill="#121212"/>
</g>
</svg>
