<svg width="149" height="49" viewBox="0 0 149 49" fill="none" xmlns="http://www.w3.org/2000/svg">
<path d="M0.329953 0.336304H8.70728C8.70728 1.03263 8.70728 1.66637 8.70728 2.30794C8.70728 11.3681 8.68348 20.4282 8.73108 29.4883C8.73901 30.9592 8.88974 32.4849 9.30226 33.8932C10.5001 38.032 13.9907 40.1523 18.4729 39.6516C22.3204 39.2213 25.3191 36.0056 25.5967 32.0076C26.0013 26.2179 22.2093 22.1416 16.2754 22.0164C14.9903 21.993 13.7051 22.0164 12.2057 22.0164C13.007 19.1998 13.7606 16.5553 14.5063 13.9343C22.8361 12.7294 33.2125 17.549 34.2438 29.2927C35.053 38.5328 29.9044 45.723 21.3684 47.6946C10.2939 50.253 0.47275 42.9846 0.282356 31.8511C0.107829 21.6331 0.23476 11.415 0.23476 1.19694C0.23476 0.977867 0.282354 0.758796 0.329953 0.344128V0.336304Z" fill="#111111"/>
<path d="M148.217 47.2959C144.623 47.2959 141.49 47.335 138.364 47.2489C137.88 47.2333 137.301 46.7247 136.968 46.2866C133.636 41.9834 130.344 37.6489 127.036 33.3301C126.679 32.8607 126.29 32.4069 125.631 31.601V47.202H117.016V45.3868C117.016 30.9751 117.04 16.5556 116.984 2.14393C116.984 0.618259 117.397 0.125352 118.952 0.219239C121.07 0.344422 123.204 0.250535 125.504 0.250535V28.4402L125.877 28.628C126.203 28.2524 126.544 27.8925 126.845 27.5013C130.122 23.2999 133.422 19.1062 136.65 14.8656C137.293 14.0207 137.959 13.6921 139.022 13.7155C141.759 13.7859 144.504 13.739 147.654 13.739C143.235 19.3096 139.014 24.6299 134.691 30.0754C139.11 35.7008 143.513 41.3184 148.201 47.2959H148.217Z" fill="#111111"/>
<path d="M51.7364 30.6068C51.7126 20.3261 59.0427 12.8855 69.205 12.8699C79.3514 12.8542 86.8085 20.3261 86.8243 30.5129C86.8481 40.6996 79.4228 48.1167 69.2129 48.1089C59.0507 48.1089 51.7602 40.8014 51.7364 30.6068ZM69.1733 39.6591C74.3218 39.6825 78.1138 35.8097 78.1297 30.5207C78.1455 25.2161 74.3853 21.3197 69.2447 21.3197C64.1278 21.3197 60.3279 25.2552 60.3676 30.5442C60.4072 35.7862 64.1278 39.6434 69.1812 39.6669L69.1733 39.6591Z" fill="#111111"/>
<path d="M111.838 13.7541V22.0006C110.267 22.0006 108.768 21.9849 107.269 22.0006C102.009 22.071 98.4232 25.4666 98.3756 30.4035C98.328 35.3638 101.803 38.8299 107.054 39.0098C108.839 39.0724 110.632 39.0176 112.782 39.0176C111.997 41.7795 111.291 44.3066 110.537 46.8181C110.474 47.0293 110.045 47.2562 109.768 47.2719C103.254 47.5848 97.2333 46.3878 93.116 40.8875C88.967 35.3404 88.5862 29.1673 91.4263 23.002C94.2187 16.9385 99.5021 14.2079 106.087 13.7698C107.967 13.6446 109.871 13.7541 111.854 13.7541H111.838Z" fill="#111111"/>
<path d="M38.843 0.250143C41.4054 0.250143 43.8646 0.211023 46.3239 0.297086C46.665 0.30491 47.0379 0.876058 47.2917 1.25943C47.4187 1.45503 47.3155 1.79928 47.3155 2.07312C47.3155 16.5396 47.3155 31.006 47.3155 45.4725C47.3155 46.0124 47.2679 46.5522 47.2441 47.1938H38.843V0.250143Z" fill="#111111"/>
</svg>
