<svg width="307" height="129" viewBox="0 0 307 129" fill="none" xmlns="http://www.w3.org/2000/svg">
<path d="M16.0828 47L5.66678 7.408H12.3308L20.6188 41.288L28.7388 7.408H37.1948L45.2588 41.288L53.5468 7.408H59.8748L49.5148 47H40.8908L32.8268 13.68L24.7628 47H16.0828ZM64.1519 47V7.408H70.0879V24.824H89.9119V7.408H95.8479V47H89.9119V30.256H70.0879V47H64.1519ZM99.9115 47L114.864 7.408H122.536L137.432 47H131.048L128.136 39.048H109.208L106.296 47H99.9115ZM111.168 33.728H126.176L118.672 13.064L111.168 33.728ZM147.228 47V12.84H134.684V7.408H165.652V12.84H153.164V47H147.228ZM184.402 47V7.408H211.562V12.84H190.338V26.112H208.65V31.6H190.338V47H184.402ZM217.035 47V7.408H222.971V47H217.035ZM239.861 47V12.84H227.317V7.408H258.285V12.84H245.797V47H239.861ZM276.625 47.448C274.049 47.448 271.622 47.0747 269.345 46.328C267.067 45.5813 265.145 44.368 263.577 42.688C262.009 41.008 260.963 38.7867 260.441 36.024H266.545C267.03 37.592 267.814 38.824 268.897 39.72C269.979 40.5787 271.23 41.176 272.649 41.512C274.105 41.848 275.561 42.016 277.017 42.016C278.398 42.016 279.686 41.8293 280.881 41.456C282.113 41.0827 283.121 40.4667 283.905 39.608C284.689 38.7493 285.081 37.6293 285.081 36.248C285.081 35.2027 284.875 34.344 284.465 33.672C284.054 33 283.475 32.4587 282.729 32.048C282.019 31.6 281.161 31.2453 280.153 30.984C278.995 30.6107 277.745 30.2933 276.401 30.032C275.094 29.7707 273.787 29.472 272.481 29.136C271.211 28.8 270.017 28.3707 268.897 27.848C267.963 27.4747 267.049 27.0267 266.153 26.504C265.294 25.944 264.547 25.2907 263.913 24.544C263.278 23.76 262.755 22.8453 262.345 21.8C261.971 20.7547 261.785 19.56 261.785 18.216C261.785 16.424 262.065 14.8933 262.625 13.624C263.222 12.3547 263.987 11.2907 264.921 10.432C265.891 9.57333 266.993 8.90133 268.225 8.416C269.494 7.89333 270.819 7.52 272.201 7.296C273.582 7.072 274.926 6.96 276.233 6.96C278.622 6.96 280.825 7.33333 282.841 8.08C284.857 8.82667 286.518 10.0213 287.825 11.664C289.169 13.2693 289.897 15.3973 290.009 18.048H284.241C284.091 16.6293 283.606 15.5093 282.785 14.688C282.001 13.8293 281.011 13.232 279.817 12.896C278.622 12.5227 277.353 12.336 276.009 12.336C275.038 12.336 274.067 12.4293 273.097 12.616C272.126 12.7653 271.23 13.064 270.409 13.512C269.625 13.9227 268.99 14.4827 268.505 15.192C268.057 15.9013 267.833 16.7787 267.833 17.824C267.833 18.72 268.019 19.5227 268.393 20.232C268.766 20.904 269.289 21.4827 269.961 21.968C270.67 22.416 271.454 22.808 272.313 23.144C273.881 23.7413 275.598 24.208 277.465 24.544C279.331 24.8427 281.086 25.272 282.729 25.832C283.923 26.2053 285.043 26.672 286.089 27.232C287.134 27.7547 288.03 28.408 288.777 29.192C289.523 29.9387 290.102 30.8347 290.513 31.88C290.923 32.888 291.129 34.064 291.129 35.408C291.129 37.6107 290.737 39.496 289.953 41.064C289.169 42.5947 288.105 43.8267 286.761 44.76C285.417 45.6933 283.867 46.384 282.113 46.832C280.358 47.2427 278.529 47.448 276.625 47.448ZM296.734 54.392L295.11 51.984C295.633 51.648 296.155 51.2 296.678 50.64C297.238 50.1173 297.723 49.5387 298.134 48.904C298.545 48.3067 298.843 47.728 299.03 47.168C297.985 47.0933 297.126 46.7387 296.454 46.104C295.782 45.4693 295.446 44.6107 295.446 43.528C295.483 42.3707 295.875 41.4747 296.622 40.84C297.406 40.168 298.283 39.832 299.254 39.832C300.523 39.832 301.531 40.2987 302.278 41.232C303.025 42.128 303.398 43.36 303.398 44.928C303.398 46.272 303.081 47.5973 302.446 48.904C301.811 50.2107 300.99 51.3493 299.982 52.32C298.974 53.2907 297.891 53.9813 296.734 54.392Z" fill="#121212"/>
<path d="M0.24 121.104L0.52 119.984H21.464L21.184 121.104H0.24ZM32.4051 115.56C30.7625 115.56 29.3998 115.261 28.3171 114.664C27.2718 114.029 26.4878 113.227 25.9651 112.256C25.4425 111.248 25.1811 110.24 25.1811 109.232C25.1811 108.411 25.3118 107.776 25.5731 107.328C25.8345 106.88 26.1705 106.563 26.5811 106.376C26.9918 106.152 27.4211 106.04 27.8691 106.04C27.8691 106.339 27.8691 106.637 27.8691 106.936C27.8691 107.197 27.8691 107.459 27.8691 107.72C27.9438 109.251 28.1491 110.576 28.4851 111.696C28.8585 112.779 29.3998 113.6 30.1091 114.16C30.8558 114.72 31.7891 115 32.9091 115C34.5518 115 35.8585 114.384 36.8291 113.152C37.7998 111.92 38.2851 110.259 38.2851 108.168C38.2851 107.235 38.1545 106.376 37.8931 105.592C37.6318 104.771 37.1838 103.987 36.5491 103.24C35.9518 102.456 35.1118 101.672 34.0291 100.888C33.0585 100.141 32.1625 99.3947 31.3411 98.648C30.5571 97.864 29.9225 96.9867 29.4371 96.016C28.9518 95.0453 28.7091 93.888 28.7091 92.544C28.7091 90.864 29.0638 89.4267 29.7731 88.232C30.5198 87 31.5091 86.048 32.7411 85.376C34.0105 84.704 35.4291 84.368 36.9971 84.368C38.5278 84.368 39.7598 84.648 40.6931 85.208C41.6265 85.768 42.2985 86.4773 42.7091 87.336C43.1198 88.1947 43.3251 89.0907 43.3251 90.024C43.3251 91.032 43.0825 91.76 42.5971 92.208C42.1118 92.656 41.4585 92.88 40.6371 92.88C40.6371 92.544 40.6371 92.2267 40.6371 91.928C40.6371 91.592 40.6371 91.256 40.6371 90.92C40.5998 89.016 40.3011 87.5413 39.7411 86.496C39.2185 85.4507 38.2105 84.928 36.7171 84.928C35.2611 84.928 34.0105 85.5067 32.9651 86.664C31.9198 87.784 31.3971 89.3333 31.3971 91.312C31.3971 92.3573 31.5651 93.2533 31.9011 94C32.2371 94.7467 32.7411 95.4373 33.4131 96.072C34.1225 96.6693 34.9625 97.36 35.9331 98.144C36.9411 98.8907 37.8185 99.6373 38.5651 100.384C39.3491 101.131 39.9465 102.008 40.3571 103.016C40.7678 103.987 40.9731 105.181 40.9731 106.6C40.9731 108.317 40.6371 109.867 39.9651 111.248C39.2931 112.592 38.3038 113.656 36.9971 114.44C35.7278 115.187 34.1971 115.56 32.4051 115.56ZM50.3113 115.56C49.3406 115.56 48.5379 115.355 47.9033 114.944C47.2686 114.533 46.7833 113.973 46.4473 113.264C46.1486 112.555 45.9993 111.752 45.9993 110.856C45.9993 110.296 46.0179 109.755 46.0553 109.232C46.1299 108.672 46.2233 108 46.3353 107.216C46.4846 106.432 46.6899 105.443 46.9513 104.248L50.8153 85.544H46.8953L46.9513 85.264C47.7353 85.264 48.5193 85.1893 49.3033 85.04C50.0873 84.8533 50.8339 84.5173 51.5433 84.032C52.2899 83.5467 52.9806 82.8373 53.6153 81.904C54.2499 80.9333 54.8099 79.664 55.2953 78.096H55.8553L54.3993 84.984H59.1593L59.0473 85.544H54.2873L50.0312 105.648C49.7699 106.917 49.5646 107.925 49.4153 108.672C49.3033 109.419 49.2286 110.016 49.1913 110.464C49.1539 110.875 49.1353 111.248 49.1353 111.584C49.1353 112.629 49.2846 113.413 49.5833 113.936C49.9193 114.459 50.4979 114.72 51.3193 114.72C52.0286 114.72 52.7193 114.571 53.3913 114.272C54.1006 113.973 54.8099 113.563 55.5193 113.04L55.6873 113.544C54.8286 114.141 53.9513 114.627 53.0553 115C52.1966 115.373 51.2819 115.56 50.3113 115.56ZM64.2291 115.56C62.9971 115.56 61.9891 115.224 61.2051 114.552C60.4211 113.843 59.8425 112.853 59.4691 111.584C59.0958 110.277 58.9091 108.747 58.9091 106.992C58.9091 105.163 59.0958 103.221 59.4691 101.168C59.8798 99.1147 60.4585 97.0987 61.2051 95.12C61.9518 93.1413 62.8851 91.3493 64.0051 89.744C65.1251 88.1013 66.3945 86.8133 67.8131 85.88C69.2691 84.9093 70.8931 84.424 72.6851 84.424C73.8798 84.424 74.8691 84.648 75.6531 85.096C76.4371 85.544 77.0718 86.048 77.5571 86.608L79.7971 85.04H80.2451L76.2131 103.968C76.1011 104.677 75.9518 105.517 75.7651 106.488C75.6158 107.459 75.4665 108.429 75.3171 109.4C75.2051 110.333 75.1491 111.117 75.1491 111.752C75.1491 112.648 75.2985 113.339 75.5971 113.824C75.8958 114.309 76.3438 114.552 76.9411 114.552C77.4638 114.552 77.9865 114.384 78.5091 114.048C79.0318 113.712 79.5918 113.227 80.1891 112.592L80.5251 113.04C80.1145 113.488 79.6665 113.899 79.1811 114.272C78.6958 114.645 78.1731 114.944 77.6131 115.168C77.0531 115.429 76.3998 115.56 75.6531 115.56C74.4585 115.56 73.5811 115.187 73.0211 114.44C72.4985 113.693 72.2371 112.667 72.2371 111.36C72.2371 110.464 72.3118 109.531 72.4611 108.56C72.6105 107.589 72.7598 106.619 72.9091 105.648H72.7411C71.3971 109.269 70.0158 111.827 68.5971 113.32C67.1785 114.813 65.7225 115.56 64.2291 115.56ZM65.1811 114.72C66.0398 114.72 66.8985 114.291 67.7571 113.432C68.6158 112.536 69.4371 111.36 70.2211 109.904C71.0425 108.411 71.7705 106.749 72.4051 104.92C73.0398 103.053 73.5625 101.131 73.9731 99.152L76.4931 87.056C76.1198 86.3467 75.5971 85.824 74.9251 85.488C74.2905 85.152 73.6185 84.984 72.9091 84.984C71.6025 84.984 70.3891 85.488 69.2691 86.496C68.1865 87.504 67.1971 88.848 66.3011 90.528C65.4425 92.1707 64.6958 94.0187 64.0611 96.072C63.4638 98.088 62.9971 100.123 62.6611 102.176C62.3625 104.229 62.2131 106.133 62.2131 107.888C62.2131 109.493 62.3251 110.8 62.5491 111.808C62.8105 112.816 63.1651 113.563 63.6131 114.048C64.0611 114.496 64.5838 114.72 65.1811 114.72ZM77.3717 128.44C76.6624 128.44 75.9344 128.347 75.1877 128.16C74.4411 128.011 73.8251 127.787 73.3397 127.488L73.5637 126.928C74.0491 127.189 74.6091 127.413 75.2437 127.6C75.8411 127.787 76.5317 127.88 77.3157 127.88C78.7344 127.88 80.0224 127.675 81.1798 127.264C82.3744 126.891 83.4758 126.256 84.4838 125.36C85.4918 124.501 86.4998 123.344 87.5078 121.888C88.5158 120.432 89.5798 118.64 90.6998 116.512L85.2678 87.952C85.0811 86.8693 84.8384 86.1973 84.5397 85.936C84.2784 85.6747 83.7931 85.544 83.0838 85.544H82.5238L82.6358 84.984H88.1798L91.8198 104.864C91.9318 105.536 92.0438 106.227 92.1558 106.936C92.2678 107.608 92.3798 108.28 92.4918 108.952C92.6038 109.624 92.6971 110.296 92.7718 110.968C92.8838 111.64 92.9771 112.275 93.0518 112.872H93.2198C94.2278 111.155 95.2171 109.4 96.1878 107.608C97.1584 105.816 98.0171 103.987 98.7638 102.12C99.5478 100.253 100.164 98.3307 100.612 96.352C101.097 94.336 101.34 92.2827 101.34 90.192C101.34 89.2213 101.209 88.4747 100.948 87.952C100.686 87.4293 100.35 87.0933 99.9398 86.944C99.5291 86.7573 99.0998 86.664 98.6518 86.664C98.6518 86.0293 98.8384 85.5253 99.2118 85.152C99.5851 84.7413 100.07 84.536 100.668 84.536C101.377 84.536 101.937 84.8533 102.348 85.488C102.796 86.1227 103.02 87.168 103.02 88.624C103.02 90.976 102.628 93.4027 101.844 95.904C101.097 98.4053 100.07 100.981 98.7638 103.632C97.4944 106.283 96.0571 109.064 94.4518 111.976C92.7718 114.963 91.2971 117.501 90.0278 119.592C88.7584 121.683 87.5078 123.381 86.2758 124.688C85.0438 125.995 83.7184 126.947 82.2998 127.544C80.9184 128.141 79.2757 128.44 77.3717 128.44ZM110.819 115.56C109.177 115.56 107.814 115.261 106.731 114.664C105.686 114.029 104.902 113.227 104.379 112.256C103.857 111.248 103.595 110.24 103.595 109.232C103.595 108.411 103.726 107.776 103.987 107.328C104.249 106.88 104.585 106.563 104.995 106.376C105.406 106.152 105.835 106.04 106.283 106.04C106.283 106.339 106.283 106.637 106.283 106.936C106.283 107.197 106.283 107.459 106.283 107.72C106.358 109.251 106.563 110.576 106.899 111.696C107.273 112.779 107.814 113.6 108.523 114.16C109.27 114.72 110.203 115 111.323 115C112.966 115 114.273 114.384 115.243 113.152C116.214 111.92 116.699 110.259 116.699 108.168C116.699 107.235 116.569 106.376 116.307 105.592C116.046 104.771 115.598 103.987 114.963 103.24C114.366 102.456 113.526 101.672 112.443 100.888C111.473 100.141 110.577 99.3947 109.755 98.648C108.971 97.864 108.337 96.9867 107.851 96.016C107.366 95.0453 107.123 93.888 107.123 92.544C107.123 90.864 107.478 89.4267 108.187 88.232C108.934 87 109.923 86.048 111.155 85.376C112.425 84.704 113.843 84.368 115.411 84.368C116.942 84.368 118.174 84.648 119.107 85.208C120.041 85.768 120.713 86.4773 121.123 87.336C121.534 88.1947 121.739 89.0907 121.739 90.024C121.739 91.032 121.497 91.76 121.011 92.208C120.526 92.656 119.873 92.88 119.051 92.88C119.051 92.544 119.051 92.2267 119.051 91.928C119.051 91.592 119.051 91.256 119.051 90.92C119.014 89.016 118.715 87.5413 118.155 86.496C117.633 85.4507 116.625 84.928 115.131 84.928C113.675 84.928 112.425 85.5067 111.379 86.664C110.334 87.784 109.811 89.3333 109.811 91.312C109.811 92.3573 109.979 93.2533 110.315 94C110.651 94.7467 111.155 95.4373 111.827 96.072C112.537 96.6693 113.377 97.36 114.347 98.144C115.355 98.8907 116.233 99.6373 116.979 100.384C117.763 101.131 118.361 102.008 118.771 103.016C119.182 103.987 119.387 105.181 119.387 106.6C119.387 108.317 119.051 109.867 118.379 111.248C117.707 112.592 116.718 113.656 115.411 114.44C114.142 115.187 112.611 115.56 110.819 115.56Z" fill="#121212"/>
</svg>
