<svg width="134" height="49" viewBox="0 0 134 49" fill="none" xmlns="http://www.w3.org/2000/svg">
<path d="M84.8208 21.9066C83.1469 21.9066 81.6873 21.8518 80.2434 21.9144C74.1112 22.1961 70.1367 27.5007 71.644 33.3608C72.6674 37.3276 76.031 39.7764 80.2276 39.6043C84.2814 39.44 87.3594 36.7408 88.0416 32.6723C88.24 31.4831 88.3114 30.2547 88.3114 29.042C88.3352 20.1462 88.3193 11.2582 88.3193 2.36238V0.265564H96.7045C96.7442 0.711528 96.8077 1.13402 96.8077 1.55651C96.8077 11.3912 96.8632 21.2181 96.7839 31.0528C96.7363 36.4982 94.9275 41.3256 90.3581 44.6664C84.7177 48.7896 78.4426 49.1182 72.1914 46.3642C66.1067 43.6884 63.1001 38.6498 62.7669 32.1794C62.1957 21.0538 69.8115 13.4333 81.124 13.6054C82.1553 13.621 82.5996 13.9183 82.8455 14.9042C83.4167 17.1966 84.1148 19.4499 84.8208 21.9144V21.9066Z" fill="#111111"/>
<path d="M59.7445 30.4894C59.7286 40.7153 52.3191 48.0776 42.0855 48.0072C31.8518 47.9368 24.6407 40.5901 24.6803 30.2547C24.72 20.1461 32.1691 12.7212 42.2441 12.7682C52.4223 12.8151 59.7603 20.24 59.7445 30.4894ZM51.0498 30.4268C51.0736 25.0674 47.3768 21.218 42.2203 21.2024C37.1194 21.1945 33.4226 24.9657 33.375 30.239C33.3274 35.6219 36.9845 39.5182 42.1172 39.5417C47.3134 39.5651 51.0419 35.7705 51.0578 30.4268H51.0498Z" fill="#111111"/>
<path d="M133.386 38.9315C132.624 41.6386 131.942 44.1188 131.196 46.5833C131.117 46.8415 130.649 47.1623 130.371 47.1545C125.159 47.045 119.852 47.4362 114.751 46.6225C107.699 45.488 102.891 41.1066 101.257 34.112C99.6228 27.1252 101.273 20.8661 107.143 16.2499C116.187 9.13799 130.189 13.3551 133.005 23.9252C133.949 27.4695 133.394 30.8259 131.696 34.0259C131.474 34.4484 130.943 34.9883 130.538 35.0039C127.912 35.09 125.286 35.0509 122.518 35.0509C123.152 33.58 123.85 32.336 124.255 30.9981C125.976 25.3335 121.812 20.4201 116.084 21.2807C111.864 21.9145 108.825 26.155 109.388 30.6147C109.991 35.3716 113.514 38.6108 118.638 38.8298C122.843 39.0098 127.063 38.9081 131.276 38.9315C131.879 38.9315 132.482 38.9315 133.378 38.9315H133.386Z" fill="#111111"/>
<path d="M22.2292 13.6527V21.8913C20.6029 21.8913 19.0401 21.8679 17.4853 21.8913C12.3208 21.9774 8.81442 25.3652 8.77475 30.263C8.73508 35.2625 12.059 38.6893 17.2076 38.8849C19.0957 38.9554 20.9837 38.8928 23.1177 38.8928C22.3562 41.5998 21.6977 44.0409 20.9599 46.4507C20.8647 46.7558 20.3729 47.1235 20.0476 47.147C14.558 47.4209 9.3142 46.6698 5.20487 42.6952C-0.229276 37.4453 -1.11778 31.0454 1.19868 24.1916C3.27714 18.0263 9.2428 13.9813 16.1684 13.6684C18.1278 13.5823 20.0952 13.6527 22.2292 13.6527Z" fill="#111111"/>
</svg>
