<svg width="82" height="12" viewBox="0 0 82 12" fill="none" xmlns="http://www.w3.org/2000/svg">
<g clip-path="url(#clip0_1063_1087)">
<path d="M44.2706 11.6503C43.4544 11.6503 42.7309 11.6601 42.0055 11.6425C41.8773 11.6386 41.7177 11.5565 41.629 11.4608C41.4042 11.2185 41.2091 10.9489 40.9686 10.65C39.8843 11.789 38.5497 12.1524 37.0456 11.8886C36.0481 11.7148 35.2418 11.1911 34.6188 10.3901C33.5385 9.00294 33.3237 6.40248 36.0855 4.47803C36.0086 4.32563 35.9278 4.16933 35.8509 4.00912C35.0072 2.26441 36.1092 0.242271 38.0588 0.0801091C39.1786 -0.0136714 40.3141 0.0625253 41.4791 0.0625253V1.97135C40.9942 1.97135 40.5132 1.97135 40.0302 1.97135C39.6123 1.97135 39.1924 1.96353 38.7744 1.97135C37.8085 1.99284 37.3866 2.71183 37.9011 3.52459C38.2481 4.07164 38.6719 4.57181 39.0721 5.08369C39.6004 5.75969 40.1386 6.42592 40.7221 7.15859C41.0139 6.46109 41.3057 5.82612 41.5402 5.17161C41.6566 4.84729 41.8261 4.76327 42.1514 4.77695C42.7053 4.80235 43.2612 4.78477 43.8704 4.78477C43.758 5.07197 43.6654 5.31423 43.5668 5.55259C43.1449 6.58613 42.729 7.62358 42.2894 8.65126C42.1869 8.89157 42.2184 9.04983 42.3781 9.24325C42.93 9.91925 43.4663 10.607 44.0084 11.2908C44.0833 11.3846 44.1483 11.4842 44.2666 11.6483L44.2706 11.6503ZM37.3452 6.05471C36.4936 6.59004 35.8864 7.22111 35.9909 8.25269C36.0796 9.12407 36.6375 9.7356 37.4714 9.94856C38.2954 10.1596 39.1667 9.84305 39.7404 9.10453C38.9538 8.10225 38.1614 7.09216 37.3452 6.05471Z" fill="#111111"/>
<path d="M44.8501 0.0332031H46.9319C46.9319 0.207088 46.9319 0.365342 46.9319 0.525551C46.9319 2.78801 46.926 5.05046 46.9378 7.31292C46.9398 7.68022 46.9772 8.06121 47.0797 8.41288C47.3774 9.44642 48.2448 9.97589 49.3586 9.85085C50.3147 9.74339 51.0599 8.9404 51.1289 7.94203C51.2294 6.49624 50.2871 5.47833 48.8125 5.44707C48.4932 5.44121 48.1738 5.44707 47.8012 5.44707C48.0003 4.74372 48.1876 4.08335 48.3729 3.42884C50.4428 3.12796 53.0214 4.33148 53.2776 7.26407C53.4787 9.57146 52.1993 11.367 50.0781 11.8593C47.3261 12.4982 44.8856 10.6832 44.8383 7.90295C44.7949 5.35134 44.8265 2.79973 44.8265 0.248117C44.8265 0.193412 44.8383 0.138706 44.8501 0.0351569V0.0332031Z" fill="#111111"/>
<path d="M21.0777 5.44707C20.6617 5.44707 20.299 5.4334 19.9402 5.44903C18.4163 5.51936 17.4287 6.84401 17.8033 8.30738C18.0576 9.29794 18.8934 9.90946 19.9363 9.86648C20.9436 9.82545 21.7085 9.1514 21.878 8.13545C21.9273 7.83848 21.9451 7.53174 21.9451 7.2289C21.951 5.00748 21.947 2.788 21.947 0.566577V0.0429688H24.0307C24.0406 0.154333 24.0564 0.259836 24.0564 0.365339C24.0564 2.82122 24.0702 5.27514 24.0505 7.73102C24.0386 9.09084 23.5892 10.2963 22.4537 11.1306C21.052 12.1602 19.4927 12.2423 17.9393 11.5545C16.4273 10.8863 15.6801 9.62812 15.5973 8.01236C15.4554 5.23411 17.3479 3.33115 20.159 3.37413C20.4153 3.37804 20.5257 3.45228 20.5868 3.69846C20.7287 4.27091 20.9022 4.83359 21.0777 5.44903V5.44707Z" fill="#111111"/>
<path d="M81.6 11.7596C80.707 11.7596 79.9283 11.7694 79.1516 11.7479C79.0313 11.744 78.8874 11.617 78.8046 11.5076C77.9767 10.433 77.1586 9.35065 76.3365 8.27217C76.2478 8.15495 76.1512 8.04163 75.9876 7.84039V11.7362H73.8467V11.2829C73.8467 7.68409 73.8526 4.08331 73.8388 0.484483C73.8388 0.103499 73.9413 -0.0195876 74.3277 0.00385748C74.8541 0.0351177 75.3843 0.0116725 75.956 0.0116725V7.05107L76.0487 7.09796C76.1295 7.00418 76.2143 6.91431 76.2892 6.81662C77.1034 5.76745 77.9234 4.72024 78.7258 3.6613C78.8855 3.45029 79.0511 3.36823 79.3152 3.3741C79.9953 3.39168 80.6774 3.37996 81.46 3.37996C80.362 4.77103 79.3132 6.09959 78.2389 7.45941C79.3369 8.86416 80.431 10.267 81.5961 11.7596H81.6Z" fill="#111111"/>
<path d="M57.6245 7.59227C57.6186 5.02503 59.4401 3.167 61.9654 3.16309C64.4867 3.15918 66.3398 5.02503 66.3437 7.56882C66.3497 10.1126 64.5045 11.9648 61.9673 11.9628C59.442 11.9628 57.6304 10.138 57.6245 7.59227ZM61.9575 9.85277C63.2369 9.85863 64.1792 8.89152 64.1831 7.57078C64.1871 6.24613 63.2527 5.27315 61.9752 5.27315C60.7037 5.27315 59.7594 6.2559 59.7693 7.57664C59.7791 8.88566 60.7037 9.84886 61.9595 9.85472L61.9575 9.85277Z" fill="#111111"/>
<path d="M14.8462 7.59036C14.8423 10.1439 13.001 11.9824 10.458 11.9648C7.91495 11.9473 6.123 10.1127 6.13285 7.53175C6.14271 5.00749 7.99381 3.15337 10.4974 3.16509C13.0267 3.17682 14.8502 5.03094 14.8462 7.59036ZM12.6856 7.57473C12.6915 6.23641 11.7729 5.27516 10.4915 5.27125C9.22393 5.26929 8.30528 6.21101 8.29345 7.52784C8.28162 8.87203 9.19041 9.845 10.4659 9.85086C11.7571 9.85673 12.6836 8.90915 12.6876 7.57473H12.6856Z" fill="#111111"/>
<path d="M33.1462 9.69845C32.957 10.3744 32.7875 10.9938 32.6021 11.6092C32.5824 11.6737 32.4661 11.7538 32.3971 11.7518C31.1019 11.7245 29.7831 11.8222 28.5155 11.619C26.763 11.3357 25.5684 10.2416 25.1623 8.49493C24.7562 6.75022 25.1662 5.18721 26.625 4.03449C28.8724 2.25852 32.3518 3.3116 33.0516 5.95113C33.2862 6.83619 33.1482 7.67435 32.7263 8.47344C32.6711 8.57894 32.5391 8.71375 32.4385 8.71766C31.786 8.73915 31.1335 8.72938 30.4455 8.72938C30.6032 8.36207 30.7767 8.05143 30.8772 7.71733C31.305 6.30281 30.27 5.07585 28.8467 5.29076C27.798 5.44902 27.0429 6.50795 27.1829 7.6216C27.3327 8.80948 28.208 9.61834 29.4815 9.67305C30.5263 9.71798 31.5751 9.69258 32.6219 9.69845C32.7717 9.69845 32.9215 9.69845 33.1443 9.69845H33.1462Z" fill="#111111"/>
<path d="M5.52373 3.38592V5.44324C5.1196 5.44324 4.73125 5.43737 4.34486 5.44324C3.06151 5.46473 2.19018 6.31071 2.18032 7.53376C2.17047 8.78221 2.99646 9.63796 4.27587 9.68681C4.74505 9.70439 5.21423 9.68876 5.74452 9.68876C5.55527 10.3648 5.39165 10.9743 5.20831 11.5761C5.18466 11.6523 5.06243 11.7441 4.98161 11.75C3.61743 11.8184 2.31437 11.6308 1.29322 10.6383C-0.0571576 9.32731 -0.277949 7.72914 0.297685 6.01764C0.814178 4.47808 2.29663 3.46798 4.01762 3.38983C4.50454 3.36834 4.99344 3.38592 5.52373 3.38592Z" fill="#111111"/>
<path d="M72.5594 3.38388V5.44314C72.1691 5.44314 71.7965 5.43924 71.4239 5.44314C70.1169 5.46073 69.2258 6.30866 69.214 7.54148C69.2022 8.78017 70.0656 9.64568 71.3707 9.69062C71.8142 9.70625 72.2598 9.69257 72.794 9.69257C72.5988 10.3823 72.4234 11.0133 72.2361 11.6405C72.2203 11.6932 72.1139 11.7499 72.0449 11.7538C70.4264 11.8319 68.9301 11.533 67.907 10.1595C66.876 8.77431 66.7814 7.23279 67.4871 5.69322C68.181 4.17906 69.4939 3.4972 71.1302 3.38779C71.5974 3.35653 72.0705 3.38388 72.5633 3.38388H72.5594Z" fill="#111111"/>
<path d="M54.4211 0.0117366C55.0578 0.0117366 55.6689 0.00196783 56.28 0.0234592C56.3648 0.025413 56.4575 0.168038 56.5205 0.263772C56.5521 0.312616 56.5264 0.398581 56.5264 0.466963C56.5264 4.07947 56.5264 7.69197 56.5264 11.3045C56.5264 11.4393 56.5146 11.5741 56.5087 11.7343H54.4211V0.0117366Z" fill="#111111"/>
</g>
<defs>
<clipPath id="clip0_1063_1087">
<rect width="81.6" height="12" fill="white"/>
</clipPath>
</defs>
</svg>
