<?xml version="1.0" encoding="UTF-8"?>
<svg xmlns="http://www.w3.org/2000/svg" version="1.1" viewBox="0 0 1005.7 160.3">
  <!-- Generator: Adobe Illustrator 28.7.1, SVG Export Plug-In . SVG Version: 1.2.0 Build 142)  -->
  <g>
    <g id="_레이어_1" data-name="레이어_1">
      <path d="M548.5,148.3c-9.7,0-18.4.1-27-.1-1.5,0-3.4-1-4.5-2.2-2.7-2.9-5-6.2-7.9-9.8-12.9,13.8-28.9,18.1-46.8,15-11.9-2.1-21.5-8.4-29-18.1-12.9-16.7-15.5-48.2,17.5-71.4-.9-1.8-1.9-3.7-2.8-5.7-10.1-21.1,3.1-45.5,26.4-47.4,13.4-1.1,26.9-.2,40.8-.2v23.1c-5.8,0-11.5,0-17.3,0-5,0-10,0-15,0-11.5.3-16.6,8.9-10.4,18.8,4.1,6.6,9.2,12.6,14,18.8,6.3,8.2,12.7,16.2,19.7,25,3.5-8.4,7-16.1,9.8-24,1.4-3.9,3.4-4.9,7.3-4.8,6.6.3,13.3,0,20.5,0-1.4,3.5-2.5,6.4-3.6,9.3-5,12.5-10,25-15.2,37.4-1.2,2.9-.8,4.8,1.1,7.1,6.6,8.2,13,16.5,19.5,24.7.9,1.1,1.7,2.3,3.1,4.3ZM466,81c-11.9,6.6-17.8,16.4-16.3,26.6,1.5,10.8,8.6,18.4,18.9,20.5,9.5,2,20.4-2.5,25.7-10.8-9.4-12.1-18.9-24.3-28.3-36.4Z"/>
      <path d="M555.4,8.1h24.8v5.9c0,27.3,0,54.6,0,82,0,4.4.5,9,1.7,13.3,3.6,12.5,13.9,18.9,27.2,17.4,11.4-1.3,20.3-11,21.1-23.1,1.2-17.5-10.1-29.7-27.7-30.1-3.5,0-7,0-10.5-.1-.3,0-.6-.2-1.4-.5,2.2-7.9,4.5-15.9,6.7-23.8,24.7-3.6,55.5,10.9,58.6,46.3,2.4,27.9-12.9,49.5-38.2,55.5-32.9,7.7-62-14.2-62.6-47.8-.5-30.8-.1-61.6-.1-92.4,0-.7.1-1.3.3-2.6Z"/>
      <path d="M271.6,73.4c-5,0-9.3-.2-13.6,0-18.2.9-30,16.8-25.5,34.5,3,12,13,19.3,25.5,18.8,12-.5,21.2-8.6,23.2-20.9.6-3.6.8-7.3.8-10.9,0-26.8,0-53.6,0-80.5v-6.3h24.9c.1,1.3.3,2.6.3,3.9,0,29.6.2,59.3,0,88.9-.1,16.4-5.5,31-19.1,41.1-16.7,12.4-35.3,13.4-53.9,5.1-18-8.1-27-23.3-28-42.8-1.7-33.6,20.9-56.5,54.5-56,3.1,0,4.4.9,5.1,3.9,1.7,6.9,3.8,13.7,5.9,21.1Z"/>
      <path d="M927,103.7v45.6h-25.4v-5.4c0-43.5,0-86.9,0-130.4,0-4.5,1-6.2,5.8-5.9,6.4.4,12.9.1,19.9.1v86.4c1.9-2.2,2.9-3.3,3.9-4.6,9.7-12.7,19.4-25.4,29.3-38,1.3-1.6,4-2.9,6-3,8.3-.3,16.6-.1,26.2-.1-13.1,16.8-25.6,32.8-38.5,49.3,13.1,17,26.1,33.9,40.1,52-5.7,0-10.3-.6-14.7.1-12.4,2.1-20.2-2.7-26.8-13.3-7.2-11.7-16.3-22.2-24.6-33.2-.4.1-.8.3-1.2.4Z"/>
      <path d="M707.9,99.4c0-31,21.7-53.4,51.8-53.5,30.1,0,52.2,22.5,52.3,53.2,0,30.7-22,53.1-52.2,53.1-30.1,0-51.8-22-51.9-52.8ZM760,71.3c-15.2,0-26.5,11.7-26.5,27.7,0,15.8,11.1,27.5,26,27.6,15.3.1,26.6-11.5,26.7-27.4,0-16-11-27.8-26.2-27.9Z"/>
      <path d="M93.2,98.9c0-30.6,21.9-53,51.8-53,30.4,0,52.3,22.5,52.2,53.6,0,30.6-21.9,52.6-52.1,52.6-30.3,0-52-22.2-51.9-53.2ZM171.4,99.1c0-16.2-10.9-27.8-26.2-27.8-15.1,0-26.1,11.4-26.3,27.2-.1,16.2,10.7,28,25.9,28.1,15.4,0,26.5-11.4,26.5-27.5Z"/>
      <path d="M384.5,113.1c1.9-7,4.6-13.2,5.1-19.7.8-11.4-7.6-20.8-18.2-22-12.4-1.4-23.2,6.2-26.1,18.4-4.3,18,7.6,33.7,26.8,34.7,12.5.6,25,.2,37.5.3,1.8,0,3.6,0,6.2,0-2.3,8.2-4.3,15.7-6.5,23.1-.2.8-1.6,1.7-2.5,1.7-15.5-.3-31.2.9-46.3-1.6-20.9-3.4-35.2-16.7-40-37.7-4.8-21.1.2-39.8,17.5-53.9,22.9-18.6,67.1-12.7,76.7,23.2,2.8,10.7,1.1,20.8-3.9,30.4-.7,1.3-2.3,2.9-3.5,2.9-7.8.3-15.6.1-22.7.1Z"/>
      <path d="M85.9,48.6v24.8c-4.8,0-9.4,0-14.1,0-15.3.3-25.7,10.5-25.8,25.2-.1,15.1,9.7,25.4,25,26,5.6.2,11.2,0,17.5,0-2.3,8.2-4.2,15.5-6.4,22.8-.3.9-1.7,2-2.7,2.1-16.3.8-31.9-1.4-44-13.4-16.1-15.8-18.7-35.2-11.9-55.8,6.2-18.6,23.9-30.8,44.4-31.7,5.8-.3,11.6,0,18,0Z"/>
      <path d="M886.2,48.5v24.9c-4.6,0-9,0-13.5,0-15.6.2-26.3,10.4-26.4,25.3-.2,15,10.1,25.5,25.7,26,5.3.2,10.6,0,17,0-2.3,8.3-4.4,15.9-6.6,23.5-.2.7-1.5,1.4-2.2,1.4-18.9.9-36.5-2.4-48.8-18.4-12.9-16.8-14.2-35.7-5.7-54.7,8.3-18.5,24.2-26.7,43.9-27.9,5.4-.3,10.9,0,16.6,0Z"/>
      <path d="M669.7,8h24.7v141.4h-24.7V8Z"/>
    </g>
  </g>
</svg>