<svg width="42" height="48" viewBox="0 0 42 48" fill="none" xmlns="http://www.w3.org/2000/svg">
<path d="M41.9282 46.3153C38.6881 46.3153 35.8157 46.3538 32.9356 46.2844C32.4269 46.2689 31.7929 45.9448 31.4407 45.5665C30.5485 44.6094 29.7737 43.5442 28.8189 42.3632C24.5143 46.8633 19.2158 48.299 13.2442 47.257C9.28397 46.57 6.08294 44.5013 3.60977 41.3366C-0.67914 35.8563 -1.53223 25.5825 9.43267 17.9795C9.12744 17.3774 8.80655 16.7599 8.50132 16.1269C5.15159 9.23403 9.52659 1.24505 17.267 0.604387C21.7124 0.233884 26.2205 0.534918 30.8459 0.534918V8.07621C28.9206 8.07621 27.0109 8.07621 25.0935 8.07621C23.4342 8.07621 21.7672 8.04533 20.108 8.07621C16.273 8.16111 14.5981 11.0016 16.6409 14.2127C18.0183 16.3739 19.701 18.35 21.2898 20.3723C23.3873 23.043 25.5239 25.6751 27.8406 28.5697C28.9989 25.8141 30.1572 23.3054 31.0885 20.7196C31.5503 19.4383 32.2234 19.1064 33.5148 19.1604C35.714 19.2608 37.9211 19.1913 40.3394 19.1913C39.8933 20.326 39.5255 21.2831 39.1342 22.2248C37.4593 26.3081 35.8079 30.4068 34.0626 34.4669C33.6556 35.4163 33.7809 36.0415 34.4148 36.8057C36.6062 39.4764 38.735 42.1934 40.8873 44.895C41.1847 45.2655 41.443 45.6592 41.9126 46.3075L41.9282 46.3153ZM14.4338 24.2085C11.0528 26.3235 8.6422 28.8167 9.05701 32.8922C9.4092 36.3348 11.6241 38.7508 14.9347 39.5922C18.2062 40.4258 21.6655 39.1753 23.943 36.2576C20.8202 32.2979 17.674 28.3072 14.4338 24.2085Z" fill="#111111"/>
</svg>
